<svg width="151" height="307" viewBox="0 0 151 307" fill="none" xmlns="http://www.w3.org/2000/svg">
<path d="M162.1 108.436C162.1 108.436 179.952 116.772 176.042 156.685C172.132 196.597 125.859 272.1 119.994 279.649C114.129 287.199 90.9917 309.49 60.6816 305.533C30.3714 301.576 14.7607 281.052 14.7607 281.052M23.8743 190.231C16.5834 182.236 -11.5072 146.84 22.8747 109.223C61.9825 66.4316 95.6809 119.675 95.6809 119.675M113.835 106.79C113.768 98.0643 115.562 80.7354 129.497 71.5235M129.497 71.5235C129.901 71.2559 130.313 70.9964 130.739 70.7451C151.274 58.5248 172.456 68.953 180.599 75.7808C188.75 82.6167 193.638 88.8849 196.57 92.5826C199.503 96.2803 212.21 121.443 216.774 126.835C221.331 132.228 250.987 158.12 255.875 185.082C260.762 212.053 248.386 226.073 244.799 233.623C241.212 241.172 227.204 257.715 212.21 265.621C197.217 273.535 172.779 273.535 156.162 265.621C146.658 261.104 140.771 255.29 137.471 251.138M129.497 71.5235C114.048 39.282 125.197 1 125.197 1M123.492 30.1275C123.492 30.1275 140.191 11.4281 169.193 16.4638C198.194 21.4995 209.072 43.0694 209.072 43.0694C209.072 43.0694 197.695 40.5556 177.255 51.6974C156.816 62.8392 137.846 51.3406 133.965 49.1836C130.092 47.0266 124.242 39.0879 126.028 36.047C127.814 33.0062 137.912 26.5352 157.462 28.6922C177.013 30.8492 190.374 39.1204 190.374 39.1204M140.514 31.9194C140.514 31.9194 144.101 38.3903 155.177 41.6258C166.253 44.8613 173.426 44.1396 173.426 44.1396M157.462 28.6844C157.462 28.6844 166.26 21.4916 173.433 22.2133M157.132 103.474C172.074 115.41 170.17 135.115 166.907 148.057C163.643 160.999 142.792 205.947 137.251 217.445C131.709 228.952 106.294 267.778 99.7746 274.257C93.2554 280.728 63.5994 314.169 25.7999 290.078C-11.9996 265.986 4.30205 223.56 6.58046 216.01C8.85886 208.461 30.0407 181.855 39.4924 171.427C48.9441 160.999 87.3977 126.122 98.8045 117.137C110.211 108.153 138.236 88.3666 157.132 103.474ZM93.5862 178.976C102.384 186.526 118.678 203.068 102.06 232.187C85.4427 261.307 59.6967 247.651 52.8542 242.972C46.0116 238.293 23.1981 214.567 52.8542 184.726C70.736 166.732 93.5862 178.976 93.5862 178.976Z" stroke="#CBC4B1" stroke-width="1.69444" stroke-miterlimit="10"/>
</svg>
