<svg width="149" height="189" viewBox="0 0 149 189" fill="none" xmlns="http://www.w3.org/2000/svg">
<path d="M186.884 20.641C204.514 9.92662 219.912 0.960092 219.912 0.960092M70.9621 115.215C67.7623 118.946 64.7325 122.674 61.9234 126.366M123.177 95.7846C123.177 95.7846 123.175 95.7711 123.165 95.7405C123.027 95.1589 121.629 89.0173 122.403 80.3732C122.949 74.2585 124.58 66.8931 128.516 59.3639L128.515 59.3594C128.515 59.3594 128.515 59.3594 128.519 59.3584L128.518 59.3539L128.522 59.3529C128.522 59.3529 128.522 59.3529 128.522 59.3484M128.24 59.3545L128.241 59.3591L128.245 59.3581M128.763 61.3199C128.763 61.3199 126.027 75.4427 143.652 80.9003M122.609 80.3192C115.651 84.1 112.702 89.9918 111.881 91.94M85.6671 134.748C90.6606 136.293 97.3787 136.261 106.315 132.696M116.073 98.6968C115.443 96.8353 114.285 94.2079 112.251 91.7914C109.631 88.6822 105.563 85.9252 99.308 85.6044C96.3454 85.4499 92.89 85.8436 88.8629 87.007C70.9509 92.1824 69.4919 106.703 70.6102 115.461C71.0195 118.645 71.766 121.067 72.1893 122.005C72.6779 123.09 73.7992 125.458 75.8506 127.898M41.8835 142.286C37.5193 149.99 35.2284 160.562 39.6214 171.221C46.2382 187.29 59.8251 190.022 73.8875 185.544C87.9499 181.065 95.3225 162.86 93.5181 152.081C92.5619 146.361 90.3976 139.55 86.1105 134.482C83.6972 131.623 80.6026 129.32 76.6698 128.074C74.4342 127.364 71.9226 127.001 69.1105 127.07C66.2245 127.142 63.752 127.373 61.6308 127.71M40.0492 170.439C31.1558 181.399 19.5686 180.068 12.1137 173.803C9.9843 172.013 8.18715 169.815 6.89436 167.389C5.385 164.558 4.49886 161.624 4.11061 158.724C2.98861 150.467 5.8771 142.513 9.7168 138.112C13.4064 133.88 20.0486 132.422 23.5719 131.93M6.78449 159.302C6.78449 159.302 2.22527 156.81 1.31723 160.559C0.409184 164.308 4.60265 165.832 5.74325 169.508C6.88385 173.184 5.9636 178.167 8.01742 179.149C10.0705 180.127 12.9481 178.66 12.4616 173.679M178.349 25.6152C178.349 25.6152 168.045 31.664 171.215 49.6468C174.387 67.634 186.841 72.1445 186.841 72.1445C195.934 59.2277 194.928 45.244 193.216 33.8909C192.281 27.6702 189.293 23.2246 186.458 21.095M186.458 21.095C186.089 20.8176 185.723 20.5814 185.369 20.3844C183.451 19.3304 182.309 19.9845 181.008 20.8609C177.396 23.2931 180.097 26.3085 184.475 24.4386C185.388 24.0512 186.48 22.7584 186.458 21.095ZM186.458 21.095C186.461 20.69 186.415 20.2545 186.321 19.7974C185.616 16.2703 182.094 11.3344 172.652 6.80268C156.994 -0.70978 137.67 1.5837 137.67 1.5837C137.67 1.5837 147.884 16.4586 156.984 25.3356M156.984 25.3356C163.385 23.7562 168.686 23.9366 170.799 24.1413C175.25 24.5735 176.065 29.1954 168.045 31.664C165.446 32.4635 161.345 29.5853 156.984 25.3356ZM156.984 25.3356C149.893 27.0833 141.448 30.9931 134.482 39.4179C134.482 39.4179 150.939 42.2615 162.683 35.1877C155.847 39.6697 143.452 47.3305 139.216 50.557C135.827 53.1375 131.934 56.2153 127.695 59.6937C127.696 59.6981 127.696 59.6981 127.696 59.6981L127.692 59.6991C127.688 59.7001 127.688 59.7001 127.688 59.7001L127.688 59.7045M107.063 77.9307C104.389 80.3594 101.683 82.8596 98.9792 85.4193M122.561 66.2689C122.561 66.2689 113.969 75.3535 100.341 80.0202C86.7125 84.6868 69.4463 84.3671 69.4463 84.3671C69.4463 84.3671 69.0921 75.2066 85.7295 60.5617C102.367 45.9169 119.293 54.3643 122.223 56.7753C125.149 59.1872 124.645 61.7173 119.371 62.5578C114.098 63.3984 98.7365 48.2259 95.1008 37.715C91.1444 26.2801 90.9154 13.9806 90.9154 13.9806C90.9154 13.9806 107.044 21.4052 119.708 35.0369C132.372 48.6685 127.054 57.8471 127.054 57.8471L127.049 57.8436M99.6663 49.7232C99.6663 49.7232 88.2499 45.2105 83.9942 46.2207C83.9942 46.2207 70.0573 15.5408 31.1722 41.0845C31.1722 41.0845 39.1828 54.682 56.3102 54.4175C73.4376 54.1531 79.8946 45.9773 79.8946 45.9773C79.8946 45.9773 47.5981 45.2295 44.8287 41.2249M116.715 48.6293C116.715 48.6293 105.872 33.5166 104.119 31.5498C103.019 30.3176 97.6177 31.736 101.503 37.4223C105.832 43.7562 113.919 41.2708 113.919 41.2708M112.331 62.1853C112.331 62.1853 86.0245 67.4767 80.9273 75.3664M92.2887 60.4668C92.2887 60.4668 103.125 60.6718 108.088 66.3394M145.794 33.336C145.794 33.336 152.016 34.7611 157.58 33.6078C163.144 32.4545 163.144 32.4545 163.144 32.4545M174.275 23.1329C174.275 23.1329 163.513 8.84803 153.576 9.34016M183.261 30.6398C183.261 30.6398 180.794 43.4032 182.858 52.8234C184.921 62.2435 179.538 60.7747 178.478 54.7876C177.418 48.8006 184.186 44.743 184.186 44.743M178.054 31.3245C178.054 31.3245 183.7 33.5325 185.291 38.1197M136.232 95.5441C136.232 95.5441 138.465 80.1349 156.515 76.2914C172.042 72.9881 180.04 92.2034 177.525 100.778C176.027 105.889 171.44 118.227 151.646 119.503M50.2032 38.0239C50.2032 38.0239 60.5914 39.1531 64.1891 47.169M168.595 13.1926C168.595 13.1926 160.823 17.9427 154.569 14.5567M124.781 95.9856C121.957 96.3864 118.376 97.9599 116.028 99.4951C105.517 106.92 100.83 120.572 105.985 133.091C107.394 136.508 109.941 141.022 113.083 143.171C131.171 155.543 148.215 138.236 149.674 132.877C150.31 130.543 152.646 124.471 151.587 115.858C151.587 115.858 150.201 105.44 141.964 99.5556C133.916 93.7992 124.781 95.9856 124.781 95.9856ZM62.1051 125.894C62.1051 125.894 61.851 126.241 61.3768 126.828C51.1261 129.192 49.2551 132.259 49.2551 132.259C46.582 134.328 43.844 137.493 41.635 141.399C38.9314 142.004 36.1501 141.945 33.4256 140.843C28.4576 138.834 25.1407 135.539 22.9498 131.952C19.1358 125.715 18.5915 120.593 18.9822 115.785C19.4852 109.577 24.1088 105.24 24.1088 105.24C30.5829 97.3714 45.4552 92.3957 55.4395 101.204C65.4189 110.01 62.1051 125.894 62.1051 125.894ZM28.359 117.037C29.7311 116 29.6176 108.203 33.4699 109.682C37.3223 111.161 37.6643 116.951 36.1823 117.911C34.7003 118.87 31.5563 120.315 31.1445 119.073C30.7328 117.831 31.6196 116.8 32.2053 117.389C32.7944 117.973 33.9427 126.149 31.9182 127.336C29.8937 128.522 25.0264 123.498 26.4835 122.944C27.9406 122.389 28.195 122.739 28.3524 123.631C28.5097 124.524 25.2418 128.57 22.9694 125.593C20.6969 122.616 22.8333 118.214 24.7098 118.399C26.5939 118.577 28.359 117.037 28.359 117.037ZM126.026 129.308C127.173 129.026 126.608 121.916 130.221 122.637C133.833 123.359 134.536 128.425 133.72 129.843C132.905 131.26 130.924 131 131.256 129.592C131.589 128.184 140.191 123.845 140.957 127.561C141.722 131.277 139.161 135.968 136.064 135.965C132.966 135.961 132.337 134.054 131.013 134.77C129.69 135.486 132.519 142.01 127.782 141.871C123.044 141.732 122.66 133.518 123.894 133.387C125.13 133.259 125.757 133.522 125.873 134.724C125.99 135.927 124.099 138.924 119.606 135.964C115.113 133.001 118.325 128.165 120.575 127.748C122.82 127.328 123.009 130.054 126.026 129.308ZM61.3542 167.093C62.5189 167.162 63.8635 160.119 67.1073 161.898C70.351 163.678 69.682 168.788 68.5315 169.912C67.3819 171.04 65.5645 170.193 66.2539 168.93C66.9433 167.668 76.266 166.048 76.0114 169.871C75.7568 173.694 72.0832 177.463 69.1381 176.534C66.1922 175.6 66.1 173.571 64.6507 173.867C63.2013 174.164 64.168 181.317 59.7025 179.763C55.237 178.21 57.0397 170.151 58.2484 170.395C59.4571 170.638 59.9856 171.085 59.7781 172.282C59.5705 173.48 56.9791 175.813 53.4898 171.605C50.0005 167.398 54.3337 163.68 56.5821 163.952C58.8297 164.22 58.2931 166.916 61.3542 167.093ZM159.822 98.3655C163.112 98.594 160.02 102.838 162.365 103.586C164.01 104.106 166.137 105.182 165.543 107.863C165.07 109.993 159.485 113.172 156.682 107.645C155.234 104.795 159.662 105.442 159.535 106.783C159.426 107.925 157.691 111.727 155.522 111.509C153.349 111.292 151.252 109.694 152.178 106.834C152.806 104.891 155.117 105.42 155.522 102.087C155.873 99.1881 157.005 98.1714 159.822 98.3655ZM77.4954 105.863C79.2632 104.187 80.6615 109.497 81.5552 109.501C82.9321 109.5 83.4025 104.883 85.406 109.209C87.4096 113.536 84.1409 116.005 83.1091 114.845C82.0773 113.684 83.0772 112.842 83.4392 113.099C83.8055 113.355 86.2059 119.059 83.8427 121.749C81.4803 124.443 77.4496 116.779 78.4938 116.539C79.5379 116.298 81.1544 116.857 79.7489 118.068C78.3433 119.278 75.8705 118.901 75.7242 114.879C75.578 110.856 77.9085 113.419 78.2089 111.83C78.5094 110.24 75.3014 107.94 77.4954 105.863Z" stroke="#CBC4B1" stroke-width="1.29699" stroke-miterlimit="10"/>
</svg>
