<svg width="13" height="13" viewBox="0 0 13 13" fill="none" xmlns="http://www.w3.org/2000/svg">
<g clip-path="url(#clip0_1164_3127)">
<path d="M6.09836 0C9.46638 0 12.1967 2.73033 12.1967 6.09836C12.1967 9.21627 9.85674 11.7873 6.83718 12.152V7.96192L8.48691 7.96192L8.82913 6.09836H6.83718V5.43927C6.83718 4.94687 6.93377 4.60598 7.15534 4.38819C7.37693 4.1704 7.72351 4.0757 8.22349 4.0757C8.35003 4.0757 8.46651 4.07696 8.56986 4.07948C8.72018 4.08314 8.84272 4.08946 8.92802 4.09844V2.40909C8.89393 2.39962 8.85368 2.39015 8.8086 2.38083C8.70646 2.35971 8.57948 2.33935 8.44298 2.32147C8.15775 2.28411 7.83095 2.25756 7.60231 2.25756C6.67892 2.25756 5.98107 2.45511 5.49396 2.86429C4.90607 3.35812 4.62514 4.16021 4.62514 5.29535V6.09836H3.36761V7.96192H4.62514V12.0171C1.96891 11.3581 0 8.95836 0 6.09836C0 2.73033 2.73033 0 6.09836 0Z" fill="white"/>
</g>
<defs>
<clipPath id="clip0_1164_3127">
<rect width="12.1967" height="12.1967" fill="white"/>
</clipPath>
</defs>
</svg>
