<svg width="14" height="13" viewBox="0 0 14 13" fill="none" xmlns="http://www.w3.org/2000/svg">
<path d="M10.282 3.56862C9.8781 3.56941 9.54972 3.2424 9.54893 2.83852C9.54813 2.43465 9.87515 2.10626 10.2792 2.10547C10.6833 2.10468 11.0117 2.43188 11.0125 2.83576C11.013 3.23963 10.686 3.56783 10.282 3.56862Z" fill="white"/>
<path fill-rule="evenodd" clip-rule="evenodd" d="M7.03779 9.22937C5.3087 9.23272 3.90405 7.83379 3.9007 6.10428C3.89734 4.37518 5.29664 2.97031 7.02574 2.96695C8.75522 2.9636 10.1601 4.36333 10.1634 6.09224C10.1668 7.82174 8.76707 9.22601 7.03779 9.22937ZM7.02791 4.06575C5.90561 4.06773 4.9971 4.97961 4.99908 6.10211C5.00125 7.22482 5.91332 8.13314 7.03561 8.13097C8.15831 8.12879 9.06682 7.21711 9.06463 6.09441C9.06246 4.9717 8.15041 4.06358 7.02791 4.06575Z" fill="white"/>
<path fill-rule="evenodd" clip-rule="evenodd" d="M3.02696 0.328539C3.41423 0.176789 3.85742 0.0728562 4.50629 0.0422302C5.15676 0.011014 5.36442 0.00389839 7.0202 0.000738217C8.67638 -0.00242195 8.88404 0.00389717 9.53449 0.0327449C10.1836 0.0608022 10.627 0.163156 11.015 0.313326C11.4165 0.468036 11.7572 0.676299 12.0966 1.01437C12.4361 1.35284 12.6451 1.69231 12.8018 2.09321C12.9534 2.48089 13.0573 2.92368 13.0881 3.57297C13.1189 4.22323 13.1264 4.4307 13.1296 6.0867C13.1328 7.7425 13.126 7.95037 13.0976 8.60123C13.0693 9.24992 12.9672 9.6935 12.817 10.0814C12.6619 10.4829 12.454 10.8235 12.116 11.163C11.7779 11.5026 11.4381 11.7115 11.0372 11.8684C10.6495 12.0197 10.2067 12.1237 9.55782 12.1547C8.90736 12.1855 8.69969 12.1928 7.04332 12.196C5.38773 12.1991 5.18007 12.1928 4.52962 12.1642C3.88054 12.1357 3.43696 12.0336 3.04909 11.8836C2.6476 11.7283 2.30696 11.5206 1.9675 11.1823C1.62785 10.8441 1.41861 10.5044 1.26212 10.1035C1.11037 9.71603 1.00683 9.27304 0.975811 8.62434C0.944792 7.97368 0.937484 7.76582 0.934325 6.11002C0.931154 4.45402 0.937678 4.24655 0.966127 3.59608C0.994781 2.9468 1.09654 2.50341 1.24671 2.11514C1.40181 1.71384 1.60967 1.37339 1.94814 1.03374C2.28621 0.69428 2.62606 0.484829 3.02696 0.328539ZM3.44487 10.8591C3.66004 10.9419 3.98289 11.0407 4.57744 11.0666C5.22078 11.0944 5.41342 11.1005 7.04134 11.0974C8.66986 11.0944 8.86251 11.0875 9.50565 11.0573C10.0996 11.029 10.4225 10.929 10.637 10.8453C10.9218 10.734 11.1245 10.601 11.3375 10.3878C11.5505 10.1738 11.6823 9.97052 11.7925 9.6858C11.8755 9.47042 11.9741 9.14736 12 8.55281C12.0282 7.90986 12.0342 7.71702 12.031 6.08868C12.0281 4.46073 12.0211 4.26789 11.9905 3.62473C11.9624 3.03058 11.8627 2.70771 11.7787 2.49333C11.6675 2.20821 11.5349 2.00588 11.3211 1.79268C11.1073 1.57948 10.904 1.44808 10.6189 1.33783C10.4041 1.25464 10.0808 1.15624 9.48669 1.13036C8.84333 1.1021 8.65049 1.09637 7.02218 1.09953C5.39425 1.10269 5.20161 1.10921 4.55846 1.13965C3.96412 1.1679 3.64166 1.26768 3.42668 1.35166C3.14215 1.4629 2.93943 1.59509 2.72624 1.80908C2.51343 2.02307 2.38164 2.22599 2.27139 2.51131C2.1888 2.72629 2.08941 3.04955 2.06393 3.6437C2.03586 4.28705 2.02994 4.4799 2.0331 6.10784C2.03607 7.73618 2.04298 7.92903 2.07321 8.57178C2.10107 9.16633 2.20164 9.4888 2.28522 9.70398C2.39646 9.98831 2.52905 10.191 2.74264 10.4042C2.95663 10.6166 3.15994 10.7488 3.44487 10.8591Z" fill="white"/>
</svg>
