<svg width="13" height="13" viewBox="0 0 13 13" fill="none" xmlns="http://www.w3.org/2000/svg">
<path d="M12.0966 0H1.7032C1.20532 0 0.802734 0.393058 0.802734 0.879022V11.3153C0.802734 11.8013 1.20532 12.1967 1.7032 12.1967H12.0966C12.5945 12.1967 12.9995 11.8013 12.9995 11.3177V0.879022C12.9995 0.393058 12.5945 0 12.0966 0ZM4.42125 10.3934H2.6108V4.57139H4.42125V10.3934ZM3.51603 3.77813C2.93478 3.77813 2.46549 3.30884 2.46549 2.72997C2.46549 2.1511 2.93478 1.68181 3.51603 1.68181C4.0949 1.68181 4.56418 2.1511 4.56418 2.72997C4.56418 3.30645 4.0949 3.77813 3.51603 3.77813ZM11.1962 10.3934H9.38808V7.5634C9.38808 6.88924 9.37617 6.01975 8.44712 6.01975C7.50617 6.01975 7.36324 6.75584 7.36324 7.51575V10.3934H5.55755V4.57139H7.29177V5.36703H7.31559C7.55619 4.90966 8.14697 4.42608 9.02599 4.42608C10.8579 4.42608 11.1962 5.63145 11.1962 7.19892V10.3934Z" fill="white"/>
</svg>
