<svg width="312" height="304" viewBox="0 0 312 304" fill="none" xmlns="http://www.w3.org/2000/svg">
<path d="M94.5775 155.356C94.5775 155.356 93.8031 126.093 113.093 116.611C132.382 107.13 135.471 107.985 135.471 107.985C135.471 107.985 139.325 116.611 137.011 119.902C134.697 123.202 133.2 119.028 133.2 118.257C133.2 117.485 137.829 109.76 149.688 109.76C161.547 109.76 167.768 116.1 167.768 116.1C167.768 116.1 167.62 122.589 164.297 125.526C164.297 125.526 169.073 119.186 176.739 119.651C176.739 119.651 187.441 129.077 191.06 136.03C191.06 136.03 181.803 149.788 165.306 151.331C165.306 151.331 173.693 153.032 175.869 155.347C175.869 155.347 146.791 166.632 141.005 161.37C135.219 156.109 143.606 156.267 146.069 158.898C148.531 161.529 153.447 169.095 153.447 169.095C153.447 169.095 129.868 175.742 125.239 163.992L126.544 173.269C126.544 173.269 104.261 168.789 97.7533 161.212C91.2451 153.636 113.232 142.351 124.517 139.572C135.802 136.792 157.936 134.785 164.592 136.17M88.7915 152.261C88.7915 152.261 77.5066 130.007 54.0755 127.841C54.0755 127.841 50.6039 135.565 55.2327 140.055C55.2327 140.055 46.8451 123.518 18.1936 131.243C18.1936 131.243 23.4053 144.536 27.164 144.229C30.9228 143.922 31.3578 138.354 27.3119 138.205C23.2574 138.047 6.11693 138.131 -3.21028 148.868C-3.21028 148.868 4.02003 154.743 9.80603 153.813C9.80603 153.813 -0.895895 154.743 -9.86637 179.163C-9.86637 179.163 9.80604 188.124 20.5167 184.108C20.5167 184.108 16.7579 195.858 12.4163 196.471C12.4163 196.471 36.7175 195.542 39.4669 186.581C42.2163 177.619 33.2459 181.012 33.8288 183.801C34.4118 186.59 40.4849 196.471 40.4849 196.471C40.4849 196.471 56.3986 197.401 63.6289 184.108C63.6289 184.108 65.6562 192.456 62.1846 195.235C62.1846 195.235 91.6975 174.524 90.8274 158.452C89.9574 142.379 26.5724 160.32 19.751 167.496M34.9686 143.922C34.9686 143.922 53.1967 149.174 52.6224 159.065M68.5361 159.065C68.5361 159.065 65.0645 172.358 49.1508 175.76M148.679 124.029C148.679 124.029 131.103 130.22 129.624 140.622M115.694 147.938C115.694 147.938 139.421 151.034 151.28 146.702M110.395 111.666C110.395 111.666 123.899 90.6483 116.564 73.7486C116.564 73.7486 107.307 77.4576 107.307 80.7576C107.307 80.7576 115.024 47.3766 103.835 32.1222C103.835 32.1222 98.0491 34.5949 97.2747 39.9492C97.2747 39.9492 80.6824 13.9862 74.1307 11.0952C74.1307 11.0952 70.4677 18.1042 71.8163 26.5541C71.8163 26.5541 61.5929 3.88169 49.8295 1C49.8295 1 45.3921 9.44985 46.9321 15.2225C46.9321 15.2225 27.6426 1.41831 21.0822 6.36365C21.0822 6.36365 15.2962 23.0588 21.0822 31.7132C21.0822 31.7132 17.0277 30.0678 13.7562 32.336C13.7562 32.336 10.6674 54.1811 29.5741 67.1672C29.5741 67.1672 20.508 65.9309 19.7336 68.8126C18.9592 71.6943 22.8224 86.7441 43.2691 96.2258C43.2691 96.2258 33.8201 96.6348 33.2372 98.2895C33.2372 98.2895 45.9664 120.962 53.101 124.048M91.8715 139.693C91.8715 139.693 50.978 52.3126 47.5064 39.9492C44.0348 27.5859 59.8528 27.3814 63.8986 37.2721C71.1811 55.0735 63.8986 85.954 63.8986 85.954M95.9261 80.9621C95.9261 80.9621 95.3431 110.848 83.7711 118.88M83.7711 178.233C83.7711 178.233 69.3975 194.612 71.1376 209.141C71.1376 209.141 84.154 211.001 87.3384 206.975C87.3384 206.975 74.3221 215.016 74.6092 241.593C74.6092 241.593 82.7096 242.522 87.3384 236.025C87.3384 236.025 74.6092 248.695 85.3112 272.501C85.3112 272.501 94.2729 266.013 94.5688 259.208C94.5688 259.208 89.94 274.974 105.279 291.976C105.279 291.976 110.195 289.81 111.935 282.085C111.935 282.085 120.619 297.228 133.635 303.103C133.635 303.103 146.651 292.589 145.494 270.029C145.494 270.029 151.863 274.36 157.936 275.597C157.936 275.597 166.037 260.454 159.676 240.663C159.676 240.663 166.907 246.231 170.091 244.372C170.091 244.372 165.463 211.605 150.419 205.423C150.419 205.423 159.102 206.353 160.834 203.88C160.834 203.88 151.541 175.751 134.218 173.278M95.9261 165.87C95.9261 165.87 109.064 177.303 118.748 215.016C128.432 252.729 131.904 264.163 128.145 269.424C124.386 274.686 114.546 274.37 115.129 266.329C115.712 258.288 116.286 227.686 127.284 220.891M115.694 185.344C115.694 185.344 104.409 193.692 101.808 209.764C99.2063 225.837 100.068 233.571 100.068 233.571M122.933 88.5847C122.933 88.5847 130.459 70.4486 147.234 62.5194C147.234 62.5194 151.863 64.3785 152.446 75.552C152.446 75.552 161.13 51.4946 181.376 49.6354C201.632 47.7763 205.103 53.3444 205.103 53.3444C205.103 53.3444 215.231 72.5495 205.103 68.9241C194.975 65.2988 211.472 55.2036 220.147 55.8171C228.821 56.4306 254.288 64.0624 267.018 80.9621L261.232 94.7664C261.232 94.7664 276.858 88.5847 281.487 89.821C286.116 91.0573 309.26 122.18 311 139.693C311 139.693 293.642 161.547 269.332 162.161C269.332 162.161 266.435 170.806 271.646 176.987C271.646 176.987 220.242 183.374 231.527 172.247C242.812 161.12 233.267 190.178 236.93 196.481C236.93 196.481 204.233 203.573 191.069 189.974L186.005 202.337C186.005 202.337 168.421 200.078 157.075 185.335M284.376 127.841C243.291 113.934 196.994 125.796 196.994 125.796C196.994 125.796 201.049 151.015 235.19 156.592M245.605 93.53C245.605 93.53 227.09 102.222 224.776 124.466M191.069 78.0712C191.069 78.0712 178.479 85.3126 172.693 107.966M37.866 113.832C37.866 113.832 9.22308 83.8438 -17.5056 97.4342L-12.9116 106.265C-12.9116 106.265 -29.5562 95.0359 -55.38 101.208C-81.2038 107.381 -81.7781 120.767 -81.7781 120.767C-81.7781 120.767 -72.7815 137.592 -69.1533 128.854C-65.5251 120.116 -88.6691 128.017 -94.9771 131.364C-101.294 134.71 -117.355 148.672 -120.801 159.818C-120.801 159.818 -101.859 160.924 -101.285 163.155C-100.711 165.386 -129.98 173.195 -134 202.486C-134 202.486 -124.246 213.362 -108.176 217.824C-108.176 217.824 -94.9771 216.262 -93.8286 211.465C-93.8286 211.465 -94.5943 221.542 -97.4655 224.238C-97.4655 224.238 -90.5832 231.767 -68.579 234.928C-68.579 234.928 -41.337 228.04 -49.5157 223.345C-57.6944 218.651 -51.4473 239.213 -55.9542 244.967C-55.9542 244.967 -42.7552 255.007 -15.9743 250.545C-15.9743 250.545 -3.34951 246.641 1.24449 237.345C1.24449 237.345 2.96725 248.872 1.43591 252.776C1.43591 252.776 44.4785 244.595 47.7326 222.276C50.9867 199.957 51.7524 225.995 51.7524 229.155C51.7524 229.155 72.0251 218.186 73.9393 207.022M-14.2167 168.129C-14.2167 168.129 -71.6939 168.538 -112.587 198.219M-96.0038 156.592C-96.0038 156.592 -57.8075 161.463 -46.2355 178.4M-16.914 178.4C-16.914 178.4 -19.6112 193.274 -40.058 213.473M-43.9211 131.447C-43.9211 131.447 -33.1235 129.384 -16.914 131.447C-0.713169 133.511 2.75844 138.838 2.75844 138.838" stroke="#CBC4B1" stroke-width="1.55323" stroke-miterlimit="10"/>
</svg>
