<svg width="191" height="328" viewBox="0 0 191 328" fill="none" xmlns="http://www.w3.org/2000/svg">
<path d="M-3.68012 272.674C-1.97455 268.947 -0.367427 265.169 1.08981 261.439C2.60283 257.364 3.96597 253.337 4.93527 249.107C5.95161 245.027 6.62113 240.892 6.8454 236.654C7.01387 232.759 6.83557 228.812 5.80937 225.051C4.92868 221.489 3.20012 218.114 0.863281 215.422C-1.76457 212.332 -5.35192 210.117 -9.14927 208.541C-14.231 206.555 -19.6814 205.748 -25.192 205.532C-26.7805 205.463 -28.3691 205.394 -30.009 205.423C-30.2059 205.322 -30.4072 205.467 -30.6556 205.464C-30.9039 205.461 -31.1523 205.458 -31.3021 205.506C-29.4182 205.726 -27.5901 206.291 -25.9119 206.904C-21.9132 208.334 -18.0776 210.552 -14.9487 213.402C-10.5999 217.499 -7.76312 222.812 -6.42512 228.598C-4.45039 237.697 -5.86274 247.297 -8.35382 256.094C-10.2104 262.729 -12.7605 269.257 -15.6531 275.485C-16.5786 277.249 -17.3587 279.212 -18.2842 280.976C-18.747 281.858 -19.2098 282.74 -19.724 283.72L-20.9066 285.974C-21.0094 286.17 -21.365 286.609 -21.3694 286.856C-21.3694 286.856 -21.3694 286.856 -21.4208 286.954C-21.4208 286.954 -21.1254 287.105 -21.0269 287.156L-16.4977 289.481C-15.9069 289.784 -13.7407 290.896 -13.7407 290.896C-13.3294 290.112 -12.464 288.939 -12.0526 288.155C-10.823 286.049 -9.6447 284.042 -8.51348 281.886C-6.9195 278.848 -5.27412 275.712 -3.77859 272.623L-3.68012 272.674ZM-30.8098 205.758C-30.8098 205.758 -31.0068 205.657 -31.1566 205.705C-31.1566 205.705 -30.9597 205.806 -30.8098 205.758ZM-18.4581 287.977L-19.6397 287.37C-20.0335 287.168 -20.085 287.266 -19.9778 286.824C-19.7207 286.334 -19.4122 285.746 -19.1551 285.256L-18.3838 283.786C-17.8696 282.806 -17.3554 281.826 -16.8412 280.846C-13.4946 274.229 -10.5933 267.508 -8.2827 260.484C-5.28619 251.2 -3.12003 241.117 -4.58494 231.284C-5.52034 225.207 -7.95019 219.357 -12.1917 214.817C-15.2648 211.622 -19.0447 209.06 -23.2873 207.38C-25.2609 206.616 -27.3844 205.899 -29.5167 205.676C-24.1516 205.693 -18.6968 206.253 -13.5549 207.649C-9.45339 208.883 -5.46349 210.806 -2.33458 213.656C0.353436 216.155 2.43319 219.337 3.66507 222.706C4.94399 226.224 5.42208 230.077 5.45491 233.825C5.5304 237.969 5.01077 242.056 4.14431 246.089C3.27348 250.369 2.10724 254.497 0.645629 258.474C-0.666097 262.403 -2.32463 266.279 -4.03021 270.006C-5.53011 273.341 -7.12846 276.626 -8.82529 279.86C-10.5221 283.094 -11.3449 284.662 -12.7758 286.913C-13.29 287.893 -14.0525 288.87 -14.5667 289.85L-18.7021 287.727L-18.4581 287.977Z" fill="#CBC4B1"/>
<path d="M-3.28973 272.876C2.28551 261.059 7.28752 247.953 7.37408 234.687C7.42775 228.868 6.38957 222.986 3.24869 218.016C0.10781 213.045 -5.24302 209.428 -11.0227 207.581C-17.6415 205.428 -24.3467 205.345 -31.3003 205.259C-31.797 205.253 -31.8101 205.992 -31.3649 206.097C-23.7822 207.127 -16.2609 211.61 -11.7503 217.781C-7.62921 223.504 -5.96637 230.577 -5.89205 237.581C-5.81772 244.585 -7.43912 251.963 -9.54846 258.841C-11.9193 266.456 -15.0822 273.914 -18.6859 281.02C-19.6115 282.784 -20.3872 284.501 -21.4112 286.214C-21.7711 286.901 -21.9768 287.292 -21.339 287.744C-19.8665 288.749 -17.8929 289.513 -16.3175 290.322C-15.5298 290.726 -14.5496 291.478 -13.7061 291.537C-13.6076 291.588 -13.4063 291.443 -13.3549 291.345C-9.62313 285.423 -6.38369 279.249 -3.39258 273.072C-3.13547 272.582 -3.92315 272.178 -4.18025 272.668C-6.19439 276.983 -8.40542 281.197 -10.8134 285.31C-11.3276 286.29 -11.8418 287.27 -12.4545 288.199C-12.8144 288.885 -13.2816 290.014 -13.8855 290.45C-14.1382 290.694 -13.9369 290.548 -14.3822 290.444C-14.6776 290.293 -14.9729 290.141 -15.1699 290.04L-19.9945 287.564C-20.1914 287.463 -21.0776 287.008 -20.9791 287.058C-20.9791 287.058 -20.722 286.568 -20.5677 286.274C-19.5907 284.412 -18.5623 282.452 -17.5854 280.59C-15.5242 276.423 -13.51 272.108 -11.8427 267.74C-6.12084 253.261 -1.12539 234.927 -9.11378 220.378C-13.4909 212.285 -22.0307 206.409 -31.2489 205.161L-31.3135 205.999C-25.5031 206.12 -19.8383 206.042 -14.1997 207.443C-8.01743 208.999 -2.10976 212.031 1.67331 217.207C8.75151 227.06 6.81936 240.746 3.69363 251.706C1.7298 258.783 -1.02611 265.703 -4.12444 272.323C-4.38154 272.813 -3.59386 273.217 -3.33676 272.727L-3.28973 272.876Z" fill="#CBC4B1"/>
<path d="M-18.2524 287.586C-18.4494 287.485 -19.2884 287.178 -19.4339 286.979C-19.7249 286.581 -19.6396 287.371 -19.3782 286.635C-19.1681 285.996 -18.7097 285.361 -18.3498 284.675C-17.4757 283.009 -16.5502 281.245 -15.6761 279.579C-14.0307 276.443 -12.6293 273.057 -11.2279 269.672C-8.73358 263.489 -6.4832 257.056 -5.02486 250.466C-2.53268 238.808 -2.64301 225.442 -10.5687 215.777C-15.0922 210.345 -22.2194 206.065 -29.258 205.189L-29.3226 206.027C-22.2194 206.065 -14.7826 206.897 -8.3315 210.084C-1.88039 213.27 2.59171 218.8 4.25885 225.626C5.92599 232.452 5.29796 239.842 3.83525 246.679C2.2139 254.057 -0.297925 261.226 -3.25062 268.044C-4.90912 271.92 -6.71312 275.596 -8.66699 279.32C-10.6209 283.044 -12.6644 286.224 -14.6653 289.8L-14.0658 289.61L-18.1026 287.538C-18.5949 287.285 -19.0062 288.069 -18.5139 288.322L-14.4772 290.394C-14.2803 290.495 -13.9805 290.4 -13.8777 290.204C-12.0781 286.774 -9.93602 283.644 -8.1364 280.214C-6.33679 276.785 -4.53282 273.108 -2.97716 269.429C0.129796 262.316 2.89434 254.903 4.46864 247.377C5.93135 240.54 6.75628 233.252 5.23901 226.378C3.81582 219.801 -0.00973676 214.231 -5.75851 210.658C-12.7358 206.331 -21.3628 205.386 -29.4593 205.335C-29.956 205.329 -29.9691 206.068 -29.5239 206.172C-22.7336 207.045 -15.9488 211.025 -11.5194 216.16C-7.43238 220.994 -5.35393 227.036 -4.61994 233.259C-3.26355 246.394 -7.72599 259.901 -12.9072 271.92C-14.4628 275.599 -16.2154 279.178 -18.0664 282.706C-18.4778 283.49 -18.9405 284.372 -19.3519 285.155C-19.609 285.645 -20.1658 286.23 -20.226 286.821C-20.3934 287.855 -19.3016 287.918 -18.5139 288.322C-17.7263 288.726 -17.6103 287.791 -18.1026 287.538L-18.2524 287.586Z" fill="#CBC4B1"/>
<path d="M-1.27973 267.716C9.32359 255.369 21.0102 243.578 34.4434 234.176C43.4003 227.826 53.2819 222.572 63.9165 219.696C71.2575 217.617 78.8251 216.774 86.4093 217.805C91.3169 218.458 96.2115 219.851 100.746 221.929C102.125 222.637 103.504 223.345 104.732 224.1C105.323 224.403 105.858 225.051 106.449 225.354C106.548 225.405 107.794 225.174 107.743 225.272C107.555 224.677 107.366 224.083 107.178 223.489C106.707 222.003 106.087 220.565 105.316 219.175C104.358 217.19 103.198 215.35 101.888 213.558C100.334 211.517 98.5787 209.621 96.5707 207.968C94.2672 206.164 91.758 204.751 88.9447 203.681C85.7845 202.556 82.3158 202.02 78.9368 202.027C74.5643 202.022 70.3286 202.709 66.0842 203.89C60.6405 205.45 55.4792 207.901 50.5105 210.7C43.7857 214.464 37.4931 219.071 31.543 223.979C23.5283 230.439 16.0486 237.548 8.91148 244.956C6.83806 247.002 4.8117 249.197 2.83676 251.293C2.99103 250.999 3.97588 251.504 4.13015 251.21C11.5244 243.312 19.1112 235.761 27.2376 228.611C33.4447 223.213 39.8445 218.163 46.7794 213.761C51.9068 210.421 57.2737 207.578 62.9789 205.281C67.232 203.608 71.7248 202.431 76.2516 202.142C76.2516 202.142 76.5 202.145 76.6499 202.097C76.8983 202.1 77.1467 202.103 77.3951 202.107C77.8919 202.113 78.3886 202.119 78.7869 202.075C79.6306 202.134 80.6241 202.147 81.4164 202.305C83.0522 202.522 84.6367 202.838 86.1697 203.251C88.9874 204.076 91.548 205.39 93.8515 207.194C95.9109 208.749 97.8675 210.5 99.4214 212.541C100.881 214.286 102.041 216.125 103.15 218.063C103.967 219.602 104.686 221.09 105.255 222.627C105.491 223.369 105.773 224.261 106.008 225.003L107.302 224.921C106.809 224.668 106.518 224.27 106.026 224.017C104.848 223.164 103.667 222.557 102.386 221.9C100.515 220.94 98.4426 220.125 96.4171 219.459C93.7494 218.587 91.0772 217.962 88.3022 217.533C84.932 217.047 81.6559 216.858 78.2769 216.865C74.1998 217.012 70.2683 217.358 66.3281 218.197C61.5912 219.124 57.0426 220.646 52.5882 222.465C47.1828 224.667 42.0642 227.513 37.1897 230.609C31.21 234.382 25.517 238.8 20.1195 243.369C13.5097 249.058 7.38792 255.246 1.60865 261.734C0.0363706 263.54 -1.68583 265.393 -3.15963 267.249C-3.00536 266.955 -2.02054 267.46 -1.86627 267.166L-1.27973 267.716Z" fill="#CBC4B1"/>
<path d="M-0.935584 268.013C10.3275 254.885 22.7209 242.462 37.2505 232.876C50.6749 223.967 66.5483 217.062 82.9289 218.006C87.9908 218.364 93.0911 219.365 97.7285 221.248C100.096 222.214 102.413 223.279 104.524 224.736C105.115 225.039 105.795 225.886 106.438 226.091C106.832 226.293 107.384 225.955 107.83 226.059C108.125 226.211 108.331 225.819 108.335 225.572C106.089 217.702 100.807 210.139 93.7248 206.006C86.6428 201.873 78.2019 201.522 70.2229 203.149C61.8457 204.821 53.8745 208.815 46.5884 213.411C39.3022 218.006 32.0972 223.638 25.3845 229.523C17.4595 236.527 10.074 243.932 2.78259 251.635C2.62832 251.929 2.81656 252.523 3.16779 252.33C3.81883 252.042 4.20842 252.491 4.86382 251.956C6.02473 250.935 7.0915 249.617 8.20534 248.447C10.3816 246.205 12.5579 243.963 14.8326 241.772C19.2322 237.436 23.7303 233.152 28.3739 229.066C37.5068 221.189 47.3292 213.666 58.2514 208.574C64.2136 205.787 70.4112 203.743 76.9294 203.232C77.4776 203.141 77.3922 202.35 76.8955 202.344C76.8955 202.344 76.8954 202.344 76.797 202.294C76.2488 202.385 76.3342 203.176 76.831 203.182C83.7902 203.022 90.6588 205.179 95.8949 209.732C100.69 213.935 104.363 219.801 106.044 225.889C106.091 226.037 106.288 226.139 106.536 226.142L107.83 226.059C108.228 226.015 108.335 225.572 108.19 225.373C101.819 220.361 93.0658 217.984 85.0276 217.341C76.9894 216.699 68.4239 217.776 60.6802 220.146C44.4434 225.123 30.2049 235.107 17.6834 246.345C10.311 253.011 3.52505 260.226 -2.91833 267.742C-3.0726 268.036 -2.88436 268.63 -2.53313 268.437C-2.18189 268.245 -1.59098 268.548 -1.23974 268.355C-0.738606 268.114 -0.973911 267.372 -1.47505 267.612C-1.82628 267.805 -2.4172 267.502 -2.76844 267.695L-2.3832 268.39C8.5757 255.603 20.515 243.569 34.4964 234.075C47.9766 224.822 63.4474 218.207 79.9953 218.117C89.4385 217.988 100.033 220.191 107.581 226.056L107.941 225.37L106.549 225.402L107.042 225.655C105.215 219.368 101.251 213.104 96.2593 208.8C90.8732 204.294 84.0046 202.137 76.9469 202.246L76.9808 203.134C76.9808 203.134 76.9808 203.134 77.0793 203.185L77.0454 202.297C65.6491 203.289 55.1723 208.486 45.77 214.732C35.464 221.509 26.1297 229.532 17.3819 238.104C14.803 240.637 12.2241 243.17 9.74364 245.753C8.57837 247.021 7.31466 248.238 6.20082 249.408C5.64389 249.993 4.97974 251.021 4.17879 251.356C3.72907 251.498 3.43362 251.347 2.93248 251.587L3.31772 252.283C15.2702 239.508 28.0619 227.04 42.5488 217.06C49.3895 212.36 56.8683 208.113 64.8647 205.499C72.8611 202.886 81.5721 202.008 89.2713 204.964C98.2037 208.429 104.86 216.946 107.483 226.005L107.988 225.518C107.594 225.316 107.192 225.607 106.845 225.554C106.25 225.497 105.47 224.599 104.978 224.347C103.111 223.14 101.141 222.129 99.0689 221.314C94.9753 219.586 90.6717 218.496 86.2094 217.948C78.227 216.961 70.0598 217.994 62.3675 220.265C46.0836 225.094 31.8451 235.078 19.3236 246.316C11.8012 253.029 4.96397 260.343 -1.58226 268.055C-1.93785 268.494 -1.35134 269.044 -0.995747 268.605L-0.935584 268.013Z" fill="#CBC4B1"/>
<path d="M6.79891 235.809C10.7183 227.624 14.1455 219.185 17.0804 210.495C19.5955 203.08 21.5669 195.512 22.9948 187.788C24.2553 181.098 25.0193 174.402 25.4366 167.652C25.738 161.837 25.5942 155.919 25.0009 150.143C24.5444 145.058 23.7882 140.069 22.5354 135.073C21.6163 130.871 20.2991 126.712 18.7806 122.7C17.5487 119.331 16.0172 116.058 14.4343 112.883C13.2364 110.402 11.7388 108.017 10.1899 105.73C9.12441 104.188 8.05894 102.646 6.84364 101.152C6.30874 100.504 5.8252 99.7583 5.2389 99.2087L3.94608 99.2912C4.4897 99.4458 5.03333 99.6005 5.62399 99.9037C7.05359 100.513 8.58163 101.173 9.85704 102.077C12.0228 103.188 13.8845 104.641 15.8447 106.145C18.1942 108.097 20.3896 110.343 22.3837 112.735C24.7159 115.673 26.7954 118.855 28.4724 122.327C30.5345 126.495 32.0957 130.902 33.1603 135.304C34.5028 140.843 35.1475 146.521 35.3941 152.244C35.6145 159.446 35.0901 166.638 34.1205 173.726C32.9192 182.685 30.926 191.486 28.3891 200.133C25.3165 210.992 21.5034 221.594 17.1467 232.043C16.0029 234.937 14.7606 237.782 13.5183 240.626C13.6211 240.43 14.7084 240.74 14.8112 240.544C19.6218 229.707 23.9401 218.617 27.518 207.272C30.4103 198.186 32.7589 188.945 34.4655 179.5C35.7906 171.972 36.619 164.438 36.7026 156.895C36.7601 150.831 36.2696 144.859 35.2311 138.979C34.3721 134.185 32.9652 129.483 31.0573 125.022C29.483 121.354 27.5577 117.878 25.2299 114.693C23.3386 112.106 21.1475 109.613 18.7509 107.513C16.7951 105.762 14.7365 104.208 12.5751 102.85C11.0514 101.944 9.42929 100.987 7.7514 100.374C7.0623 100.02 6.17633 99.5654 5.33302 99.5056C5.33302 99.5056 5.33302 99.5056 5.23458 99.4551C5.03769 99.354 4.08722 99.7367 3.94173 99.5376C4.33115 99.9863 4.72058 100.435 5.11 100.883C6.17981 102.179 7.15117 103.424 8.07114 104.766C9.57306 106.905 10.8267 109.041 12.1274 111.325C13.7147 114.254 15.1992 117.379 16.4868 120.403C18.1081 124.22 19.3783 128.229 20.4516 132.138C21.7601 136.789 22.6191 141.583 23.3282 146.424C24.0243 152.004 24.3694 157.777 24.3206 163.348C24.2544 169.905 23.6446 176.308 22.6367 182.754C21.4615 190.235 19.8411 197.61 17.6258 204.93C15.0933 213.33 12.0686 221.477 8.59872 229.52C7.61779 231.628 6.68388 233.885 5.70293 235.993C5.80573 235.797 6.89299 236.106 6.99578 235.91L6.79891 235.809Z" fill="#CBC4B1"/>
<path d="M7.19263 236.009C15.657 217.969 22.2509 198.969 24.7354 179.228C27.22 159.487 25.86 140.881 19.2729 122.949C17.4721 118.046 15.2218 113.284 12.522 108.665C11.1229 106.33 9.62526 103.945 7.97348 101.853C7.39153 101.057 6.71115 100.21 6.07779 99.512C5.346 98.7633 4.9949 98.9562 3.9033 98.8933C3.40673 98.8871 3.39367 99.6266 3.83885 99.7307C8.77848 101.271 13.2938 104.335 17.107 107.785C20.9202 111.235 24.0312 115.07 26.4871 119.44C31.4033 127.933 33.8618 137.775 34.7322 147.549C36.4128 167.688 32.0273 188.194 25.8785 207.298C22.3006 218.644 17.9352 229.585 13.1716 240.571C12.966 240.962 13.4068 241.313 13.7579 241.12C14.109 240.927 14.6482 241.329 15.0507 241.038C15.252 240.892 15.4105 240.352 15.5133 240.156C15.8731 239.47 16.1859 238.636 16.4472 237.899C17.5867 235.251 18.7262 232.603 19.7673 229.904C21.8964 224.654 23.8757 219.452 25.6582 214.149C29.4243 203.398 32.4969 192.539 34.5337 181.273C38.3198 160.956 39.1229 137.989 28.7217 119.468C25.8337 114.254 22.0423 109.572 17.3902 105.816C15.139 103.915 12.7337 102.307 10.0757 100.942C8.79591 100.285 7.51612 99.6286 6.23199 99.2181C5.93665 99.0665 5.54287 98.8644 5.14474 98.9087C4.79801 98.8551 4.29708 99.0954 4.00175 98.9438C3.60798 98.7417 3.20112 99.279 3.5435 99.5791C6.56478 102.871 9.02943 106.748 11.2457 110.621C13.462 114.495 15.4214 118.858 17.1324 123.219C20.3575 131.838 22.3325 140.936 23.263 150.118C25.0211 168.68 22.3057 187.432 16.975 205.215C13.8597 215.679 9.80703 225.786 5.16365 235.589C4.95805 235.981 5.39885 236.332 5.74994 236.139C6.10103 235.946 6.64027 236.347 7.04276 236.057C7.5437 235.816 7.06019 235.071 6.6577 235.361C6.30662 235.554 5.71593 235.251 5.36485 235.444L5.95119 235.994C14.3084 218.396 20.6967 199.788 23.3224 180.492C25.9481 161.197 24.8747 143.235 18.9767 125.658C17.2744 120.804 15.2723 116.046 12.8679 111.578C10.4634 107.111 7.75923 102.738 4.34852 98.9974L3.98872 99.6833C4.38249 99.8854 4.78494 99.5946 5.37996 99.6513C6.47156 99.7142 7.99526 100.621 8.9797 101.126C11.4408 102.389 13.7991 103.849 16.0546 105.504C20.3173 108.811 23.8735 112.751 26.7746 117.225C32.3328 125.923 35.1337 136.066 36.1452 146.285C38.2065 167.365 33.3071 188.851 26.7942 208.887C24.9002 214.879 22.711 220.72 20.4233 226.51C19.2794 229.404 18.187 232.201 16.9447 235.046C16.3235 236.468 15.7024 237.89 15.1326 239.214C15.0298 239.41 14.8713 239.951 14.7214 239.998C14.7214 239.998 14.4261 239.847 14.2248 239.992C13.9251 240.087 13.7283 239.986 13.527 240.131L14.1133 240.681C22.7066 220.966 30.17 200.547 33.9221 179.342C37.344 159.958 37.9241 138.368 28.456 120.451C25.859 115.635 22.5598 111.206 18.5541 107.409C14.5484 103.611 9.63922 100.345 4.40426 98.653L4.33978 99.4904C4.58807 99.4935 5.18744 99.3037 5.48277 99.4553C5.87655 99.6575 6.36007 100.403 6.65105 100.801C7.42989 101.698 8.05889 102.643 8.68789 103.588C10.0443 105.528 11.3023 107.417 12.4575 109.502C14.8193 113.575 16.83 117.84 18.4426 122.15C21.7662 130.82 23.8911 139.87 24.7702 149.151C26.6738 167.911 24.0525 186.961 18.5676 205.038C15.4522 215.501 11.3481 225.706 6.65335 235.608C6.39635 236.098 7.18392 236.502 7.44092 236.012L7.19263 236.009Z" fill="#CBC4B1"/>
<path d="M24.9158 231.251C31.3345 216.394 39.2807 202.198 49.3362 189.458C57.1571 179.549 66.2531 170.543 76.4141 163.078C84.3109 157.311 92.7894 152.339 101.794 148.508C108.047 145.875 114.441 143.687 121.018 142.339C123.86 141.685 127.095 141.232 129.83 141.02C129.928 141.07 129.731 140.969 129.581 141.017C129.68 141.067 129.881 140.922 130.078 141.023C128.096 140.752 126.06 140.825 124.023 140.898C118.558 141.076 113.286 141.602 107.953 142.719C100.131 144.297 92.5898 146.766 85.3313 150.126C75.7702 154.542 66.7823 160.247 58.7183 167.047C48.2873 175.741 39.3195 185.932 31.5282 196.975C30.4579 198.539 29.3877 200.103 28.266 201.765C28.3688 201.569 29.4556 201.878 29.5584 201.683C37.0588 190.241 45.8856 179.605 56.0256 170.514C63.9956 163.416 72.7441 157.216 82.2154 152.256C89.5297 148.552 97.1775 145.64 105.108 143.62C110.543 142.307 116.32 141.295 121.836 141.019C124.023 140.898 126.453 141.027 128.687 141.055L129.183 141.061C126.748 141.178 124.309 141.542 121.917 142.055C115.69 143.209 109.699 145.106 103.801 147.3C95.0023 150.74 86.6822 155.171 78.8925 160.496C68.7401 167.468 59.5545 175.931 51.4941 185.344C41.2505 197.491 32.8679 211.09 26.2097 225.45C25.2806 227.459 24.3514 229.469 23.5207 231.529C23.6234 231.333 24.8087 231.693 24.813 231.446L24.9158 231.251Z" fill="#CBC4B1"/>
<path d="M25.2119 231.402C32.8255 213.554 42.955 196.624 55.9724 182.047C68.3306 168.251 83.3754 156.953 100.439 149.427C105.091 147.464 109.79 145.649 114.631 144.28C119.471 142.911 124.649 142.088 129.776 141.363C130.324 141.272 130.238 140.482 129.691 140.574C129.691 140.574 129.592 140.523 129.442 140.57L129.528 141.36C129.626 141.411 129.827 141.265 130.024 141.366C130.521 141.373 130.534 140.633 130.089 140.529C126.075 140.085 121.949 140.329 117.871 140.722C113.793 141.115 110.108 141.71 106.321 142.5C98.5448 144.227 90.9526 146.794 83.741 150.303C69.121 157.219 56.1818 167.36 45.0995 179.201C38.7214 186.121 32.9294 193.591 27.8263 201.414C27.6208 201.806 28.0615 202.157 28.4124 201.964C28.712 201.869 29.2041 202.122 29.5037 202.027C29.953 201.884 30.1629 201.246 30.4668 200.905C31.7426 198.949 33.0654 197.142 34.4396 195.236C36.8326 191.865 39.4225 188.594 42.1108 185.374C47.436 179.033 53.3517 172.994 59.7507 167.701C72.1978 157.307 86.6427 149.057 102.409 144.719C106.95 143.445 111.683 142.518 116.36 141.935C118.5 141.666 120.738 141.448 122.873 141.425C125.009 141.402 127.238 141.677 129.425 141.556C129.921 141.562 129.887 140.675 129.34 140.766C120.045 141.341 110.659 144.23 102.057 147.771C93.4547 151.311 85.5325 155.698 77.9439 160.878C62.2615 171.725 49.2485 186.055 38.8882 201.996C32.8646 211.336 27.6753 221.229 23.3248 231.428C23.1192 231.82 23.5599 232.17 23.9109 231.977C24.2618 231.785 24.8009 232.186 25.2033 231.895C25.704 231.655 25.2206 230.909 24.8183 231.2C24.4673 231.393 23.8769 231.09 23.5259 231.282L24.1121 231.832C31.7256 213.984 41.7053 197.102 54.7697 182.673C67.0765 168.975 82.0744 157.529 98.9882 150.05C108.447 145.83 119.035 142.314 129.472 141.705L129.387 140.915C127.546 141.089 125.715 140.77 123.828 140.796C121.692 140.819 119.506 140.939 117.366 141.209C113.386 141.652 109.252 142.389 105.362 143.376C97.4832 145.298 89.8353 148.21 82.5723 151.817C67.9436 159.225 54.9958 169.859 44.2043 182.098C41.1136 185.608 38.2199 189.22 35.3731 192.98C34.0503 194.788 32.6761 196.693 31.3533 198.501C31.0964 198.99 30.7925 199.332 30.4372 199.771C30.0819 200.21 29.7179 201.142 29.2171 201.382C28.8191 201.427 28.5239 201.275 28.0746 201.417L28.6607 201.967C46.2089 175.419 71.2876 152.612 102.811 144.428C107.151 143.299 111.584 142.467 116.061 142.03C120.537 141.593 125.51 141.162 130.118 141.663L130.183 140.826C130.084 140.776 129.836 140.773 129.686 140.82C129.138 140.912 129.224 141.702 129.772 141.61C129.772 141.61 129.87 141.66 130.02 141.613L129.934 140.823C125.604 141.459 121.324 141.997 117.083 143.177C112.444 144.401 108.049 145.874 103.598 147.692C95.1965 151.087 87.1759 155.423 79.737 160.556C64.0547 171.402 50.9946 185.584 40.5872 201.376C34.3625 210.862 29.0705 220.95 24.6172 231.345C24.3603 231.835 25.1475 232.239 25.4044 231.75L25.2119 231.402Z" fill="#CBC4B1"/>
<path d="M30.3213 198.254C31.2454 196.492 32.1695 194.729 33.0423 193.065C35.3012 188.757 37.6115 184.351 39.9687 180.094C42.8951 174.513 45.9711 168.885 48.9957 163.355C52.0204 157.825 54.9981 152.146 58.0228 146.616L64.7482 133.79C65.8733 131.882 67.0498 129.877 68.0296 127.77C72.1027 119.05 77.0139 110.637 82.9556 102.876C87.9349 96.2373 93.6497 90.1003 99.8988 84.6105C105.34 79.9483 111.169 75.7345 117.435 72.1174C122.799 69.031 128.303 66.3899 134.047 64.2445C138.743 62.4309 143.58 61.0626 148.511 59.9911C152.048 59.1978 155.73 58.6034 159.309 58.2048C160.503 58.0719 161.696 57.9391 162.838 57.9041C162.838 57.9041 162.936 57.9546 163.086 57.9072C163.086 57.9072 163.086 57.9072 163.334 57.9103C163.582 57.9134 163.83 57.9165 164.078 57.9196C164.672 57.9764 164.274 58.0207 163.872 58.3113C162.063 59.619 160.301 61.0752 158.688 62.4839C155.562 65.352 152.58 68.4189 149.894 71.6374C146.348 75.7813 143.49 80.2788 140.483 84.8237C135.384 92.6438 129.01 99.561 122.299 105.932C114.48 113.225 105.93 119.77 96.8538 125.175C92.2902 127.927 87.4871 130.182 82.6841 132.438C78.6809 134.359 75.0154 136.826 71.6406 139.691C65.2418 145.228 60.1599 152.063 55.8647 159.302C52.9 164.241 50.3757 169.531 48.1465 174.973C47.7358 175.756 47.2607 177.376 46.9997 178.112C47.0511 178.014 48.5009 177.392 48.5523 177.294C50.4394 171.553 53.2161 166.019 56.2364 160.735C62.0718 150.559 69.639 140.651 79.8698 134.472C82.7782 132.735 85.8276 131.443 88.83 130.002C92.1832 128.369 95.4893 126.587 98.7484 124.657C105.168 120.746 111.349 116.34 117.089 111.583C122.577 107.069 127.675 102.107 132.432 96.8445C136.684 92.0688 140.345 86.9901 143.862 81.7125C147.738 75.7495 152.302 70.1401 157.354 65.0295C159.929 62.4995 162.551 60.1179 165.515 58.0362C165.566 57.9383 165.767 57.793 165.917 57.7456C163.932 57.7207 161.845 57.8916 159.758 58.0626C155.037 58.4961 150.358 59.3244 145.774 60.4496C138.897 62.1372 132.208 64.4186 125.805 67.3441C117.752 71.0373 110.079 75.6715 103.034 81.2498C94.5311 87.9432 86.9984 95.8806 80.6417 104.67C76.9799 109.749 73.5105 115.175 70.5842 120.756C68.9926 123.791 67.5978 126.927 66.0576 129.864L59.3836 142.592C59.2852 142.542 47.6912 164.176 47.6912 164.176C43.9435 171.323 40.0974 178.42 36.1999 185.615C34.0437 189.727 31.8875 193.839 29.6329 197.9L29.3248 198.488C29.4275 198.292 30.5137 198.601 30.6163 198.405L30.3213 198.254Z" fill="#CBC4B1"/>
<path d="M30.7137 198.458C37.1269 186.466 43.5401 174.474 50.0003 162.63C53.0807 156.756 56.3108 150.834 59.4895 145.01C62.6683 139.186 65.9454 133.413 68.7307 127.387C80.1159 103.532 97.9451 82.8627 121.584 70.3967C128.094 67.029 134.942 64.2076 142.024 62.1282C149.107 60.0489 155.979 58.6076 163.13 58.303C163.626 58.3092 163.592 57.4218 163.044 57.5135L163.079 58.4009C163.476 58.3566 163.874 58.3124 164.319 58.4165L163.93 57.9681C163.93 57.9681 161.569 59.6139 161.167 59.9045C160.11 60.7289 159.152 61.6039 158.194 62.4788C156.025 64.4719 153.955 66.5156 151.983 68.6097C148.086 72.9464 144.779 77.5861 141.519 82.3743C138.26 87.1624 134.799 92.0959 130.799 96.6283C127.103 100.82 123.014 104.809 118.779 108.599C110.361 116.082 101.165 122.669 91.1998 127.865C86.2427 130.415 81.0462 132.469 76.4269 135.564C71.8075 138.66 67.8722 142.356 64.4244 146.55C56.6219 155.716 50.4228 166.824 46.55 178.257C46.3446 178.648 46.9861 178.853 47.2384 178.61C47.6918 178.222 48.436 178.231 48.7397 177.89C48.8424 177.694 48.9964 177.4 49.1504 177.107C49.5141 176.175 49.8778 175.243 50.1945 174.163C51.2856 171.368 52.5221 168.772 53.9083 166.129C56.5267 161.135 59.3417 156.243 62.6955 151.752C65.797 147.504 69.2405 143.555 73.2698 140.157C77.6027 136.417 82.3118 133.864 87.4656 131.416C97.7219 126.617 107.358 120.381 116.118 113.198C124.878 106.015 133.463 97.4995 140.231 87.9263C143.995 82.6517 147.367 77.1751 151.525 72.1025C155.781 67.0805 160.631 62.1152 166.008 58.2898C166.359 58.0971 166.171 57.5034 165.773 57.5477C159.525 57.3216 153.054 58.4723 147.075 59.8756C140.549 61.3706 134.262 63.3614 128.163 65.9458C116.316 70.9219 105.473 78.0295 96.0412 86.7316C86.1047 95.9201 77.7759 106.804 71.166 118.695C69.5744 121.73 67.9829 124.766 66.541 127.753C64.8468 130.984 63.1526 134.215 61.4584 137.446C58.1726 143.712 54.7885 149.928 51.3531 156.241C43.8618 170.29 36.3234 184.189 28.8321 198.238C28.6267 198.629 29.0671 198.98 29.4178 198.787C29.7686 198.594 30.3073 198.995 30.7094 198.705C31.2098 198.465 30.7267 197.719 30.3246 198.01C29.9739 198.203 29.3838 197.9 29.0331 198.092L29.6189 198.642C36.1347 186.454 42.7019 174.168 49.3675 161.932C52.5506 155.862 55.8834 149.745 59.1648 143.725C62.4462 137.705 65.8817 131.391 68.9194 125.122C80.5056 101.122 99.622 80.617 123.843 68.9467C130.348 65.8254 137.191 63.2503 144.269 61.4173C151.348 59.5843 158.716 58.1491 166.008 58.2898L165.773 57.5477C156.38 64.0329 149.022 73.3031 142.802 82.7846C136.124 92.9009 128.078 101.817 118.907 109.784C109.737 117.75 100.447 124.039 90.1347 129.183C85.1776 131.732 80.1308 133.738 75.7038 137.181C71.5805 140.283 67.8419 144.08 64.6464 148.031C60.9419 152.715 57.6778 157.75 54.7557 163.084C53.1642 166.119 51.5727 169.154 50.3275 172.243C49.7584 173.567 49.2877 174.94 48.6673 176.362C48.3549 177.195 48.2052 177.243 47.5038 177.628C47.3028 177.773 47.1531 177.821 46.952 177.966L47.6405 178.32C51.2009 167.721 56.7883 157.541 63.7396 148.808C67.2902 144.418 71.2811 140.378 75.9048 137.036C80.5285 133.694 85.5753 131.688 90.4811 129.236C100.194 124.283 109.236 117.99 117.547 110.949C126.111 103.665 134.045 95.4372 140.411 86.1546C144.18 80.6337 147.752 75.0118 152.256 69.9928C154.382 67.605 156.555 65.3655 158.925 63.2271C160.187 62.011 161.547 60.8455 162.954 59.8283C163.408 59.4398 165.007 58.77 165.067 58.1795C165.071 57.9332 164.926 57.7342 164.678 57.7311C164.332 57.6775 163.934 57.7218 163.438 57.7156C162.942 57.7093 162.976 58.5967 163.523 58.505L163.489 57.6176C157.331 57.9346 151.108 59.0885 145.176 60.6402C138.795 62.3342 132.654 64.5238 126.7 67.3072C114.994 72.7286 104.245 80.133 95.0057 89.1824C85.514 98.4751 77.6812 109.365 71.4221 121.064C69.8305 124.099 68.487 127.137 66.8955 130.172C65.304 133.207 63.7638 136.145 62.2236 139.082C59.0405 145.152 55.759 151.172 52.5289 157.094C45.1916 170.848 37.756 184.552 30.47 198.209C30.2133 198.698 31.0001 199.102 31.2568 198.613L30.7137 198.458Z" fill="#CBC4B1"/>
<path d="M165.072 57.697C159.187 59.3972 153.485 61.9374 147.934 64.4302C136.026 69.997 124.49 76.9975 114.806 85.943C109.964 90.4157 105.853 95.6368 101.498 100.608C97.8018 104.8 94.0075 108.941 90.1148 113.031C81.923 121.749 73.8295 130.517 66.6169 139.987C57.5263 151.847 49.9067 164.711 43.5187 178.084C42.4918 180.042 40.8359 183.914 39.9074 185.922C39.9588 185.825 41.6741 184.22 41.6784 183.974C48.0794 169.862 55.5624 156.306 64.7643 143.758C71.8829 133.992 80.032 124.879 88.2751 116.063C92.1678 111.973 96.1118 107.785 99.8078 103.593C101.681 101.448 103.654 99.3543 105.429 97.1591C107.508 94.6228 109.587 92.0864 111.91 89.7995C121.41 80.014 133.058 72.3251 145.222 66.2687C151.83 62.9515 158.729 60.0321 165.765 57.8043L166.064 57.7095C165.765 57.8043 165.371 57.6022 165.02 57.7949L165.072 57.697Z" fill="#CBC4B1"/>
<path d="M164.977 57.3984C153.852 60.7576 142.992 65.9926 133.112 71.9791C128.146 75.0213 123.274 78.3603 118.791 82.1477C114.308 85.9351 110.266 90.073 106.317 94.5076C90.0061 113.472 71.5909 130.734 57.8238 151.751C50.7349 162.65 44.7792 174.008 39.4606 185.817C39.2552 186.209 39.8923 186.66 40.1491 186.171C40.4058 185.681 41.0089 185.245 41.4623 184.857C42.0697 184.174 42.3821 183.341 42.7458 182.409C44.0851 179.617 45.4757 176.727 46.8149 173.935C49.7414 168.354 52.6679 162.773 55.9878 157.394C62.6277 146.637 70.2981 136.533 78.704 126.931C87.0072 117.524 95.8962 108.667 104.152 99.1125C108.054 94.5294 111.805 89.9937 116.194 85.9095C120.583 81.8252 125.109 78.4326 129.878 75.2894C140.973 67.9384 153.287 61.8346 166.059 57.954C166.508 57.8118 166.469 57.1707 165.875 57.114C165.477 57.1583 165.229 57.1552 164.831 57.1995C164.284 57.2912 164.369 58.0807 164.917 57.989C165.314 57.9447 165.563 57.9478 165.96 57.9035L165.777 57.0635C154.601 60.5206 143.591 65.803 133.561 71.8369C123.68 77.8234 114.77 85.0539 107.271 93.879C99.0107 103.68 90.1174 112.783 81.5148 122.284C73.1646 131.542 65.2548 141.151 58.4226 151.561C54.5465 157.524 50.9656 163.639 47.6797 169.905C46.0367 173.038 44.3424 176.269 42.8448 179.601C42.1774 180.874 41.8007 182.545 40.9365 183.717C40.4788 184.352 39.7773 184.737 39.3195 185.372L40.008 185.725C44.5521 175.631 49.541 165.641 55.5134 156.157C62.1019 145.497 69.768 135.639 78.0198 126.331C86.2717 117.022 95.1094 108.263 103.216 98.7558C107.117 94.1727 110.92 89.5391 115.356 85.6033C119.792 81.6675 124.369 78.1769 129.189 74.9358C134.562 71.3567 140.174 68.2733 146.029 65.4394C152.086 62.4601 158.334 59.8282 164.87 57.8405C165.417 57.7488 165.135 56.8583 164.635 57.0984L164.977 57.3984Z" fill="#CBC4B1"/>
</svg>
