<svg width="347" height="270" viewBox="0 0 347 270" fill="none" xmlns="http://www.w3.org/2000/svg">
<path d="M0.809324 258.955C0.809324 258.955 72.9951 243.965 157.16 190.835C241.324 137.705 262.072 96.8071 262.072 96.8071M75.3988 237.837C75.3988 237.837 84.7085 244.968 92.1373 247.844C99.5661 250.72 114.638 255.436 118.41 257.099C122.176 258.761 136.28 271.2 137.691 268.075C139.103 264.949 131.499 255.182 126.043 253.159C120.587 251.136 116.8 250.539 109.784 247.538C102.768 244.538 91.7317 237.025 89.7126 236.606C86.4137 235.92 84.8863 239.214 88.363 240.389C91.8396 241.564 98.5273 239.399 102.651 239.288C106.774 239.177 151.224 243.544 156.804 244.949C162.385 246.354 175.902 243.246 158.211 237.964C140.521 232.682 113.576 235.162 98.5076 232.701C83.4405 230.234 83.4405 230.234 83.4405 230.234M69.02 236.429C69.0892 236.231 98.6198 216.659 114.078 196.185C129.537 175.712 110.224 193.004 106.86 196.144C103.49 199.282 93.6757 207.253 84.741 214.768C79.6201 219.072 74.4816 222.18 70.6597 224.41M70.6597 224.41C69.1528 229.616 69.3859 232.571 66.2395 232.877C62.5845 233.23 62.9079 230.02 64.8604 228.086C65.6967 227.26 67.8153 226.077 70.6597 224.41ZM70.6597 224.41C71.756 220.631 72.8776 216.085 74.049 211.845C75.1151 207.982 76.2229 204.38 77.3812 201.838C81.5735 192.665 102.851 168.507 106.881 162.089C110.908 155.664 127.82 131.855 125.34 129.612C122.86 127.368 117.237 136.879 115.03 140.047C113.166 142.735 82.8411 183.428 69.5087 205.831M69.5087 205.831C67.0731 209.929 65.2032 213.407 64.1818 215.94C59.9653 226.37 58.1966 235.674 57.467 241.046M69.5087 205.831C70.6173 202.486 72.4076 197.857 75.3051 191.757C82.429 176.782 103.97 148.396 105.861 145.805C107.753 143.207 116.075 126.137 101.739 142.991C87.4025 159.852 75.2922 180.184 72.2227 185.738C69.1462 191.297 65.1209 197.716 61.7228 210.705C58.3258 223.688 60.3325 225.83 60.3325 225.83M72.0446 219.373C72.0446 219.373 109.445 182.35 114.568 171.443C119.695 160.544 124.033 151.615 109.841 168.719C95.6484 185.824 86.6298 197.605 83.6793 200.614C80.7288 203.623 74.0444 211.838 74.0444 211.838M95.5768 232.229C103.469 228.254 123.128 218.457 131.326 215.301C141.708 211.303 156.527 204.647 164.23 203.278C171.932 201.91 189.427 199.439 169.813 206.597C150.202 213.763 131.941 220.998 125.533 223.7C123.279 224.648 120.816 226.286 118.46 227.863M118.46 227.863C114.127 230.764 110.184 233.451 108.647 231.222C107.833 230.043 112.15 228.911 118.46 227.863ZM118.46 227.863C130.522 225.855 149.87 224.16 154.582 223.054C161.759 221.374 184.288 217.19 192.091 216.287C199.893 215.385 211.123 213.945 211.123 213.945C211.123 213.945 230.894 214.731 211.28 219.964C191.659 225.194 139.942 231.708 139.942 231.708L129.065 234.337L129.058 234.342M132.534 173.493C136.896 163.532 144.578 145.467 151.93 125.658C163.044 95.688 160.201 101.078 167.093 84.3394C173.977 67.6059 172.415 81.1931 170.941 85.5936C169.468 89.9879 165.947 103.588 163.006 112.384C161.416 117.127 156.299 130.103 150.894 143.687M132.534 173.493C132.286 174.4 132.022 175.361 131.743 176.396C126.334 196.447 124.39 206.101 124.39 206.101C124.39 206.101 132.854 201.912 147.77 180.254C162.681 158.588 166.273 149.506 168.346 145.02C170.425 140.537 175.043 122.455 164.347 141.595C153.654 160.729 144.473 173.809 140.141 178.836C138.73 180.473 136.806 182.703 134.949 185.038M132.534 173.493C137.124 156.803 137.093 160.282 144.781 135.912C152.889 110.222 141.904 130.801 140.1 134.912C138.291 139.022 130.639 160.526 126.56 177.859C123.228 192.034 120.413 207.493 119.501 212.664M150.894 143.687C150.893 143.693 150.892 143.699 150.892 143.699M150.894 143.687C154.144 139.807 158.904 133.616 162.837 126.52C169.51 114.483 173.997 101.456 184.402 83.7551C194.807 66.054 189.661 81.8838 188.044 86.0345C186.426 90.1853 170.551 125.354 160.029 140.46C153.928 149.218 148.552 154.962 145.107 158.239M150.894 143.687C150.894 143.687 150.886 143.698 150.892 143.699M150.892 143.699C148.95 148.586 146.968 153.554 145.107 158.239M145.107 158.239L145.106 158.245C142.533 164.717 140.179 170.656 138.439 175.154C136.957 178.98 135.837 182.264 134.949 185.038M134.949 185.038C131.958 194.461 131.726 197.974 129.564 196.513C127.578 195.174 131.112 189.88 134.949 185.038ZM150.825 194.776C155.525 194.312 163.847 193.456 172.455 192.403L172.46 192.405M172.46 192.405C179.586 191.538 186.897 190.536 192.504 189.506C192.504 189.506 192.504 189.506 192.51 189.507M172.46 192.405C180.353 194.349 197.461 198.032 218.724 199.491C248.211 201.51 263.844 189.854 266.279 188.442C268.712 187.036 273.762 182.33 264.383 185.254C254.999 188.176 248.891 192.301 228.324 192.582C213.442 192.783 199.236 190.681 192.51 189.507M192.51 189.507C194.127 189.209 195.598 188.905 196.886 188.607C210.821 185.375 255.416 169.628 262.924 166.305C270.433 162.982 287.599 149.515 260.564 159.591C233.522 169.664 219.497 174.307 214.772 176.441C213.668 176.933 210.832 177.621 207.151 178.426M207.151 178.426C201.354 179.699 193.47 181.267 187.037 182.842M207.151 178.426C218.815 171.159 241.722 157.051 256.887 148.736C277.976 137.177 269.022 135.044 252.78 142.93C240.74 148.77 205.438 172.403 187.037 182.842M187.037 182.842C180.029 184.553 174.73 186.274 175.652 187.643C176.25 188.525 180.615 186.488 187.037 182.842ZM174.176 179.688C175.001 174.047 176.718 163.778 179.241 155.917C182.913 144.488 196.198 96.9766 202.193 82.7329C208.189 68.4891 211.617 64.0684 206.688 83.6937C201.759 103.319 191.864 132.048 189.61 140.353C187.35 148.651 183.872 159.265 183.872 159.265C183.872 159.265 221.58 98.9876 223.679 95.3649C225.778 91.7422 243.404 72.3765 226.132 101.242C208.864 130.116 198.707 146.582 190.877 159.261C187.397 164.895 184.478 170.056 182.303 174.055M228.755 136.403C230.332 123.238 234.768 88.0076 239.134 71.032C244.557 49.9148 251.858 27.2663 252.726 24.8815C253.6 22.4979 263.922 5.21059 256.518 27.4056C249.115 49.6007 243.295 63.9977 239.102 88.1611C236.339 104.12 234.49 121.672 233.55 131.759M237.868 127.387C242.098 128.761 252.984 131.623 267.794 130.498C287.035 129.045 312.732 124.681 327.19 121.773C341.647 118.866 343.406 113.025 323.894 116.785C304.383 120.539 283.802 122.781 274.795 123.858C265.79 124.929 255.445 124.863 250.784 124.723C247.782 124.636 244.028 123.846 241.735 123.298C243.632 114.846 262.037 48.5103 270.587 31.2695C279.143 14.0298 276.867 25.3258 275.579 29.766C274.297 34.2012 268.78 51.8776 261.936 70.3335C255.091 88.7955 249.749 109.505 249.48 111.805C249.346 112.936 249.557 113.348 250.508 113.236C251.48 113.135 253.227 112.484 256.181 111.524C258.621 110.731 262.571 109.411 267.255 107.771M267.255 107.771C273.759 105.496 281.668 102.606 288.855 99.6522C301.211 94.5819 316.743 88.2646 334.582 75.3671C352.422 62.4695 345.506 72.5612 337.48 79.4136C329.455 86.2661 320.245 92.2278 303.495 99.7213C286.744 107.215 264.463 115.008 256.873 116.813C253.078 117.715 249.075 118.245 246.005 118.555M267.255 107.771C272.231 102.902 280.514 95.0348 286.846 90.2298C296.536 82.8762 311.569 73.2312 321.735 64.4783C331.894 55.7242 341.595 41.5188 342.867 40.077C344.133 38.634 349.441 25.8474 338.827 36.8558C328.207 47.8691 329.183 47.8652 317.312 59.2491C309.176 67.0572 290.179 81.5625 274.781 92.521M257.261 104.385C261.411 101.839 267.715 97.5557 274.781 92.521M274.781 92.521C279.904 86.7488 286.273 78.7564 291.579 69.6542C302.402 51.076 312.724 30.6386 321.145 11.1477C329.567 -8.34307 317.42 6.36399 315.524 9.94617C313.632 13.5296 307.186 29.0232 295.105 52.1512C288.376 65.0206 277.84 76.052 270.679 83.7463M270.679 83.7463C269.055 90.3501 267.676 97.1093 263.61 95.0098C261.411 93.8764 264.98 89.872 270.679 83.7463ZM270.679 83.7463C271.036 82.2959 271.403 80.854 271.813 79.5179C274.094 72.0753 278.157 59.6667 282.796 49.7327C287.435 39.7987 293.209 30.5324 301.406 16.0055C309.609 1.47978 301.15 9.52153 298.575 12.6175C295.997 15.706 290.198 22.1777 278.867 47.3919C267.536 72.6062 259.639 96.287 259.639 96.287" stroke="#CBC4B1" stroke-width="1.57676" stroke-miterlimit="10"/>
</svg>
