<svg width="172" height="264" viewBox="0 0 172 264" fill="none" xmlns="http://www.w3.org/2000/svg">
<path d="M123.228 161.759L122.95 161.29C124.452 160.08 125.38 158.259 126.198 156.61C127.473 153.948 128.235 150.957 128.715 148.027C129.865 141.95 130.266 135.682 130.387 129.476C130.392 128.415 130.443 127.433 130.447 126.373C132.412 126.475 134.332 125.969 135.974 124.993C137.616 124.018 136.678 124.575 137.069 124.343C142.013 120.559 145.594 114.836 147.134 108.526C148.706 102.092 148.284 95.1502 145.881 88.4336C143.308 81.0769 138.534 74.2877 132.317 69.5195C131.54 68.9235 130.638 68.2957 129.563 68.0883C126.477 67.7006 124.777 71.249 124.193 72.7592C119.509 84.6382 119.826 97.9893 120.195 109.828C120.304 113.571 120.393 118.172 122.7 121.879C124.14 124.302 126.457 125.887 129.184 126.383C129.433 126.446 129.636 126.432 129.839 126.417L129.932 126.573C130.011 129.911 129.887 133.264 129.685 136.662C129.269 142.727 128.711 149.088 126.767 154.897C126.53 155.566 126.293 156.236 125.978 156.952C125.837 157.247 125.663 157.668 125.444 158.01C125.444 158.01 125.365 158.056 125.334 158.181C125.177 158.274 125.192 158.477 125.036 158.57C124.408 159.471 123.655 160.341 122.593 160.867C118.444 153.706 114.374 146.499 110.272 139.416C106.31 132.568 102.393 125.798 98.5089 118.904C101.028 117.09 102.833 114.431 104.218 111.599C105.917 108.05 106.73 104.077 107.215 100.087C108.059 92.6044 107.703 84.883 106.628 77.3769C106.447 76.0037 106.266 74.6305 106.006 73.3037C106.006 73.3037 106.163 73.2108 106.241 73.1644C106.319 73.1179 106.475 73.025 106.554 72.9786L107.536 73.0297C107.553 72.7022 107.616 72.453 107.633 72.1255C109.434 70.527 111.505 67.6041 112.895 63.7113C114.521 59.1489 115.504 51.9013 110.986 43.5848C104.892 32.0799 100.79 24.9972 96.0732 22.9336C94.8122 22.4135 93.4243 22.3918 92.2369 22.8857C90.9713 23.426 89.828 24.5284 89.3079 25.7893C86.4873 32.4363 83.1042 46.5044 88.2357 57.1005C93.9858 68.9158 101.415 74.6561 105.459 73.6289C106.205 77.7337 106.717 81.9779 106.98 86.1587C107.492 93.7871 107.472 101.944 105.07 109.294C104.738 110.338 104.359 111.303 103.934 112.19C103.871 112.439 103.683 112.657 103.619 112.906C103.541 112.952 103.556 113.155 103.399 113.248C103.101 113.637 102.85 114.104 102.552 114.492C101.438 116 100.107 117.32 98.4648 118.295C95.0131 112.307 91.6542 106.475 88.249 100.565C85.7409 96.3436 83.3892 92.029 80.8811 87.8072C80.0915 86.4782 79.3484 85.2273 78.5588 83.8982C78.2801 83.4291 77.955 82.8819 77.6764 82.4128C77.8327 82.3199 77.9891 82.227 78.1455 82.1341C79.8654 81.1123 80.5465 78.698 81.2911 76.0344C81.5768 74.9128 81.9723 73.62 82.3678 72.3273C84.3896 66.4722 81.2474 57.4443 71.5549 41.3075C66.4459 32.7077 58.2569 29.4281 52.3043 28.3105C50.3567 27.8809 48.3117 28.3554 46.6846 29.5336C45.0575 30.7118 43.9731 32.6253 43.7927 34.6364C42.9468 42.6488 45.3003 53.7318 49.7522 62.8279C55.0377 73.8613 68.2002 81.0615 73.7154 82.3332C74.9153 82.5724 75.8976 82.6234 76.6623 82.4864C77.4519 83.8154 78.2415 85.1445 79.0311 86.4736C81.2605 90.2262 83.3652 93.9471 85.47 97.668C88.7677 103.219 91.8625 108.784 95.082 114.382C96.0109 115.945 96.9398 117.509 97.8223 118.994C99.0299 121.027 100.238 123.06 101.32 125.06C99.2584 125.862 96.8735 125.587 94.8013 125.126C91.6539 124.457 88.7116 123.243 85.8475 121.983C80.1975 119.416 74.7527 116.305 69.4959 112.976C68.5941 112.348 67.7387 111.798 66.7587 111.217C67.4329 110.393 67.8749 109.179 67.8648 107.916C67.84 106.449 67.4096 105.013 66.8081 103.466C66.1137 101.763 65.4975 100.014 64.4757 98.2939C61.8136 93.6348 57.5708 90.2321 53.7631 87.2056C51.3851 85.3393 48.7432 83.2069 45.8814 81.4165C43.9214 80.2539 41.8051 79.1842 39.8134 78.1462C38.3349 77.4379 36.9346 76.6832 35.2827 76.3953C34.9088 76.3001 31.434 75.6144 29.6823 76.7608C28.3997 77.6286 28.0313 79.8571 27.8533 81.3379L27.9462 81.4943C27.2922 84.8445 27.6351 88.4485 28.897 92.3529C29.589 94.5861 30.3616 96.2425 31.3223 97.6815C32.3905 99.4797 34.0989 101.109 36.3058 102.865C42.1958 107.617 49.2779 110.813 56.7113 112.109C59.4383 112.604 61.6057 112.692 63.5874 112.466C64.274 112.376 65.1169 112.192 65.8205 111.774L65.9769 111.681C68.978 113.706 72.0109 115.607 75.2001 117.414C80.8625 120.714 86.9305 123.984 93.2864 125.603C95.7789 126.237 98.7552 126.796 101.24 125.637C101.396 125.544 101.46 125.295 101.523 125.046C103.335 128.095 105.068 131.19 106.801 134.286C111.135 141.759 115.345 149.201 119.633 156.597C123.967 164.07 128.176 171.512 132.51 178.985C135.019 183.207 137.37 187.522 139.878 191.744C139.551 191.727 139.302 191.663 139.052 191.6C138.055 191.346 136.965 190.935 135.954 190.479C133.09 189.219 130.321 187.585 127.677 185.982C121.921 182.526 116.386 178.728 110.928 174.883C109.856 174.146 108.907 173.44 107.834 172.702C108.15 171.986 108.215 171.207 108.203 170.473C108.052 162.207 102.137 155.99 98.6103 152.902C95.1764 149.971 91.3347 147.599 87.664 145.338C85.704 144.175 83.8222 142.966 81.894 141.679C81.1632 141.161 80.3079 140.611 79.5772 140.093C76.8253 138.132 73.9488 136.139 70.7108 134.783C67.5975 133.46 61.4738 132.232 58.6965 136.103C57.3628 137.954 57.2437 140.246 57.2197 142.164C57.3547 154.142 64.0282 165.197 73.7862 169.871C76.7432 171.288 79.937 172.035 82.6788 172.733C88.9882 174.273 96.39 175.693 103.63 174.883C104.519 174.777 105.69 174.611 106.55 174.1C107.41 173.589 106.94 173.868 107.097 173.775C110.284 176.113 113.549 178.404 116.846 180.57C122.506 184.4 128.29 188.262 134.422 191.283C135.605 191.85 136.741 192.338 138.034 192.734C138.703 192.97 139.576 193.193 140.326 192.853C141.766 195.276 143.205 197.7 144.567 200.17C147.972 206.08 151.331 211.912 154.736 217.822C157.244 222.043 159.596 226.358 162.104 230.58C162.894 231.909 163.637 233.16 164.427 234.489C164.845 235.192 165.184 235.942 165.634 236.521L165.773 236.756C165.681 236.6 166.448 235.932 166.355 235.776L163.893 231.632C161.82 227.787 159.637 224.112 157.532 220.392C154.235 214.841 151.14 209.275 147.92 203.678C147.688 203.287 147.502 202.974 147.27 202.583C148.45 200.296 149.583 197.93 150.513 195.58C152.799 189.991 154.586 184.275 155.75 178.401C156.39 174.848 156.78 171.231 156.718 167.566C156.718 167.566 156.796 167.519 156.874 167.473C157.03 167.38 157.109 167.334 157.233 167.365C157.952 167.15 158.623 166.857 159.249 166.485C164.565 163.327 167.923 155.091 168.955 150.776C170.527 144.342 170.042 137.649 167.509 131.961C166.475 129.508 165.003 127.21 163.578 124.989C162.138 122.565 160.449 120.078 158.619 117.887C158.044 117.276 157.377 116.509 156.505 116.287C156.505 116.287 156.505 116.287 156.426 116.333C155.351 116.126 154.117 116.542 152.818 117.737C147.714 122.144 145.441 128.465 144.548 133.015C143.337 138.812 143.358 144.723 143.443 150.384C143.524 153.192 143.449 156.092 144.42 158.794C145.158 161.106 146.615 163.202 148.402 164.785C150.017 166.258 151.667 167.076 153.287 167.489C154.284 167.742 155.266 167.793 156.234 167.642C156.234 167.642 156.156 167.688 156.202 167.766C156.392 174.317 155.162 180.971 153.294 187.264C151.886 192.014 150.135 196.545 148.01 200.98C147.805 201.525 147.475 202.039 147.27 202.583C145.134 198.987 143.122 195.423 141.063 191.78L136.343 183.478C132.009 176.005 127.799 168.563 123.512 161.167L123.228 161.759ZM133.586 71.8332C138.681 76.3157 142.617 82.228 144.835 88.6318C147.146 95.192 147.553 101.931 145.998 108.038C144.489 114.223 141.05 119.65 136.34 123.295C134.838 124.505 132.886 125.136 131.014 125.19C135.391 119.205 138.374 107.49 138.537 95.1234C138.659 85.0024 135.392 75.9427 133.586 71.8332ZM127.461 124.551C125.904 123.889 124.553 122.682 123.546 121.165C121.502 117.725 121.318 113.498 121.163 109.676C120.886 97.994 120.492 84.6892 125.112 73.0595C125.632 71.7985 127.049 68.8415 129.309 69.0853C130.01 69.1975 130.648 69.559 131.254 70.0451C130.795 71.5871 129.035 78.2387 126.927 89.6455C124.801 101.38 126.856 120.15 127.336 124.519L127.461 124.551ZM128.629 124.914C128.298 122.043 125.906 101.993 128.08 89.8064C129.822 80.098 131.377 73.9913 132.044 71.3742C133.635 74.7653 137.43 84.3576 137.274 95.1334C137.111 107.5 133.954 119.635 129.501 125.137C129.501 125.137 129.252 125.073 129.174 125.12C128.925 125.056 128.722 125.071 128.551 124.961L128.629 124.914ZM93.0753 23.7627C93.9183 23.5792 94.7759 23.5986 95.5384 23.9918C99.9591 25.9137 103.89 32.8864 109.97 44.1885C114.224 52.2388 113.336 59.1126 111.773 63.4257C110.73 66.4779 109.113 68.9193 107.719 70.4884C108.639 48.8926 95.6469 27.7352 93.0753 23.7627ZM89.0957 56.5896C84.5509 47.3372 87.0695 34.8406 89.4698 28.0202C90.8718 35.5434 96.2614 62.0637 102.456 72.1342C98.8903 70.7618 93.5475 65.6856 89.0492 56.5114L89.0957 56.5896ZM90.3049 26.0432C90.6982 25.2807 91.2624 24.6282 91.966 24.2102C94.1196 27.479 107.95 49.5134 106.497 71.6372C106.028 71.9158 105.605 72.2727 105.324 72.3339C105.012 72.5196 104.606 72.5491 104.076 72.5467C97.1632 62.6914 90.7454 28.7431 90.3049 26.0432ZM70.5386 41.9113C79.9671 57.7819 83.1263 66.4823 81.2462 72.0418C80.9459 72.9606 80.6455 73.8794 80.4234 74.7518C70.7128 44.8752 57.6323 33.1839 52.6883 29.6689C58.3599 30.8477 65.8475 34.0151 70.585 41.9895L70.5386 41.9113ZM49.1794 29.6381C49.4921 29.4523 49.8978 29.4229 50.3034 29.3934C52.0458 30.368 68.6568 40.7022 79.8692 76.6676C79.3467 78.4588 78.9195 79.8761 78.1207 80.668L49.0548 29.6063L49.1794 29.6381ZM50.705 62.4733C46.346 53.5337 44.0855 42.6069 44.8679 34.8438C44.9314 34.5945 44.9484 34.2671 45.0119 34.0178C45.4795 37.6536 47.2237 45.3966 53.6649 56.0608C60.8493 67.976 70.3814 77.9675 73.7665 81.3509C68.3759 80.1109 55.8366 73.0695 50.705 62.4733ZM54.6813 55.4571C46.5362 42.103 46.0917 33.1648 46.0035 31.948C46.4114 31.3883 46.8657 30.9068 47.3665 30.5035C47.5229 30.4106 47.7574 30.2713 47.9138 30.1784C48.0702 30.0855 48.0702 30.0855 48.1483 30.039L77.3535 81.3353C76.9626 81.5676 76.3543 81.6117 75.7459 81.6558C74.255 80.2145 63.0121 69.1239 54.8059 55.4888L54.6813 55.4571ZM63.2305 112.044C61.3735 112.301 59.2843 112.167 56.6819 111.703C49.3731 110.439 42.5403 107.306 36.7432 102.711C34.5827 101.033 33.0771 99.3891 32.0236 97.7938C31.1875 96.3865 30.4614 94.8082 29.7376 92.6997C28.5687 88.9516 28.194 85.4722 28.7064 82.4177L28.6135 82.2614C28.8673 81.2643 29.1235 79.7371 29.6731 78.8817C31.3258 82.5539 38.6357 97.885 44.9823 101.624C50.9404 105.066 61.6003 110.368 64.6037 111.863C64.2128 112.095 63.6044 112.139 63.1988 112.168L63.2305 112.044ZM45.5954 100.52C40.2751 97.4399 33.9507 85.0138 31.4155 79.8562C34.2433 82.3015 39.9157 86.8645 46.2431 91.4616C53.2547 96.4983 60.7929 105.982 63.8165 110.003C59.7549 107.974 50.8692 103.522 45.5489 100.442L45.5954 100.52ZM46.9173 90.638C39.4706 85.2251 32.9598 79.785 30.9557 78.014C32.0332 77.6912 33.6704 77.7763 34.9948 78.0471C36.4439 78.3498 37.9224 79.058 39.2762 79.7345C41.2215 80.6943 43.3378 81.7641 45.2978 82.9267C48.1131 84.6389 50.7551 86.7714 53.0866 88.5595C56.7232 91.4761 60.9196 94.8006 63.4888 99.3033C64.4177 100.867 65.0804 102.695 65.7283 104.319C66.2833 105.788 66.699 107.022 66.7091 108.285C66.7362 109.221 66.4359 110.139 65.8716 110.792C64.0579 108.273 55.1729 96.5223 46.9955 90.5915L46.9173 90.638ZM59.4861 137.433C59.894 136.873 60.3167 136.516 60.8639 136.191C63.6002 134.565 67.791 135.566 70.1419 136.496C73.2552 137.82 76.0853 139.735 78.8372 141.697C79.6143 142.293 80.4233 142.764 81.2005 143.36C83.1287 144.647 85.0886 145.81 86.9704 147.019C90.6411 149.281 94.4829 151.652 97.7921 154.552C101.18 157.405 106.799 163.481 106.998 171.295C106.996 171.825 106.947 172.277 106.82 172.776C105.361 171.21 100.224 165.589 90.1761 155.798C79.2901 145.129 62.2527 139.597 58.7949 138.584C58.9365 138.288 59.1099 137.868 59.3297 137.525L59.4861 137.433ZM103.429 174.367C96.2676 175.131 89.0687 173.696 82.8057 172.234C80.1104 171.614 76.9483 170.743 74.0842 169.483C64.6683 165.028 58.3052 154.317 58.1997 142.745C58.1997 142.745 58.185 142.542 58.2167 142.418C72.0088 166.167 99.7563 172.636 105.631 173.8C105.084 174.125 104.319 174.262 103.429 174.367ZM58.397 140.407C58.4141 140.079 58.4776 139.83 58.5728 139.456C61.7813 140.406 78.7723 145.86 89.4872 156.418C98.1832 165.003 103.26 170.343 105.34 172.598C98.39 171.226 71.2998 164.262 58.397 140.407ZM157.646 119.099C157.646 119.099 157.693 119.177 157.739 119.255C159.57 121.447 161.134 123.902 162.652 126.279C163.953 128.468 165.456 130.643 166.49 133.095C168.884 138.549 169.308 144.96 167.8 151.145C166.467 156.38 162.672 164.769 157.314 166.789C158.339 164.064 160.473 157.508 161.939 146.8C163.517 135.391 159.404 123.661 157.568 119.145L157.646 119.099ZM148.917 164.584C147.224 163.158 145.938 161.171 145.214 159.063C144.336 156.517 144.333 153.663 144.298 150.934C144.214 145.272 144.193 139.361 145.418 133.768C146.326 129.421 148.489 123.27 153.405 119.08C154.25 118.367 154.875 117.995 155.562 117.905C154.756 120.287 151.912 128.852 149.559 139.135C147.364 148.795 150.503 162.268 152.324 166.58C151.234 166.17 150.161 165.432 149.074 164.491L148.917 164.584ZM150.602 139.467C152.733 130.057 155.294 122.083 156.415 118.984C158.004 122.906 162.506 134.934 160.864 146.592C159.237 158.453 156.759 165.32 155.955 167.173C155.19 167.31 154.333 167.29 153.585 167.1C152.766 165.365 147.963 150.872 150.602 139.467Z" fill="#CBC4B1"/>
<path d="M123.539 161.568L123.26 161.099C123.307 161.177 123.197 161.348 123.211 161.551C125.325 159.766 126.585 156.902 127.5 154.349C128.511 151.421 129.102 148.32 129.536 145.312C130.468 139.047 130.823 132.701 130.773 126.384L130.382 126.617C136.354 126.877 140.851 121.984 143.694 117.333C146.537 112.682 148.309 106.764 148.303 101.056C148.434 88.8137 142.171 76.6687 132.535 69.172C122.898 61.6754 120.297 85.9618 119.932 91.0444C119.501 96.9064 119.6 102.771 119.699 108.635C119.847 114.047 119.819 120.41 124.263 124.329C125.35 125.269 126.579 125.914 127.872 126.309C128.292 126.483 129.353 126.487 129.539 126.8C129.632 126.956 129.519 127.658 129.534 127.861C129.578 128.469 129.544 129.124 129.542 129.654C129.526 133.366 129.26 137.014 128.917 140.709C128.573 144.403 128.073 148.191 127.153 151.805C126.677 153.674 126.123 155.59 125.273 157.364C124.989 157.956 124.66 158.469 124.283 158.904C123.719 159.557 122.891 159.943 122.405 160.549L122.981 160.629C114.87 146.62 106.884 132.643 98.8513 118.588L98.7243 119.086C105.076 114.467 106.985 105.929 107.672 98.5392C108.489 90.1212 107.824 81.5251 106.285 73.2372L106.112 73.6576C106.659 73.3325 106.908 73.3959 107.485 73.4764C107.688 73.4617 107.798 73.2906 107.83 73.166C107.912 72.0591 108.772 71.5481 109.447 70.7245C110.121 69.9009 110.639 69.1701 111.142 68.2366C112.194 66.4477 112.998 64.5953 113.506 62.6013C114.455 59.3928 114.611 55.9157 114.204 52.5609C113.539 47.8793 111.419 43.9556 109.207 39.8755C107.18 36.1082 105.107 32.2626 102.611 28.7739C100.844 26.3333 98.8277 23.8292 96.0882 22.6008L96.1323 23.2092C96.445 23.0235 96.2593 22.7107 96.0882 22.6008C93.8619 21.7022 91.3013 22.3772 89.7648 24.242C88.6827 25.6253 88.0968 27.6658 87.5596 29.2542C86.1215 33.599 85.2747 38.2272 85.161 42.843C85.0303 47.7862 85.6791 52.7952 87.8427 57.3274C90.0992 62.0159 93.0888 66.692 96.8942 70.2487C99.0376 72.2543 102.193 74.7165 105.362 73.9974L104.895 73.7458C106.312 81.4718 107.025 89.6157 106.57 97.3959C106.164 104.724 104.751 113.919 98.0424 118.116L98.5409 118.243C91.6375 106.267 84.8122 94.2444 77.9088 82.2682L77.7819 82.7666C80.7821 81.4073 81.2527 77.2141 82.029 74.4259C82.5515 72.6347 83.1985 70.8752 83.2225 68.9571C83.3339 64.8715 81.8229 60.9037 80.2483 57.1851C79.0601 54.2947 77.5908 51.4655 76.0898 48.761C74.3419 45.4627 72.5011 42.0081 70.2841 38.9885C66.6714 34.1537 61.6956 30.7634 55.9798 28.9762C53.4726 28.1387 50.6844 27.3623 48.1068 28.3648C45.2946 29.5066 43.6459 32.0727 43.2898 35.0343C42.6367 41.7687 44.0874 48.8398 46.1489 55.3366C47.2567 58.8036 48.6137 62.3341 50.5497 65.4149C52.4857 68.4956 54.6269 71.0314 57.2053 73.4132C61.3993 77.268 66.4069 80.5337 71.7635 82.4285C72.8534 82.8387 73.975 83.1243 75.1601 83.1607C75.4094 83.2242 75.9249 83.0236 76.2206 83.1653C76.6409 83.3387 76.8561 84.057 76.9637 84.4162C77.5211 85.3544 78.0784 86.2925 78.6358 87.2307C80.8187 90.9051 82.877 94.5479 84.9818 98.2688C89.2231 105.586 93.3862 112.95 97.6275 120.267C98.6958 122.065 99.764 123.863 100.879 125.739L101.084 125.194C98.2252 126.258 94.9849 125.433 92.1503 124.579C89.0664 123.661 86.0312 122.291 83.1207 120.952C77.456 118.183 71.9182 114.915 66.6467 111.383L66.7226 111.867C68.1345 109.97 68.1289 107.646 67.4051 105.538C66.5126 102.789 65.3708 99.9768 63.8064 97.5215C60.5993 92.6573 55.7334 89.0959 51.1949 85.5515C48.8634 83.7635 46.3755 82.0683 43.8241 80.6224C41.2728 79.1765 38.5503 77.6207 35.7621 76.8444C34.142 76.4318 32.3337 76.2367 30.726 76.5572C28.9619 76.9706 28.0679 78.1364 27.6701 79.9593C26.386 84.7416 27.0812 89.8288 28.761 94.4368C30.5949 99.4821 34.2757 103.007 38.6918 105.99C43.1079 108.972 48.1201 111.177 53.2762 112.556C55.8933 113.223 58.6204 113.718 61.2716 113.73C62.4103 113.688 63.6736 113.678 64.7511 113.355C65.2666 113.155 65.5328 112.891 66.0313 113.018C66.6544 113.176 67.571 114.007 68.1306 114.415C73.8225 118.12 79.7806 121.561 85.9291 124.255C88.7931 125.515 91.8453 126.558 94.9463 127.148C96.7228 127.468 100.931 128.141 101.751 125.962L101.143 126.006C111.126 143.345 121.063 160.605 131 177.866C133.927 182.792 136.696 187.81 139.544 192.782L139.874 192.268C136.991 191.866 134.175 190.154 131.67 188.786C128.994 187.308 126.304 185.628 123.737 183.979C118.356 180.618 113.116 176.962 107.955 173.259L108.187 173.65C109.161 171.907 108.425 169.066 108.044 167.177C107.476 164.975 106.503 162.803 105.342 160.849C103.113 157.096 99.9597 154.104 96.5088 151.5C92.0633 148.112 87.1463 145.533 82.5127 142.362C78.143 139.458 74.0102 135.884 68.8541 134.505C65.0688 133.475 60.1721 133.422 58.0032 137.249C56.9505 139.038 56.8631 141.206 56.8856 143.202C56.9375 145.604 57.2386 148.069 57.8208 150.473C60.0735 159.607 66.2601 167.884 75.1186 171.4C80.2407 173.434 85.8659 174.535 91.2271 175.369C94.1105 175.772 96.9475 176.096 99.8797 176.046C102.282 175.994 105.307 176.101 107.31 174.488L106.904 174.517C112.501 178.597 118.207 182.505 123.977 186.164C126.839 187.954 129.701 189.744 132.704 191.239C134.058 191.916 135.288 192.56 136.751 193.066C137.841 193.476 139.227 194.028 140.461 193.612L140.04 193.439C148.445 208.12 156.974 222.832 165.378 237.513C165.564 237.826 166.001 237.672 166.018 237.344C166.035 237.017 166.629 236.77 166.553 236.286C166.524 235.881 165.996 235.348 165.81 235.035L164.788 233.315C163.441 231.048 162.126 228.656 160.857 226.343C158.117 221.73 155.533 217.024 152.793 212.412C151.399 210.066 150.006 207.721 148.691 205.329C148.366 204.782 148.041 204.235 147.762 203.766C147.39 203.14 147.688 202.752 147.972 202.16C148.616 200.931 149.137 199.67 149.703 198.487C151.657 193.942 153.361 189.333 154.645 184.551C156.01 179.192 156.876 173.706 156.884 168.201L156.665 168.543C156.789 168.575 156.992 168.56 157.055 168.311L158.133 167.988C158.602 167.709 159.118 167.509 159.54 167.152C160.322 166.687 160.933 166.113 161.622 165.492C162.953 164.172 164.145 162.618 165.088 161C166.91 158.014 168.219 154.698 169.076 151.333C170.091 147.345 170.312 143.088 169.644 138.937C168.915 134.504 166.998 130.566 164.644 126.782C163.39 124.671 162.012 122.528 160.523 120.557C159.531 119.242 158.323 117.209 156.642 116.516C153.543 115.395 150.517 119.203 148.995 121.27C144.163 127.737 142.848 136.028 142.689 143.95C142.585 146.445 142.651 149.05 142.671 151.576C142.692 154.103 142.775 156.38 143.435 158.738C144.096 161.096 145.35 163.207 147.105 164.914C147.897 165.713 148.845 166.419 149.747 167.047C150.26 167.376 150.851 167.66 151.396 167.865C151.817 168.038 152.393 168.119 152.735 168.339C153.077 168.558 153.141 168.309 153.204 168.06L152.814 168.292C153.811 168.546 154.871 168.551 155.839 168.399L155.56 167.93C155.355 168.475 155.445 169.161 155.443 169.692C155.455 170.425 155.39 171.204 155.402 171.937C155.349 173.45 155.171 174.93 154.993 176.411C154.637 179.373 154.031 182.271 153.255 185.059C151.622 191.212 149.366 197.207 146.472 202.84L147.08 202.796C139.108 189.021 131.168 175.122 123.275 161.301C123.043 160.91 122.495 161.236 122.649 161.673C130.621 175.447 138.561 189.346 146.455 203.167C146.594 203.402 146.921 203.419 147.063 203.123C149.879 197.537 152.103 191.667 153.783 185.592C154.513 182.725 155.118 179.827 155.599 176.897C155.823 175.495 155.97 174.139 156.069 172.704C156.103 172.049 156.137 171.394 156.125 170.661C156.113 169.928 155.946 168.758 156.183 168.088C156.293 167.917 156.029 167.651 155.904 167.619C154.937 167.771 153.955 167.72 153.004 167.544C152.801 167.559 152.598 167.574 152.613 167.777C152.769 167.684 152.926 167.591 153.082 167.498C152.569 167.168 151.743 167.024 151.073 166.787C150.062 166.331 149.16 165.703 148.414 164.982C146.628 163.399 145.217 161.381 144.447 159.195C143.107 155.337 143.407 151.034 143.362 147.041C143.379 139.415 143.912 131.588 147.576 124.758C148.472 123.062 149.618 121.429 150.903 120.031C152.188 118.633 153.881 116.676 156.063 116.966C156.686 117.124 157.199 117.454 157.556 117.877C158.348 118.676 159.03 119.646 159.79 120.569C161.061 122.352 162.254 124.182 163.447 126.012C165.708 129.64 167.72 133.205 168.637 137.419C169.493 141.353 169.507 145.471 168.772 149.397C168.101 153.075 166.729 156.64 164.843 159.876C163.869 161.619 162.645 163.298 161.235 164.664C160.515 165.409 159.623 166.045 158.685 166.602C158.059 166.974 157.419 167.143 156.747 167.436C156.591 167.529 156.466 167.497 156.356 167.668L156.747 167.436C156.669 167.482 156.591 167.529 156.264 167.512C156.107 167.605 156.029 167.651 156.044 167.854C156.093 178.085 153.148 188.084 149.178 197.424C148.689 198.561 148.201 199.697 147.666 200.755C147.351 201.471 146.52 202.388 146.657 203.152C146.687 203.558 147.308 204.247 147.54 204.638C147.865 205.185 148.19 205.732 148.515 206.28C149.212 207.452 149.955 208.703 150.698 209.954C153.392 214.489 155.976 219.194 158.67 223.729C160.156 226.23 161.689 228.81 163.097 231.358C163.84 232.609 164.583 233.86 165.373 235.189C165.512 235.424 165.698 235.737 165.837 235.971C165.945 236.33 165.82 236.299 165.647 236.719C165.537 236.89 165.505 237.015 165.473 237.139L166.113 236.97C157.709 222.29 149.18 207.577 140.776 192.896C140.683 192.74 140.558 192.708 140.355 192.723C138.841 193.2 136.849 192.162 135.541 191.563C134.109 190.933 132.834 190.21 131.48 189.534C128.679 188.024 126.035 186.422 123.376 184.617C117.902 181.1 112.662 177.443 107.376 173.708C107.283 173.552 107.048 173.691 106.97 173.738C105.123 175.258 101.927 175.041 99.6033 175.047C97.0767 175.067 94.6136 174.838 92.1823 174.484C87.8181 173.904 83.549 172.95 79.2188 171.714C74.764 170.447 70.656 168.339 67.2856 165.159C64.0864 162.088 61.6077 158.272 59.9256 154.194C58.2434 150.117 57.4213 145.528 57.6743 141.147C57.8252 138.73 58.5845 136.269 60.8982 135C62.7745 133.886 65.2693 133.99 67.3415 134.452C71.8915 135.345 75.7627 138.122 79.541 140.743C83.7543 143.74 88.2192 146.27 92.5425 149.096C96.5236 151.703 100.285 154.651 103.247 158.391C104.736 160.363 106.036 162.552 106.899 164.895C107.347 166.004 107.684 167.284 107.897 168.533C108.11 169.782 108.46 171.795 107.691 172.992C107.534 173.085 107.674 173.32 107.845 173.43C113.099 177.289 118.464 180.978 124.016 184.448C126.707 186.129 129.398 187.809 132.198 189.319C134.578 190.655 137.301 192.21 140.06 192.581C140.309 192.645 140.529 192.302 140.389 192.068C130.359 174.651 120.376 157.312 110.424 139.848C107.544 135.001 104.821 130.061 102.066 125.246C101.927 125.011 101.521 125.04 101.458 125.29C101.157 126.208 99.1611 126.231 98.5527 126.275C97.8196 126.288 97.0401 126.222 96.3388 126.11C94.9362 125.885 93.4871 125.582 92.148 125.109C89.0641 124.191 86.0753 122.899 83.1184 121.482C77.4072 118.635 71.7448 115.335 66.4269 111.725C66.3804 111.647 66.1776 111.661 66.0995 111.708C64.7387 112.622 62.6177 112.613 61.027 112.606C58.9842 112.55 57.0831 112.199 55.0573 111.816C51.4114 111.02 47.8925 109.726 44.5469 108.011C41.2013 106.297 37.9045 104.13 35.1085 101.56C32.3125 98.9906 30.3618 95.707 29.3957 91.9442C28.4125 88.5089 28.0378 85.0295 28.599 81.5229C28.8234 80.1203 29.1601 78.0164 30.3645 77.1951C31.569 76.3738 33.3307 76.4906 34.6087 76.6833C38.0224 77.0881 41.351 79.13 44.3691 80.8275C47.9786 82.8083 51.2584 85.3023 54.5065 87.9209C58.0967 90.7593 61.7016 93.8006 64.2731 97.7731C65.5272 99.8839 66.5002 102.056 67.3169 104.321C68.1336 106.586 68.5911 108.958 67.1011 110.901C66.9447 110.994 67.0059 111.275 67.1769 111.385C72.7906 115.137 78.6705 118.625 84.8337 121.521C87.666 122.906 90.6083 124.12 93.6458 124.959C96.3094 125.704 99.3321 126.341 102.113 125.324C102.269 125.231 102.503 125.091 102.318 124.779C94.1455 110.489 85.8952 96.2454 77.7695 82.0336C77.723 81.9554 77.6301 81.799 77.4738 81.8919C73.7134 82.3278 69.5441 79.9392 66.4796 78.1635C62.1393 75.6649 58.1458 72.3256 54.9341 68.5219C51.2726 64.1392 49.1748 58.8276 47.4826 53.4865C45.7904 48.1455 44.8924 43.073 44.869 37.6924C44.8806 35.0412 44.9386 32.4682 46.7878 30.4177C48.6687 28.2425 51.4151 27.8802 54.1104 28.5002C58.2548 29.4228 62.3017 31.2495 65.7061 33.7752C70.1517 37.1632 72.7821 41.9469 75.4125 46.7306C77.6566 50.6861 79.7908 54.8126 81.4095 59.1396C82.566 62.1546 83.5809 65.4652 83.4571 68.8177C83.4037 70.3303 82.93 71.6695 82.471 73.2114C81.6482 75.9215 81.2388 80.3956 78.3632 81.7867C78.2068 81.8795 78.1434 82.1288 78.2363 82.2852C85.1397 94.2614 91.9649 106.284 98.8683 118.26C98.9612 118.417 99.2104 118.48 99.3668 118.387C106.076 114.19 107.61 105.557 108.188 98.3388C108.77 90.0601 108.183 81.4176 106.613 73.2542C106.52 73.0979 106.427 72.9415 106.146 73.0027C103.539 73.5995 100.741 71.5599 98.8293 69.9453C95.4737 66.9675 92.7922 63.1661 90.6727 59.2424C88.2746 54.8496 86.9222 50.2586 86.7255 45.2983C86.5729 40.9465 87.1534 36.5823 88.2323 32.345C88.7083 30.4756 89.2625 28.5598 89.9878 26.7539C90.5079 25.4929 91.0745 24.3101 92.2008 23.5353C93.6398 22.5746 95.2622 22.4569 96.8189 23.1187L96.7747 22.5103C96.5402 22.6496 96.5232 22.9771 96.8189 23.1187C99.2626 24.2055 101.047 26.3186 102.582 28.3683C104.845 31.4661 106.764 34.8743 108.683 38.2825C110.942 42.4407 113.357 46.5061 114.351 51.2047C115.053 54.7011 114.944 58.2564 114.055 61.7459C113.438 63.911 112.571 66.0127 111.408 67.9727C110.748 68.9991 110.089 70.0255 109.29 70.8174C108.946 71.1278 108.523 71.4847 108.303 71.8268C108.083 72.169 108.159 72.6528 108.142 72.9802L108.533 72.748C107.583 72.5723 107.583 72.5723 106.754 72.9585C106.598 73.0514 106.566 73.1761 106.581 73.3789C107.966 81.2295 108.633 89.2952 108.068 97.2465C107.552 104.746 105.797 113.721 99.3351 118.512C99.1787 118.605 99.1152 118.854 99.2081 119.011C107.319 133.019 115.306 146.997 123.338 161.052C123.431 161.208 123.68 161.272 123.915 161.133C124.213 160.744 124.931 160.529 125.308 160.094C125.762 159.612 126.138 159.177 126.546 158.618C127.174 157.716 127.538 156.548 127.916 155.582C128.895 152.779 129.532 149.757 130.091 146.78C131.006 140.842 131.344 134.824 131.401 128.867C131.435 128.212 131.77 126.638 131.163 126.152C130.821 125.932 130.338 126.008 129.964 125.913C129.138 125.769 128.422 125.454 127.659 125.061C124.905 123.63 123.279 120.893 122.497 117.974C121.714 115.054 121.679 112.324 121.63 109.392C121.517 106.709 121.482 103.98 121.493 101.329C121.455 95.7453 121.698 90.1008 122.518 84.5368C122.935 81.8562 123.555 79.1608 124.299 76.4972C125.027 74.1611 125.74 71.6221 127.401 69.7891C128.42 68.655 129.764 68.0682 131.305 68.5272C132.847 68.9862 134.043 70.2859 135.177 71.3045C137.569 73.3736 139.664 75.8312 141.524 78.4281C144.981 83.3558 147.389 89.0119 148.314 95.0202C149.3 101.31 148.71 107.795 146.112 113.569C144.774 116.48 143.015 119.217 140.775 121.5C138.237 124.171 135.359 126.092 131.601 125.998C131.398 126.013 131.288 126.184 131.256 126.309C131.292 132.422 131 138.519 130.054 144.581C129.651 147.465 129.124 150.316 128.223 153.073C127.322 155.829 126.092 159.099 123.744 161.023C123.588 161.116 123.602 161.318 123.695 161.475L123.974 161.944C124.206 162.335 124.753 162.01 124.521 161.619L123.539 161.568Z" fill="#CBC4B1"/>
<path d="M133.318 72.0905C145.404 82.9976 151.293 102.346 141.904 116.809C139.485 120.573 135.787 124.674 131.03 124.856L131.355 125.403C135.434 119.806 137.103 112.468 138.038 105.673C139.228 97.3497 139.123 89.1617 137.022 80.9961C136.178 77.7953 135.178 74.6874 133.819 71.6871C133.587 71.2962 133.039 71.6213 133.194 72.0587C135.802 78.2303 137.551 84.9128 137.958 91.6519C138.454 99.6078 137.388 107.962 135.047 115.594C133.987 118.974 132.678 122.29 130.56 125.134C130.372 125.352 130.636 125.618 130.886 125.682C135.035 125.544 138.166 122.626 140.675 119.549C143.184 116.472 145.072 112.706 146.087 108.718C148.15 100.617 146.862 91.8623 143.183 84.4227C140.88 79.6561 137.546 75.2904 133.663 71.78C133.352 71.4356 132.82 71.9635 133.208 72.2615L133.318 72.0905Z" fill="#CBC4B1"/>
<path d="M127.6 124.25C123.211 122.203 122.047 117.395 121.77 113.011C121.49 109.158 121.538 105.321 121.508 101.531C121.433 93.749 121.841 85.8906 123.902 78.3201C124.409 76.3261 124.995 74.2857 125.923 72.465C126.348 71.5779 126.82 70.769 127.587 70.1017C128.776 69.0776 130.069 69.4732 131.235 70.3672L131.003 69.9763C129.118 76.5962 127.668 83.5923 126.531 90.4026C125.248 98.569 125.663 107.102 126.22 115.338C126.441 118.381 126.708 121.501 127.131 124.528C127.161 124.934 127.894 124.921 127.864 124.516C127.098 117.884 126.612 111.192 126.501 104.594C126.394 100.321 126.569 95.9859 127.118 91.7463C127.716 87.0547 128.765 82.4118 129.861 77.8471C130.449 75.2764 131.116 72.6592 131.829 70.1202C131.86 69.9956 131.767 69.8392 131.596 69.7293C130.26 68.7254 128.764 68.3446 127.371 69.3834C126.135 70.3294 125.349 71.8543 124.843 73.3181C123.188 77.4748 122.28 81.822 121.668 86.3109C120.539 94.9147 120.609 103.758 121.117 112.447C121.346 117.282 122.554 122.699 127.363 124.919C127.784 125.092 128.067 124.501 127.725 124.281L127.6 124.25Z" fill="#CBC4B1"/>
<path d="M128.956 124.925C128.216 119.229 127.836 113.426 127.627 107.733C127.489 103.584 127.508 99.342 127.853 95.1171C128.216 90.5648 129.156 86.0929 130.096 81.6211C130.828 78.2244 131.56 74.8278 132.495 71.4164L131.887 71.4606C134.652 77.5393 136.401 84.2218 136.886 90.9144C137.521 99.1049 136.36 107.833 133.831 115.682C133.23 117.52 132.505 119.326 131.733 121.054C131.34 121.816 130.978 122.454 130.539 123.138C130.319 123.48 130.177 123.776 129.911 124.04C129.503 124.6 129.425 124.646 128.677 124.456C128.303 124.361 128.066 125.03 128.518 125.079C129.266 125.269 129.686 125.443 130.172 124.837C130.58 124.277 130.988 123.717 131.35 123.079C132.229 121.711 132.891 120.154 133.474 118.644C134.957 114.908 135.972 110.919 136.629 107.039C138.102 98.1248 138.142 89.1108 135.794 80.3515C134.95 77.1507 133.825 74.0111 132.466 71.0109C132.326 70.7763 131.921 70.8057 131.857 71.055C131.081 73.8432 130.476 76.7413 129.824 79.5613C128.884 84.0331 127.82 88.4732 127.332 92.9938C126.487 101.006 126.872 109.133 127.617 117.152C127.84 119.664 128.063 122.176 128.364 124.642C128.394 125.047 129.127 125.035 129.097 124.629L128.956 124.925Z" fill="#CBC4B1"/>
<path d="M93.1799 24.1163C93.9447 23.9793 95.0052 23.9839 95.7212 24.2989C95.4255 24.1573 95.8605 24.5335 95.9851 24.5652C96.2344 24.6287 96.4519 24.8167 96.6694 25.0048C97.6959 25.6643 98.5342 26.5414 99.3725 27.4184C101.592 29.9078 103.357 32.8785 104.997 35.8177C106.158 37.7722 107.195 39.6949 108.231 41.6177C109.361 43.6968 110.49 45.7759 111.307 48.0409C112.539 51.5396 112.975 55.3 112.429 59.0094C111.865 63.0462 110.117 67.0467 107.452 70.2166L107.997 70.4217C108.606 55.7801 103.352 41.2378 96.2329 28.5432C95.2576 26.9014 94.2358 25.1814 93.2604 23.5396C93.0282 23.1487 92.4028 23.5202 92.635 23.9111C98.971 33.686 103.773 44.7954 105.984 56.1742C106.978 60.8727 107.363 65.6155 107.264 70.4341C107.247 70.7615 107.667 70.9349 107.809 70.6392C112.855 64.8908 114.388 56.7878 112.392 49.5116C111.118 44.8742 108.407 40.6672 106.102 36.4307C104.197 33.2253 102.45 29.9271 99.998 27.0468C98.2137 24.9336 95.8063 22.6618 92.9183 23.3198C92.4345 23.3957 92.6496 24.114 93.087 23.9599L93.1799 24.1163Z" fill="#CBC4B1"/>
<path d="M89.4055 56.3978C85.3105 47.7244 86.7299 36.9385 89.8407 28.1094L89.1859 28.0753C91.4418 40.0625 94.0715 52.145 98.2479 63.6259C99.3579 66.5627 100.514 69.5777 102.14 72.314L102.594 71.8325C100.119 70.8704 98.0219 68.943 96.3305 66.9861C93.4904 63.8079 91.2293 60.1798 89.3591 56.3196C89.1268 55.9287 88.5796 56.2538 88.7336 56.6912C90.6039 60.5514 92.9114 64.2576 95.798 67.5141C97.614 69.5026 99.711 71.43 102.233 72.4703C102.529 72.612 102.873 72.3016 102.687 71.9889C99.529 66.6726 97.6998 60.5668 95.9634 54.6173C94.1512 48.184 92.6199 41.6896 91.1668 35.1487C90.6629 32.698 90.2054 30.3256 89.7014 27.8749C89.5938 27.5157 89.11 27.5915 89.0465 27.8408C85.904 36.7945 84.4993 47.7833 88.6872 56.613C88.9194 57.0039 89.4667 56.6788 89.3126 56.2414L89.4055 56.3978Z" fill="#CBC4B1"/>
<path d="M90.5997 26.1849C90.9147 25.4689 91.479 24.8164 92.1826 24.3984L91.6841 24.2714C94.395 28.4784 96.7932 32.8712 98.754 37.4181C102.399 45.5124 105.138 54.0396 105.988 62.9483C106.196 65.2574 106.28 67.5347 106.207 69.9049C106.22 70.6379 106.31 71.3245 105.653 71.8207C105.262 72.053 104.559 72.471 104.17 72.173C103.782 71.875 103.473 71.0003 103.241 70.6094C101.708 68.0294 100.677 65.0462 99.613 62.1875C97.1946 55.2682 95.37 48.1019 93.7481 40.9208C92.6156 35.9877 91.5612 31.0082 90.6314 26.0603C90.5555 25.5765 89.8372 25.7917 89.9913 26.2291C92.169 38.2627 94.8452 50.4233 98.8652 61.9971C99.8971 64.9804 101.054 67.9954 102.523 70.8246C102.848 71.3718 103.127 71.8409 103.452 72.3882C103.823 73.0136 103.963 73.2481 104.884 73.0182C105.57 72.9276 106.633 72.402 106.917 71.8106C107.09 71.3903 106.985 70.5009 107.033 70.0488C107.067 69.394 107.055 68.6609 107.043 67.9279C106.943 58.6793 104.519 49.4362 101.047 40.9215C98.6703 35.1408 95.8101 29.4359 92.3708 24.1808C92.2779 24.0245 92.0286 23.961 91.8722 24.0539C91.0904 24.5183 90.4944 25.2956 90.023 26.1045C89.8032 26.4466 90.441 26.808 90.6608 26.4659L90.5997 26.1849Z" fill="#CBC4B1"/>
<path d="M70.3018 42.0448C73.3673 47.2047 76.4791 52.4427 78.7163 57.9889C80.1368 61.2702 81.4621 64.9253 81.3994 68.5588C81.3902 70.6797 80.5868 72.5321 80.079 74.5261L80.7339 74.5602C75.8554 59.5828 68.89 43.9413 57.2415 32.8801C55.8435 31.5951 54.4455 30.3102 52.8594 29.2428L52.6226 29.9124C59.9608 31.5819 66.3686 35.6023 70.3483 42.1229C70.5805 42.5138 71.2059 42.1423 70.9737 41.7514C67.0258 35.1061 60.4005 30.8976 52.8594 29.2428C52.4856 29.1476 52.234 29.6144 52.6226 29.9124C55.9341 32.2817 58.8377 35.2107 61.3821 38.2473C66.2535 44.1325 70.1549 50.6996 73.3845 57.5602C76.0737 63.1551 78.201 68.8723 80.0937 74.7289C80.2795 75.0416 80.6069 75.0587 80.7486 74.763C81.2711 72.9718 81.9646 71.2905 82.1132 69.4041C82.2447 67.8451 81.9707 66.3155 81.7431 64.8641C80.7646 60.3684 78.7403 56.0707 76.6061 51.9442C74.8434 48.4431 72.8927 45.1596 70.8955 41.7978C70.6633 41.4069 70.0379 41.7785 70.2701 42.1694L70.3018 42.0448Z" fill="#CBC4B1"/>
<path d="M49.2368 29.9133C50.2361 29.6369 50.2826 29.7151 51.0133 30.2329C51.573 30.6409 52.1326 31.0488 52.6923 31.4567C54.6352 32.9468 56.3436 34.5761 57.9421 36.3766C64.0891 42.9847 68.8584 50.8345 72.6283 58.9606C74.1734 62.2736 75.5621 65.6794 76.8727 69.1318C77.5818 71.0375 78.2444 72.8651 78.8754 74.8173C79.2446 75.973 79.5062 76.7694 79.1425 77.9375C78.8421 78.8564 78.4954 79.697 77.8993 80.4742L78.476 80.5547C75.1637 74.8011 71.9295 69.001 68.6635 63.3256C63.4322 54.1638 58.2008 45.002 53.0477 35.7938C51.7936 33.6829 50.5861 31.6503 49.5348 29.5247C49.3026 29.1338 48.7553 29.4589 48.9093 29.8963C52.2217 35.6499 55.4559 41.4499 58.7218 47.1253C63.9532 56.2871 69.1846 65.4489 74.3377 74.6571C75.5918 76.768 76.7994 78.8007 77.8506 80.9263C77.9435 81.0826 78.1927 81.1461 78.4273 81.0067C79.2896 79.9656 79.6851 78.6729 80.0024 77.4266C80.2246 76.5543 80.0388 76.2415 79.7307 75.3668C79.3762 74.414 79.0998 73.4147 78.7453 72.4618C77.6522 69.1976 76.3563 65.948 74.9823 62.7449C72.6352 57.3698 70.0071 52.0559 66.8782 47.1453C63.192 41.2965 58.7874 35.6629 53.3789 31.3661C52.7263 30.8018 51.9956 30.284 51.2648 29.7661C50.4095 29.2166 50.1138 29.075 48.9117 29.366C48.4743 29.5201 48.6431 30.1602 49.0804 30.0062L49.2368 29.9133Z" fill="#CBC4B1"/>
<path d="M51.0145 62.2787C48.8508 57.7466 47.2345 52.8894 46.1801 47.9098C45.7226 45.5373 45.3896 43.1964 45.1349 40.8092C44.9731 38.5784 44.843 36.2229 45.3825 34.1043L44.6812 33.992C45.467 39.7658 47.626 45.3584 50.2858 50.5477C54.5689 59.0036 60.3521 66.7798 66.5433 73.9963C68.8091 76.5638 71.0748 79.1314 73.4969 81.606L73.7803 81.0146C69.6676 79.9674 65.7477 77.6422 62.3897 75.1946C57.7413 71.8213 53.5179 67.561 50.9363 62.3252C50.704 61.9343 50.1568 62.2594 50.3108 62.6968C52.8925 67.9325 57.0377 72.2394 61.7325 75.6909C65.2616 78.2483 69.2744 80.7299 73.5898 81.7624C73.9637 81.8576 74.1371 81.4373 73.8732 81.171C68.8579 76.1118 64.2187 70.6175 59.9705 64.891C54.6835 57.772 49.9289 50.1251 47.1119 41.6444C46.2805 39.1767 45.6055 36.6161 45.2578 34.0725C45.2284 33.6669 44.6518 33.5864 44.5565 33.9603C44.0952 36.0325 44.2253 38.388 44.2943 40.4625C44.4708 42.8962 44.772 45.3616 45.2295 47.7341C46.2986 52.9165 48.0079 57.9301 50.1862 62.665C50.4184 63.0559 50.9657 62.7308 50.8116 62.2934L51.0145 62.2787Z" fill="#CBC4B1"/>
<path d="M54.9888 55.2651C51.8305 49.9488 49.0166 44.3222 47.4831 38.358C47.0844 36.7967 46.6857 35.2354 46.568 33.613C46.5386 33.2073 46.3846 32.77 46.4333 32.3179C46.4527 31.4603 47.6253 30.7636 48.329 30.3456L47.8305 30.2186C51.1428 35.9722 54.377 41.7723 57.6894 47.5259L73.3517 75.1359C74.6058 77.2468 75.8598 79.3576 76.9575 81.5614L77.1626 81.0164C76.6935 81.2951 76.0534 81.4639 75.6648 81.1659C75.4937 81.0559 75.3544 80.8213 75.1369 80.6332C74.6089 80.1007 74.0345 79.49 73.5066 78.9574C71.7835 77.1252 70.0604 75.2931 68.369 73.3363C63.4342 67.7004 58.8756 61.6294 54.9424 55.1869C54.7101 54.796 54.0847 55.1676 54.3169 55.5585C58.3113 62.282 63.1192 68.4164 68.3179 74.3185C70.0093 76.2754 71.7324 78.1075 73.5802 79.9715C74.1081 80.504 74.5896 80.9584 75.1176 81.491C75.7384 82.1799 76.5349 81.9182 77.4095 81.6101C77.5659 81.5172 77.8005 81.3779 77.6147 81.0652C74.3023 75.3116 71.0681 69.5115 67.7558 63.7579L52.0934 36.1479C50.8393 34.0371 49.5853 31.9262 48.4876 29.7225C48.3947 29.5661 48.1455 29.5026 47.9891 29.5955C47.2073 30.0599 45.8001 30.896 45.749 31.8783C45.732 32.2057 45.8079 32.6895 45.8373 33.0951C46.0332 34.6711 46.3072 36.2007 46.7059 37.762C48.3006 44.0071 51.0975 49.9613 54.4733 55.4656C54.7055 55.8565 55.331 55.4849 55.0987 55.094L54.9888 55.2651Z" fill="#CBC4B1"/>
<path d="M63.2452 111.713C59.6876 112.134 56.0881 111.417 52.755 110.435C49.4218 109.454 45.8564 108.081 42.6672 106.274C39.478 104.467 36.4304 102.364 33.9936 99.6861C31.5568 97.0087 30.1998 93.4781 29.373 89.9499C28.9913 88.0612 28.766 86.0796 28.9146 84.1932C28.9997 82.556 29.2582 80.4985 30.0911 79.0518L29.4826 79.0959C32.0472 84.6591 34.8464 90.083 38.3492 95.0888C40.1164 97.5294 42.0548 100.08 44.6209 101.729C47.8712 103.817 51.4196 105.517 54.8898 107.263C58.1107 108.946 61.3634 110.504 64.5844 112.187L64.6648 111.61C64.2275 111.764 63.7437 111.84 63.2599 111.916C62.8543 111.945 63.0231 112.585 63.4287 112.556C63.9125 112.48 64.3963 112.404 64.8336 112.25C65.0682 112.111 65.1633 111.737 64.9141 111.674C58.658 108.621 52.4336 105.443 46.3192 102.095C40.2047 98.7463 37.0045 92.2914 33.895 86.5231C32.5333 84.053 31.3281 81.4901 30.0763 78.849C29.937 78.6144 29.6096 78.5974 29.4679 78.8931C28.0685 81.5227 28.0206 85.359 28.4293 88.1835C28.8969 91.8193 29.9877 95.6138 32.2047 98.6334C34.4217 101.653 37.3129 103.849 40.3922 105.827C43.6426 107.916 47.0663 109.584 50.7416 110.785C54.7127 112.128 59.1844 113.068 63.3505 112.602C63.7561 112.573 63.7437 111.84 63.3381 111.869L63.2452 111.713Z" fill="#CBC4B1"/>
<path d="M45.7351 100.218C42.1573 98.1124 39.6957 93.9689 37.5275 90.4972C35.3592 87.0255 33.5037 83.3681 31.7264 79.6642L31.1791 79.9893C35.918 84.0492 40.7986 87.8134 45.711 91.453C50.6233 95.0926 54.7368 99.5241 58.6157 104.095C60.3071 106.052 61.9668 108.133 63.5018 110.183L63.9562 109.701C57.8247 106.68 51.6468 103.581 45.6887 100.14C45.3465 99.9198 44.9851 100.558 45.3273 100.777C51.2853 104.219 57.4632 107.318 63.5947 110.339C63.8904 110.481 64.2349 110.17 64.0491 109.858C61.0255 105.836 57.7209 101.876 54.1965 98.2585C52.0848 96.1283 49.9266 93.9199 47.5951 92.1318C44.7821 89.8894 41.781 87.8645 38.9679 85.6221C36.5435 83.6777 34.0726 81.6551 31.6482 79.7107C31.3842 79.4444 30.9616 79.8012 31.1009 80.0358C32.9711 83.896 34.966 87.788 37.2271 91.416C39.2708 94.856 41.7959 98.7502 45.3737 100.856C45.7158 101.075 46.0773 100.438 45.7351 100.218Z" fill="#CBC4B1"/>
<path d="M47.1349 90.2907C41.7093 86.3214 36.3473 82.1028 31.2197 77.7449L31.0611 78.3681C33.3089 77.8788 35.6769 78.4818 37.7003 79.3951C39.5991 80.2767 41.4197 81.2048 43.2868 82.2111C47.021 84.2236 50.269 86.8422 53.6417 89.4925C57.0144 92.1429 60.2307 94.8861 62.57 98.4677C63.6847 100.344 64.643 102.313 65.3668 104.422C66.0906 106.53 66.9855 108.749 65.6201 110.723L66.2285 110.679C63.9651 107.582 61.5917 104.655 59.1402 101.775C55.5399 97.6728 51.7368 93.5858 47.2595 90.3224C46.9173 90.1026 46.6341 90.694 46.898 90.9603C51.2507 94.1919 55.1319 98.2325 58.6076 102.303C61.0127 105.105 63.3861 108.031 65.6031 111.051C65.7424 111.285 66.0699 111.302 66.2115 111.007C68.0948 108.301 66.3321 104.8 65.2367 102.066C63.7698 98.7068 61.7239 95.7971 59.1307 93.2126C56.5375 90.628 53.6463 88.432 50.7551 86.2361C47.8639 84.0401 44.7382 81.9835 41.4391 80.3471C38.1399 78.7108 34.7332 76.7153 31.0022 77.5568C30.7677 77.6962 30.7042 77.9454 30.8436 78.18C36.0175 82.6161 41.3796 86.8346 46.9298 90.8357C47.2719 91.0555 47.5552 90.4641 47.2912 90.1978L47.1349 90.2907Z" fill="#CBC4B1"/>
<path d="M59.7475 137.694C62.476 134.275 67.9279 135.796 71.3052 137.386C75.3203 139.337 78.7859 142.144 82.4713 144.609C89.3606 149.083 97.0952 152.844 102.15 159.573C103.453 161.231 104.567 163.108 105.448 165.123C106.296 167.264 107.203 170.215 106.522 172.629L107.084 172.507C102.475 167.419 97.5521 162.516 92.6761 157.691C88.856 153.931 84.8625 150.592 80.29 147.703C76.3236 145.299 72.091 143.16 67.7631 141.394C64.9455 140.212 61.9714 139.123 59.0122 138.237L59.2908 138.706C59.4325 138.41 59.5277 138.036 59.7475 137.694C59.9673 137.352 59.3295 136.991 59.1097 137.333C58.8899 137.675 58.67 138.017 58.5748 138.391C58.4649 138.562 58.6042 138.797 58.8535 138.86C65.6909 140.933 72.2597 143.8 78.3889 147.351C82.9467 150.038 87.1283 153.16 90.9484 156.919C94.4581 160.334 97.9361 163.874 101.368 167.336C103.169 169.121 104.938 171.032 106.662 172.864C106.801 173.099 107.114 172.913 107.224 172.742C107.778 170.826 107.274 168.375 106.689 166.501C106.105 164.627 105.193 162.736 104.125 160.938C102.064 157.825 99.4244 155.163 96.4868 152.889C92.508 149.752 88.0896 147.3 83.8128 144.552C79.536 141.804 75.7135 138.575 71.1999 136.497C67.6979 134.875 62.1827 133.603 59.3442 137.193C59.0462 137.582 59.6059 137.99 59.8257 137.648L59.7475 137.694Z" fill="#CBC4B1"/>
<path d="M103.444 174.035C95.2682 174.873 86.8695 173.199 79.0351 170.872C75.0788 169.732 71.484 167.954 68.4705 165.196C65.5498 162.594 63.3182 159.372 61.6802 155.902C59.7488 151.761 58.6773 147.109 58.6664 142.462L58.0263 142.63C66.8657 157.687 82.3403 167.533 98.8034 172.455C101.093 173.105 103.383 173.754 105.658 174.201L105.614 173.592C104.988 173.964 104.255 173.976 103.569 174.067C103.163 174.096 103.175 174.829 103.581 174.8C104.392 174.741 105.235 174.557 105.985 174.218C106.22 174.078 106.19 173.673 105.941 173.609C92.5868 171.071 79.4515 164.807 69.4479 155.624C65.2539 151.77 61.6707 147.34 58.7446 142.415C58.5588 142.102 58.1214 142.256 58.1044 142.584C58.0697 150.537 61.1384 158.551 66.6963 164.346C69.4288 167.165 72.601 169.3 76.1664 170.672C80.2767 172.25 84.624 173.158 88.8783 173.909C93.7557 174.819 98.6819 175.277 103.581 174.8C103.987 174.77 104.021 174.115 103.569 174.067L103.444 174.035Z" fill="#CBC4B1"/>
<path d="M58.6897 140.54C58.7067 140.213 58.7702 139.964 58.8654 139.59L58.4745 139.822C64.6888 141.736 70.7443 144.273 76.4385 147.448C80.7323 149.869 84.8845 152.585 88.4724 155.954C92.0138 159.244 95.3671 162.752 98.7987 166.214C100.957 168.422 103.069 170.552 105.148 172.807L105.432 172.216C91.9846 169.522 78.7564 163.101 68.8481 153.544C64.8104 149.597 61.3835 145.075 58.6602 140.135C58.428 139.744 57.8807 140.069 58.0348 140.506C66.4051 155.842 81.5671 165.873 97.9202 170.967C100.256 171.694 102.749 172.329 105.195 172.885C105.569 172.981 105.742 172.56 105.478 172.294C100.309 166.797 94.9832 161.394 89.6257 156.115C83.1342 149.817 74.9816 145.352 66.6216 141.963C63.975 140.891 61.2503 139.865 58.5403 139.042C58.3692 138.932 58.1811 139.15 58.1494 139.275C58.0859 139.524 57.9907 139.898 57.9736 140.225C57.9249 140.677 58.548 140.836 58.5968 140.384L58.6897 140.54Z" fill="#CBC4B1"/>
<path d="M157.377 119.358C159.953 122.27 162.043 125.788 164.04 129.15C166.037 132.511 167.458 135.793 167.972 139.507C169.019 146.077 167.555 152.87 164.395 158.767C162.744 161.863 160.531 165.082 157.203 166.424L157.638 166.801C159.721 161.226 160.931 155.43 161.814 149.617C162.424 145.658 162.753 141.761 162.459 137.705C162.162 134.179 161.538 130.636 160.634 127.154C159.944 124.391 159.005 121.564 157.956 118.908C157.724 118.517 157.083 118.686 157.316 119.077C159.506 124.545 161.072 130.384 161.701 136.251C162.556 144.099 161.133 152.031 159.198 159.633C158.595 162.001 157.945 164.291 157.093 166.596C157.03 166.845 157.372 167.065 157.528 166.972C160.34 165.83 162.409 163.437 163.98 160.918C165.738 158.18 167.108 155.145 167.902 152.03C169.96 144.989 169.276 137.251 165.873 130.811C164.697 128.653 163.365 126.589 162.111 124.478C160.857 122.367 159.54 120.506 157.941 118.705C157.709 118.314 157.176 118.842 157.487 119.187L157.377 119.358Z" fill="#CBC4B1"/>
<path d="M149.181 164.32C146.167 161.562 145.013 158.017 144.765 154.039C144.608 150.747 144.685 147.317 144.731 144.011C144.898 137.882 145.674 131.71 148.49 126.123C149.308 124.474 150.297 122.934 151.426 121.629C152.476 120.371 153.903 118.677 155.588 118.31L155.153 117.934C152.926 124.334 151.073 130.829 149.47 137.388C147.817 144.399 148.129 151.511 149.534 158.504C150.145 161.314 150.757 164.124 151.806 166.78L152.353 166.455C151.17 165.888 150.097 165.151 149.056 164.288C148.668 163.99 148.213 164.472 148.602 164.77C149.643 165.632 150.716 166.37 151.977 166.89C152.226 166.953 152.585 166.846 152.524 166.565C150.38 161.175 149.408 155.088 149.074 149.363C148.856 145.791 149.09 142.267 149.854 138.746C150.808 134.477 151.933 130.318 153.215 126.066C154.038 123.356 154.861 120.646 155.808 117.968C155.872 117.718 155.576 117.577 155.373 117.592C154.046 117.851 152.903 118.953 151.948 119.838C150.773 121.065 149.723 122.324 148.89 123.77C147.319 126.29 146.184 129.186 145.454 132.052C143.63 138.953 143.769 146.486 144.035 153.521C144.265 157.826 145.403 161.699 148.68 164.723C148.99 165.068 149.523 164.54 149.134 164.242L149.181 164.32Z" fill="#CBC4B1"/>
<path d="M150.928 139.481C152.549 132.595 154.419 125.772 156.741 118.998L156.086 118.964C157.861 123.199 159.167 127.711 160.067 132.254C160.708 135.469 160.944 138.714 160.976 141.974C160.882 145.732 160.257 149.487 159.54 153.087C158.678 157.512 157.66 162.031 156.051 166.266C155.878 166.686 155.924 166.764 155.426 166.637C154.896 166.635 154.177 166.85 153.945 166.459C153.666 165.99 153.498 165.35 153.422 164.866C152.791 162.914 152.284 160.993 151.856 159.026C150.418 152.688 149.715 145.808 151.162 139.342C151.258 138.968 150.588 138.731 150.539 139.183C149.202 145.478 149.765 152.124 151.111 158.306C151.6 160.554 152.136 162.88 152.906 165.067C153.075 165.707 153.275 166.222 153.522 166.816C154.033 167.676 155.563 167.402 156.452 167.297C156.452 167.297 156.609 167.204 156.687 167.157C158.721 162.035 159.914 156.566 160.905 151.112C161.61 146.78 162.159 142.54 161.882 138.157C161.649 134.381 160.932 130.682 159.98 127.122C159.244 124.281 158.305 121.454 157.132 118.766C156.946 118.454 156.618 118.436 156.477 118.732C154.233 125.46 152.285 132.329 150.664 139.215C150.569 139.589 151.238 139.826 151.287 139.374L150.928 139.481Z" fill="#CBC4B1"/>
</svg>
