<svg width="137" height="206" viewBox="0 0 137 206" fill="none" xmlns="http://www.w3.org/2000/svg">
<path d="M68.0925 36.2765C68.0925 36.2765 66.4966 33.905 76.5017 22.4727C86.5067 11.0405 106.841 21.7923 106.841 21.7923C106.841 21.7923 91.6213 9.31035 76.4838 8.44434C61.3463 7.57833 50.6061 27.0163 48.848 32.3901C47.0877 37.7579 51.4566 36.5888 56.5997 32.4651C61.7428 28.3415 54.2113 2.51408 54.2113 2.51408C54.2113 2.51408 45.2664 14.1885 35.4096 30.1165C25.5528 46.0445 20.0235 48.3655 15.8783 52.4426C11.7394 56.5175 2.93594 59.8003 -1.80007 58.3994C-6.53609 56.9984 -17.9171 43.5327 -36.13 42.2079C-54.3429 40.8832 -69.6536 47.8268 -69.6536 47.8268C-69.6536 47.8268 -53.1993 48.2558 -44.9829 52.6526C-36.7664 57.0494 -38.553 64.8167 -33.6419 65.849C-28.7309 66.8812 -22.8828 57.0112 -31.105 57.5325C-39.3273 58.0537 -62.2076 56.9682 -69.5793 66.9138C-76.951 76.8594 -92.1542 90.6426 -104.48 91.213C-104.48 91.213 -76.3952 92.2622 -64.1792 81.5463C-51.9633 70.8304 -33.4546 76.4531 -33.4546 76.4531L-7.64834 73.5356C-7.64834 73.5356 4.12138 71.0446 1.72336 54.2355C-0.674653 37.4265 0.854707 23.7724 4.42192 23.1698L15.3277 24.8691C15.3277 24.8691 7.05906 32.2076 14.1272 47.9684C21.1954 63.7291 23.3824 62.0292 23.3824 62.0292M12.3886 69.1546C22.3359 65.0486 39.7106 44.4257 59.0473 37.9033C84.6296 29.2766 118.638 42.162 132.004 86.1794C144.312 126.715 119.464 175.736 63.7271 194.584C-0.426659 216.275 -44.9391 202.235 -67.4016 153.073C-84.7509 115.085 -67.366 87.3678 -48.4454 79.8005C-30.9502 72.801 -6.33738 76.8853 12.3886 69.1546ZM-28.5803 88.6295C-10.128 81.5163 5.29691 87.215 13.3313 101.977C18.2951 111.099 29.8012 142.409 33.2565 152.889C36.7118 163.368 39.11 181.086 16.7252 187.127C-3.6788 192.629 -18.5124 187.532 -31.9014 173.053C-45.1878 158.687 -58.5998 133.615 -53.5022 114.577C-48.4045 95.5383 -38.9216 92.6192 -28.5803 88.6295ZM61.4498 56.3743C71.6836 52.926 92.8337 49.813 101.543 65.6875C110.246 81.564 119.927 112.048 113.664 130.577C107.404 149.111 89.7332 172.13 65.5045 162.926C47.1754 155.963 30.9467 89.9062 35.3868 78.5712C41.7555 62.3167 61.4498 56.3743 61.4498 56.3743ZM-12.0253 96.7894C-14.6994 98.209 -16.8737 101.48 -11.7469 107.181C-5.95602 113.614 -0.592204 113.578 -1.80875 106.519C-3.25719 98.0708 -8.20328 94.7608 -12.0253 96.7894ZM52.8203 73.8619C49.7742 74.2755 46.4609 76.5839 48.9871 83.6321C51.8392 91.5873 56.8473 93.3681 58.5011 86.3929C60.4756 78.0303 57.1755 73.2699 52.8203 73.8619ZM82.4113 70.0261C79.4754 69.1634 75.4069 69.8946 74.3532 77.2534C73.1626 85.5607 76.8211 89.1969 81.5983 83.6004C87.3295 76.8811 86.6095 71.2581 82.4113 70.0261ZM101.946 101.432C102.032 98.5748 100.154 95.147 92.2372 96.2454C83.2995 97.4791 80.543 101.748 87.6645 104.46C96.2021 107.711 101.826 105.52 101.946 101.432ZM98.1563 130.044C99.84 127.652 100.168 123.817 92.8038 120.911C84.4918 117.624 79.7389 119.926 84.2764 125.697C89.7186 132.611 95.7511 133.467 98.1563 130.044ZM81.5574 154.318C84.164 152.8 86.1892 149.444 80.8134 143.942C74.7397 137.732 69.3863 137.981 70.9141 144.981C72.7408 153.376 77.8304 156.497 81.5574 154.318ZM-35.2404 111.057C-37.4403 113.057 -38.6515 116.731 -32.1421 121.05C-24.7902 125.927 -19.6135 124.634 -22.7058 118.086C-26.4048 110.248 -32.0917 108.198 -35.2404 111.057ZM-37.661 145.948C-37.0929 148.753 -34.4675 151.734 -26.9832 149.105C-18.5354 146.137 -16.8168 141.423 -24.3971 140.172C-33.4886 138.677 -38.4797 141.927 -37.661 145.948ZM-17.7123 170.494C-15.3883 172.371 -11.342 173.196 -7.22775 166.833C-2.58036 159.644 -4.38494 154.959 -11.1678 158.342C-19.2868 162.391 -21.0326 167.815 -17.7123 170.494ZM8.19051 179.154C10.9315 180.446 15.0761 180.336 17.3997 173.236C20.0227 165.214 17.047 161.078 11.3516 165.886C4.52686 171.647 4.25726 177.301 8.19051 179.154Z" stroke="#CBC4B1" stroke-width="2" stroke-miterlimit="10"/>
</svg>
