<svg width="215" height="426" viewBox="0 0 215 426" fill="none" xmlns="http://www.w3.org/2000/svg">
<path d="M142.935 256.609C140.768 253.765 137.274 252.341 134.116 251.206C129.559 249.802 124.871 249.099 120.13 248.525C110.726 247.561 101.085 247.556 91.599 247.915C90.8475 247.911 90.0436 248.036 89.2921 248.031C97.0765 245.168 104.811 241.681 112.469 238.012C118.258 235.24 124.098 232.34 129.992 229.309C130.355 229.155 130.589 228.949 130.9 228.925C131.316 228.642 130.203 228.038 130.022 228.114C125.331 228.165 120.637 228.968 115.996 229.642C105.183 231.423 94.2629 234.215 83.7782 238.543C78.017 240.873 72.3578 243.697 66.8528 246.886C71.3799 241.639 75.3645 235.87 78.5479 229.473C79.0706 228.177 79.9043 226.857 80.2976 225.509C80.4544 225.12 79.5237 224.439 79.2375 224.775C77.8065 226.455 75.9872 227.977 74.4018 229.292C69.3597 233.575 63.7502 237.022 58.295 240.834C53.4893 244.157 49.0171 248.521 44.9852 252.913C41.1874 257.098 37.596 261.519 34.0818 266.122C32.2077 268.527 30.5154 270.855 28.9001 273.365C28.5368 273.519 28.1212 273.802 27.8872 274.008C27.8872 274.008 27.8872 274.009 27.8349 274.138C18.8234 279.67 9.99097 285.878 1.70103 292.609C12.4304 277.216 23.8317 262.399 35.5689 247.87C48.3986 232.126 61.6415 216.852 75.2974 202.048C79.0749 203.889 83.9226 203.45 88.0711 202.877C94.7081 202.111 101.218 200.539 107.781 198.837C120.776 195.382 133.698 190.99 146.387 186.052C149.189 185.081 152.044 183.981 154.769 182.828C155.132 182.674 154.383 181.917 154.254 181.864C149.287 179.237 143.613 178.736 137.936 178.988C131.145 179.389 124.376 180.856 117.761 182.687C105.517 186.148 93.527 191.22 81.8452 197.022C80.5212 197.689 79.1973 198.357 77.8733 199.024C77.8733 199.024 77.8733 199.024 77.9778 198.765C88.6422 187.269 99.5131 176.007 110.72 165.033C114.152 161.755 117.454 158.423 120.886 155.145C121.875 154.189 122.863 153.234 123.98 152.331C124.448 151.919 125.097 151.429 125.618 150.886C128.056 150.07 130.366 149.2 132.728 148.201C136.906 146.433 141.137 144.536 144.853 141.675C146.386 140.489 148.023 139.044 148.86 136.971C149.016 136.582 148.135 136.525 147.954 136.602C145.828 136.641 143.728 136.992 141.628 137.344C141.264 137.497 140.824 137.469 140.46 137.622C143.323 134.262 145.978 130.667 147.91 126.626C148.485 125.201 149.371 123.752 149.687 122.221C149.844 121.832 149.144 121.698 148.886 121.593C145.414 121.235 142.114 123.813 139.436 126.342C138.162 127.634 136.888 128.925 135.743 130.269C135.693 129.645 135.696 128.892 135.335 128.292C135.18 127.928 135.026 127.563 134.872 127.199C134.665 126.964 134.071 126.571 133.707 126.724C129.551 129.557 127.51 135.364 126.146 140.239C125.28 143.507 124.543 146.828 124.246 150.177C120.165 153.945 116.213 157.767 112.261 161.588C101.626 171.889 91.38 182.349 81.288 193.174C79.1029 195.603 76.8406 197.849 74.6555 200.278L74.4986 200.667C62.3783 213.531 50.6711 226.866 39.4292 240.541C24.9867 258.042 11.216 276.118 -1.75338 294.822C-1.75338 294.822 -1.75337 294.822 -1.80563 294.952C-1.87259 291.756 -1.93947 288.561 -2.18809 285.442C-2.33726 283.571 -2.40938 281.882 -2.61083 280.14C4.75413 263.377 12.3779 246.72 20.3376 230.349C21.694 227.734 22.9734 224.936 24.3299 222.32C31.4552 215.115 38.5282 208.039 45.8078 201.199C51.2159 196.009 56.4424 190.897 61.9276 185.89C67.1788 181.089 72.8679 177.071 77.7061 171.8C82.6737 166.582 87.2805 160.765 91.1632 154.501C91.2677 154.242 90.4141 153.744 89.9985 154.027C84.4413 157.345 79.1927 161.392 73.9962 165.31C62.1474 174.513 50.968 185.046 40.9506 196.806C36.9436 201.51 33.3249 206.372 29.7833 211.416C36.7498 197.508 43.9751 183.706 51.407 170.138C57.4301 159.315 63.6351 148.416 69.9942 137.881C71.7663 134.982 73.5905 131.954 75.492 129.108C75.9873 128.253 76.612 127.452 77.1073 126.597C77.2641 126.209 77.7842 125.666 77.941 125.278C81.9327 125.093 86.166 122.443 89.5954 119.917C92.0891 118.218 94.4533 116.465 96.6111 114.478C96.8973 114.142 96.3026 113.749 96.1732 113.696C95.1379 113.274 94.1028 112.853 92.9108 112.82C93.64 111.759 94.3693 110.698 95.0985 109.637C95.8277 108.577 96.3753 107.593 96.9751 106.479C97.2888 105.702 97.9135 104.9 97.9683 104.017C98.0728 103.758 97.7367 103.471 97.2963 103.442C99.9219 101.042 101.955 97.4948 103.78 94.4664C105.161 92.1626 106.465 89.6767 107.64 87.138C107.745 86.8788 107.409 86.5911 107.02 86.4329C108.506 83.87 109.863 81.2544 111.09 78.586C113.23 74.0268 115.451 68.8967 115.986 63.8344C117.186 61.6076 118.126 59.2753 119.015 57.0726C120.374 53.7037 121.813 49.7637 121.281 46.2278C121.256 45.9159 120.375 45.8588 120.245 45.806C116.873 46.6953 113.703 49.3262 111.386 52.4557C111.465 51.8846 111.363 51.3904 111.443 50.8193C111.47 50.3779 110.46 50.2681 110.226 50.4746C108.745 51.5308 107.573 53.3162 106.505 54.8425C105.099 56.8344 103.77 59.0086 102.493 61.0532C101.112 63.357 99.7305 65.6606 98.4786 68.0171C98.2721 67.782 97.8068 67.4416 97.5729 67.6481C96.2738 68.6275 95.5171 70.1297 94.6833 71.4496C93.5882 73.4173 92.4931 75.3849 91.6567 77.4581C90.7159 79.7904 89.5163 82.0173 88.5754 84.3497C88.4212 83.9851 88.0851 83.6973 87.9309 83.3327C87.9309 83.3327 87.259 82.7573 87.1545 83.0164C85.5666 85.0852 84.469 87.8063 83.3464 90.2155C82.7192 91.7703 82.1443 93.1956 81.3876 94.6978C81.1562 94.1509 81.0542 93.6567 80.7705 93.2394C80.4869 92.8221 79.9444 92.2993 79.6059 92.7649C77.6795 95.2992 76.5021 98.5913 75.4816 101.495C74.8021 103.179 74.3292 105.099 73.7791 106.836C72.9778 106.208 71.9427 105.786 70.9572 105.988C68.6771 113.507 71.3467 121.082 76.6197 125.192C74.3797 128.504 72.4509 131.791 70.3403 135.156C64.2426 145.043 58.5851 154.958 52.8233 165.133C46.8524 175.826 41.1927 186.495 35.61 197.346C39.2689 188.276 42.5396 179.047 45.111 169.685C46.6593 163.979 47.9488 158.168 48.6162 152.405C48.9897 149.239 49.2338 146.019 48.9852 142.9C48.9628 141.835 48.8635 140.588 48.3484 139.623C48.2713 139.441 47.5223 138.683 47.1838 139.149C43.2763 145.1 40.2472 151.862 37.5815 158.471C34.4453 166.245 31.9561 174.283 29.5963 182.374C25.5065 196.247 22.1932 210.437 19.1909 224.602C18.6108 227.534 18.0307 230.466 17.4507 233.398C10.2476 248.265 3.43284 263.291 -3.30488 278.5C-3.48145 277.07 -3.65806 275.64 -3.83464 274.211C-3.43879 272.109 -3.04299 270.007 -2.64715 267.905C-0.533445 255.943 1.63252 243.851 3.61682 231.835C5.07333 222.622 6.52976 213.409 7.6752 204.22C8.52678 197.627 8.62689 191.03 9.53075 184.307C9.63529 184.048 9.66274 183.607 9.63788 183.295C11.4156 171.044 14.2037 158.904 17.1212 146.816C18.9608 139.268 20.9299 131.772 22.8467 124.406C25.8803 123.983 28.583 121.765 30.9224 119.7C34.2499 116.681 37.3983 112.985 40.2355 109.313C45.8055 102.228 50.7035 94.5683 55.3951 86.6732C56.3857 84.9646 57.4285 83.1265 58.419 81.4179C58.5758 81.0292 57.5656 80.9194 57.5133 81.049C54.2732 81.2376 51.1051 83.115 48.4023 85.333C44.8161 88.2472 41.72 91.8137 38.9599 95.6678C33.5193 102.805 28.8277 110.7 24.5767 118.624C24.4721 118.883 24.3153 119.272 24.2107 119.531C25.2861 115.745 26.232 111.906 27.3074 108.12C29.4581 100.547 31.6088 92.9747 33.7595 85.4023C33.9163 85.0136 34.073 84.6249 34.1776 84.3658C35.1707 81.9039 36.1639 79.442 36.8983 76.8746C40.2404 77.1801 43.2817 74.4966 45.4419 71.7559C47.8362 68.8088 49.6356 65.4684 51.1763 62.0227C51.4899 61.2452 51.8035 60.4677 52.1172 59.6903C52.274 59.3016 51.5498 58.8556 51.291 58.7502C49.2703 58.5304 47.1922 59.9469 45.5024 61.5215C46.5478 58.93 47.205 56.1804 47.6806 53.5076C47.9445 52.1064 48.0789 50.6527 48.0317 49.2756C48.0068 48.9638 47.2056 48.3355 46.9194 48.6715C45.6202 49.6509 44.6048 51.0477 43.7188 52.4971C42.5465 54.2825 41.556 55.9912 40.6425 57.8821C39.8336 59.5138 39.0246 61.1455 38.2157 62.7773C37.8377 59.6059 36.8375 56.4827 35.2923 53.5902C34.9315 52.9906 34.5708 52.3912 34.1577 51.9211C34.0283 51.8684 33.227 51.2402 33.1224 51.4994C30.2527 57.1193 29.5829 63.6353 30.003 69.6903C30.351 74.0564 31.0873 78.5807 32.4731 82.6152C32.6274 82.9798 32.7295 83.474 33.0654 83.7617C31.4922 89.1555 29.9712 94.4197 28.398 99.8135C24.9878 112.002 21.6297 124.062 18.5305 136.226C15.6155 147.561 12.83 158.948 10.6143 170.416C11.0082 161.223 10.7277 152.208 10.0067 143.163C9.13908 131.495 7.72648 120.057 5.82109 108.72C5.46538 106.614 5.03256 104.325 4.62458 102.349C4.67685 102.219 3.59186 101.174 3.56445 101.615C2.17998 112.517 1.05439 123.524 0.550866 134.483C0.323966 140.275 0.201568 145.807 1.4529 151.295C3.01022 158.266 4.2041 165.391 5.39807 172.515C6.18407 177.663 6.97018 182.811 7.75617 187.959C7.62423 188.66 7.67398 189.284 7.54202 189.984C7.32531 192.763 7.23785 195.593 6.96886 198.501C6.13704 206.913 4.86478 215.296 3.51536 223.496C1.74013 234.993 -0.293807 246.385 -2.2507 257.959C-2.99011 262.033 -3.78177 266.236 -4.52117 270.31C-5.10573 266.904 -5.81981 263.445 -6.71544 260.062C-7.7902 256.004 -9.09875 252.151 -10.7708 248.453C-11.6964 246.265 -12.856 244.284 -14.0155 242.303C-14.0155 242.303 -14.0155 242.303 -13.9633 242.174C-14.0927 242.121 -14.2221 242.068 -14.2469 241.756C-14.5306 241.339 -14.6848 240.975 -14.9684 240.557C-15.6378 239.228 -15.9437 237.746 -16.302 236.393C-17.9339 228.487 -17.2315 220.022 -16.7631 211.765C-16.0352 195.768 -16.8104 179.761 -17.8196 163.962C-18.0134 159.96 -18.3367 155.906 -18.7122 151.981C-18.737 151.67 -19.8766 151.507 -19.9812 151.766C-23.3264 160.059 -25.2235 169.243 -26.5232 178.068C-29.15 196.158 -28.2804 214.918 -21.3883 230.7C-20.3084 233.252 -18.8652 235.651 -17.5514 237.996C-21.3984 233.713 -25.2454 229.431 -29.2741 225.225C-38.0282 215.925 -47.0934 206.65 -57.2786 199.031C-59.3465 197.434 -61.3894 196.149 -63.6141 194.941C-65.244 194.126 -66.9786 193.57 -68.7405 193.456C-68.9993 193.35 -69.0515 193.48 -69.1038 193.609C-69.1038 193.609 -69.1037 193.609 -69.156 193.739C-65.2867 199.087 -61.0019 204.152 -56.7941 209.034C-48.6621 218.382 -39.9851 227.499 -30.0836 234.701C-25.5074 237.923 -20.5677 240.992 -15.0258 242.193C-14.8964 242.246 -14.8716 242.558 -14.7945 242.74C-12.8362 246.103 -11.2164 249.931 -9.85542 253.654C-7.64855 260.135 -6.16834 266.923 -5.23317 273.943C-6.10453 278.717 -7.02822 283.621 -7.89957 288.396C-10.6947 294.951 -13.49 301.507 -16.3374 308.192C-30.1176 321.436 -42.3227 336.378 -52.6415 352.994C-54.3091 355.634 -55.8472 358.327 -57.3854 361.019C-57.5422 361.408 -56.482 362.141 -56.3252 361.753C-45.6105 343.035 -32.5692 326.019 -17.5918 311.301C-20.5712 318.687 -23.5506 326.073 -26.53 333.459C-32.7074 343.917 -38.5489 354.662 -43.9499 365.436C-45.3586 368.182 -46.638 370.98 -47.9697 373.907C-48.1265 374.296 -46.9096 374.641 -46.7528 374.252C-41.6354 363.06 -35.9233 352.262 -29.823 341.622C-32.8546 349.137 -35.6797 356.887 -38.5819 364.455C-40.0977 368.213 -41.3549 372.076 -42.8707 375.833C-43.0275 376.222 -41.9151 376.826 -41.8106 376.567C-36.5536 362.415 -31.2444 348.133 -25.547 334.01C-21.3507 326.969 -17.0773 320.111 -12.6745 313.305C-13.862 319.61 -14.9974 325.786 -16.1849 332.091C-18.0047 341.458 -19.7723 350.695 -21.5922 360.062C-22.5406 364.654 -23.412 369.428 -24.3605 374.021C-24.465 374.28 -24.5173 374.409 -24.5696 374.539C-24.7264 374.928 -23.4323 375.455 -23.4049 375.013C-22.7203 371.822 -22.1652 368.578 -21.4806 365.387C-19.8972 356.98 -18.2367 348.756 -16.6533 340.349C-14.7015 330.281 -12.802 320.344 -10.9024 310.406C-10.2778 309.604 -9.73028 308.62 -9.23499 307.766C-7.43804 305.179 -5.71823 302.41 -3.92128 299.823C-3.95692 310.369 -4.61462 320.964 -5.84227 331.477C-6.88572 341.16 -8.44684 350.632 -10.1896 360.181C-10.1896 360.181 -10.2941 360.44 -10.3464 360.57C-10.5032 360.958 -9.10458 361.226 -9.07717 360.785C-7.39181 352.872 -6.22416 344.748 -5.16095 336.884C-3.56231 323.957 -2.48119 310.819 -2.69671 297.908C-2.48763 297.39 -2.0198 296.977 -1.68132 296.511C7.83059 288.618 17.7804 281.508 27.9865 275.256C35.1935 274.571 42.4776 274.069 49.7094 273.696C62.4883 273.018 75.3443 272.523 88.0135 273.611C90.7858 273.835 93.6352 274.241 96.3029 274.725C98.2191 275.204 100.135 275.682 101.842 276.68C102.23 276.838 102.542 276.814 102.258 276.396C99.8344 272.693 95.8777 270.176 92.2818 268.259C82.2185 262.952 70.2733 262.31 58.8905 264.009C52.2783 265.087 45.6635 266.918 39.1508 269.243C41.072 268.216 42.9685 266.876 44.8126 265.666C50.5241 262.713 56.2604 260.071 62.1261 257.482C67.0682 259.797 72.4559 260.634 77.8959 261.342C84.6573 262.135 91.4736 262.046 98.2898 261.956C110.524 261.509 122.76 260.308 134.947 258.484C137.487 258.161 140.081 257.709 142.544 257.204C142.674 257.257 142.649 256.945 142.701 256.816L142.935 256.609ZM135.008 132.836C136.362 130.974 137.975 129.217 139.613 127.772C141.823 125.655 144.759 123.231 147.611 122.884C147.27 124.103 146.618 125.346 146.148 126.512C144.007 131.071 140.884 135.079 137.554 138.852C135.478 139.515 133.557 140.543 131.583 141.7C132.626 139.862 133.54 137.971 134.194 135.975C134.56 135.068 134.72 133.926 134.827 132.913L135.008 132.836ZM130.098 144.263C132.437 142.199 135.008 140.681 137.862 139.581L138.9 139.25C141.157 138.51 143.492 137.952 145.851 137.706C146.11 137.812 146.473 137.658 146.784 137.634C146.027 139.136 144.858 140.168 143.558 141.148C141.791 142.54 139.766 143.827 137.844 144.854C134.184 146.833 130.421 148.317 126.529 149.749C126.347 149.826 126.165 149.903 125.854 149.927C127.337 148.117 128.873 146.178 130.15 144.133L130.098 144.263ZM126.868 141.438C128.127 136.822 130.011 131.404 133.65 128.36C133.829 129.037 133.956 129.843 134.006 130.467C134.098 133.974 132.452 137.679 130.757 140.76C130.158 141.874 129.428 142.934 128.881 143.918C127.659 145.08 126.514 146.424 125.576 148.003C126.024 145.772 126.472 143.54 127.049 141.362L126.868 141.438ZM95.234 192.217C108.133 186.761 121.574 181.826 134.978 180.347C140.94 179.759 147.134 179.718 152.646 182.114C145.302 185.006 138.063 187.639 130.694 190.219C117.228 194.841 103.503 199.358 89.7088 201.432C86.6752 201.856 83.6415 202.279 80.6353 202.262C79.0028 202.2 77.2409 202.086 75.6358 201.583C81.9968 198.14 88.6416 195.114 95.234 192.217ZM94.6676 114.44C92.6144 116.169 90.484 117.715 88.3537 119.261C85.2627 121.321 81.6516 123.923 77.9436 124.524C78.4912 123.54 79.091 122.427 79.3797 121.338C79.5365 120.949 79.6411 120.69 79.5391 120.196C80.4749 119.37 81.5924 118.467 82.6575 117.694L82.8915 117.488C85.5668 115.711 88.578 114.223 91.3777 114.005C91.3777 114.005 91.5072 114.058 91.6366 114.111C92.6992 114.091 93.5801 114.148 94.6676 114.44ZM95.2131 106.365C94.6133 107.478 93.9363 108.41 93.3365 109.523C92.5027 110.843 91.7213 112.033 90.7581 113.3C88.2695 113.493 85.7262 114.569 83.3371 116.01C83.5238 114.427 83.7106 112.843 83.7156 111.337C87.0954 108.187 91.224 105.796 95.5294 104.834L95.7881 104.94C95.7881 104.94 95.7881 104.94 95.9175 104.992C95.7084 105.511 95.4471 106.158 95.238 106.677L95.2131 106.365ZM102.409 93.757C100.375 97.3037 97.9509 101.446 94.7032 103.894C94.3921 103.918 94.2105 103.995 93.8994 104.019C91.6945 104.63 89.5144 105.552 87.3592 106.786C86.5802 107.223 85.8785 107.842 85.0995 108.279C86.8741 104.627 88.7284 100.404 89.4678 96.3301C91.287 94.8083 93.4175 93.2623 95.3139 91.9228C95.9111 91.5626 96.5606 91.0728 97.1579 90.7127C99.7287 89.1952 102.558 87.7833 105.41 87.4365C104.392 89.5865 103.297 91.5542 102.15 93.6515L102.409 93.757ZM109.328 78.4718C108.049 81.2697 106.64 84.0148 105.102 86.7073C102.613 86.9004 100.199 88.0292 97.7851 89.1578C98.731 85.3189 99.2888 81.3218 99.3538 77.4257C101.621 73.6725 105.337 70.8111 108.662 68.5448C110.377 67.2821 112.35 66.1249 114.194 64.9149C113.375 69.5599 111.364 74.1717 109.38 78.3422L109.328 78.4718ZM117.361 48.1009C118.14 47.6639 118.919 47.227 119.827 46.8427C119.874 48.2197 119.688 49.8032 119.294 51.1516C118.821 53.0711 118.167 55.0673 117.435 56.8813C116.546 59.0841 115.71 61.1573 114.563 63.2546C112.823 64.2054 111.213 65.209 109.732 66.2653C110.675 63.1797 110.92 59.9601 111.111 56.87C111.114 56.1167 111.246 55.4161 111.196 54.7924C112.657 51.9176 114.79 49.6182 117.413 47.9712L117.361 48.1009ZM98.8368 69.37C100.246 66.6248 101.913 63.985 103.504 61.163C104.78 59.1184 106.057 57.0738 107.463 55.082C108.193 54.0212 109.051 53.0133 109.91 52.0053C109.853 53.6415 109.847 55.148 109.79 56.7842C109.571 60.3157 109.117 64.0537 107.965 67.6576C107.965 67.6576 107.731 67.8639 107.549 67.9408C104.77 69.9765 101.703 72.3482 99.4909 75.2185C99.466 74.9066 99.4935 74.4653 99.4686 74.1534C99.3443 72.5941 99.2199 71.0347 98.7846 69.4995C98.7846 69.4995 98.7845 69.4996 98.8368 69.37ZM92.3285 78.0336C93.1126 76.09 94.2077 74.1223 95.2506 72.2842C95.8504 71.1707 96.5797 70.1099 97.386 69.2314C97.386 69.2314 97.5155 69.2842 97.6449 69.3369C98.0032 70.6898 98.1797 72.1197 98.2269 73.4967C98.2492 74.5619 98.3237 75.4974 98.346 76.5626L98.2886 78.1987C98.042 82.1717 97.4843 86.1688 96.3566 90.0846C95.7594 90.4447 94.9805 90.8816 94.3309 91.3713C92.7207 92.3749 91.1877 93.5608 89.8363 94.6697C90.2098 91.5028 90.0383 88.5665 88.8814 85.8321C89.9267 83.2407 90.9721 80.6492 92.2763 78.1632L92.3285 78.0336ZM83.966 90.9204C84.9069 88.5881 85.9 86.1263 87.4356 84.1871C87.5898 84.5517 87.7963 84.7867 87.9506 85.1513C87.9506 85.1513 87.9506 85.1512 88.0277 85.3335C88.2591 85.8804 88.3612 86.3746 88.4632 86.8688C89.1274 89.7042 88.9355 92.7941 88.3554 95.726L88.0941 96.3738C88.0393 97.2567 87.8028 98.2165 87.4892 98.9939C86.4413 102.339 85.1868 105.448 83.6213 108.582C83.5269 105.828 83.0691 103.228 82.6114 100.628C82.3054 99.1451 81.9996 97.6627 81.5119 96.2571C82.2437 94.4431 82.9755 92.629 83.966 90.9204ZM79.8347 94.0652C80.5537 96.0176 81.0912 98.047 81.4992 100.024C82.2132 103.483 82.6932 107.148 82.6033 110.732C82.5708 112.68 82.3565 114.705 81.9607 116.807C81.0772 117.503 80.2461 118.07 79.3626 118.766C78.6511 114.554 77.4221 110.13 74.6326 107.334C75.1055 105.415 75.708 103.548 76.4398 101.734C77.4852 99.1427 78.324 96.3162 79.8347 94.0652ZM76.3634 124.333C75.8209 123.81 75.1491 123.235 74.6589 122.583C73.0067 120.703 71.8221 118.41 71.235 115.757C70.8519 114.092 70.6505 112.35 70.7079 110.714C70.7627 109.831 70.9469 109.001 71.054 107.989C71.1585 107.729 71.1886 106.535 71.3702 106.458C71.7858 106.175 72.7688 106.726 73.3112 107.249C73.3112 107.249 73.57 107.354 73.6994 107.407C73.6994 107.407 73.8289 107.46 73.9583 107.512C76.6955 110.438 77.6383 115.197 78.4019 119.28L78.3222 119.851C78.2177 120.11 78.2425 120.422 78.0857 120.81C77.6153 121.977 77.1449 123.143 76.545 124.256C76.545 124.256 76.5451 124.256 76.4157 124.204L76.3634 124.333ZM56.8885 181.574C65.7286 173.106 75.1359 165.473 84.9812 158.621C85.8647 157.925 86.8253 157.411 87.7088 156.715C84.7396 161.087 81.5116 165.354 78 169.204C74.7223 172.847 71.2903 176.126 67.7041 179.04C65.7031 180.639 63.6498 182.367 61.726 184.148C50.9647 193.644 40.7708 203.974 30.4997 214.122C29.0437 215.49 27.7173 216.911 26.4431 218.203C34.9898 204.486 45.4751 192.313 56.9408 181.444L56.8885 181.574ZM23.5196 209.016C27.306 192.907 31.5328 176.826 37.3124 161.378C40.0579 154.199 43.1144 146.996 47.0494 140.603C46.9448 140.862 47.1513 141.097 47.1761 141.409C47.3999 144.216 47.442 147.099 47.0436 149.954C45.7261 164.052 40.7802 178.18 35.7075 191.502C31.7599 201.661 27.3718 211.792 22.6477 221.635C21.5252 224.044 20.3255 226.271 19.203 228.68C20.4951 222.116 21.9165 215.604 23.5196 209.016ZM30.6444 109.932C35.4405 101.777 40.9111 93.4454 47.7228 87.0176C50.3484 84.6173 53.4668 82.1159 56.7866 81.3562C54.2056 85.8868 51.5474 90.2352 48.7599 94.5308C43.5756 102.527 38.0802 110.547 31.3456 117.157C29.0833 119.404 26.4056 121.934 23.474 122.851C25.6916 118.475 28.0908 114.021 30.6967 109.802L30.6444 109.932ZM47.2916 61.1944C48.2274 60.3687 49.422 59.6485 50.5892 59.3696C49.9097 61.0541 49.2301 62.7384 48.3441 64.1878C46.5446 67.5282 44.3296 71.1518 41.3157 73.3939C40.146 74.4261 38.8221 75.0937 37.3961 75.2671C38.205 73.6354 39.1956 71.9268 40.1339 70.3478C42.1922 67.1129 44.4843 63.6715 47.2916 61.1944ZM33.3044 82.0487C33.1252 81.3723 32.8167 80.6432 32.6375 79.9667C31.8688 77.3905 31.4634 74.6605 31.1351 72.1129C30.4313 65.6406 30.8176 58.7072 33.767 52.5163C34.4886 53.7155 35.1578 55.0442 35.5161 56.3971C37.1856 60.8489 37.4019 65.9155 36.737 70.9251C36.1021 74.7398 34.8451 78.6029 33.2521 82.1782L33.3044 82.0487ZM38.3376 65.0899C39.2784 62.7576 40.478 60.5307 41.5483 58.2511C42.4617 56.3602 43.4523 54.6515 44.6245 52.8661C45.3015 51.935 45.9015 50.8216 46.7078 49.9431C46.7053 50.6964 46.5209 51.5265 46.389 52.2271C45.8312 56.2242 44.3926 60.1642 42.6951 63.9987C40.8211 66.4034 39.2057 68.9136 37.7198 71.4765C38.1157 69.3747 38.2527 67.1675 38.208 65.0372L38.3376 65.0899ZM2.89608 153.694C2.46325 151.405 1.71923 149.141 1.52033 146.646C1.27172 143.527 1.33424 140.385 1.39669 137.242C1.62868 129.944 2.17183 122.622 3.02597 115.275C3.37464 111.797 3.72327 108.318 4.20134 104.892C5.09188 109.781 5.93014 114.799 6.63901 119.765C8.61389 133.544 9.73254 147.578 9.68417 161.891C9.71607 167.787 9.38475 173.838 8.79451 179.783C8.53061 181.184 8.39604 182.638 8.18442 183.91C6.68955 173.796 5.06535 163.63 2.94834 153.564L2.89608 153.694ZM-26.1529 183.499C-25.1094 173.816 -23.0804 163.931 -19.9392 154.65C-19.1684 164.318 -18.7088 174.01 -18.3014 183.831C-17.9935 192.405 -17.8672 201.056 -18.1814 209.678C-18.5205 217.989 -19.4045 226.53 -18.0065 234.643C-17.9817 234.955 -17.9569 235.266 -17.8798 235.449C-26.0959 220.334 -28.2098 201.67 -26.2823 183.446L-26.1529 183.499ZM-28.3217 234.815C-33.2339 231.306 -37.937 227.277 -42.3539 222.913C-50.0256 215.413 -57.2543 207.187 -63.938 198.731C-65.2543 197.139 -66.5183 195.417 -67.7052 193.878C-66.5655 194.04 -65.3238 194.697 -64.3408 195.248C-62.3749 196.351 -60.4614 197.583 -58.7294 198.892C-53.9467 202.349 -49.5546 206.402 -45.292 210.401C-36.6897 218.583 -28.4257 227.23 -20.5251 236.03C-18.95 237.728 -17.3749 239.426 -15.852 241.253C-20.3314 240.032 -24.5219 237.721 -28.2446 234.998L-28.3217 234.815ZM-4.52944 280.415C-4.89534 281.322 -5.26122 282.229 -5.57483 283.006C-5.20641 281.346 -4.96745 279.633 -4.67617 277.79C-4.7807 278.049 -4.57409 278.285 -4.62635 278.414C-4.57663 279.038 -4.47466 279.532 -4.42493 280.156L-4.52944 280.415ZM-8.95525 294C-9.16434 294.519 -9.16678 295.272 -9.24646 295.843C-9.69457 298.074 -10.0133 300.358 -10.5137 302.719C-11.6834 303.751 -12.6715 304.707 -13.8412 305.739C-12.2731 301.852 -10.6526 297.835 -8.82572 294.053L-8.95525 294ZM-22.4108 326.235C-20.0587 320.405 -17.7588 314.703 -15.4066 308.873C-14.3663 307.788 -13.1967 306.756 -12.1564 305.671C-11.8702 305.335 -11.4545 305.051 -11.2206 304.845C-11.589 306.505 -11.828 308.219 -12.1965 309.879C-15.7132 315.235 -19.1528 320.774 -22.5924 326.312L-22.4108 326.235ZM-5.34727 299.996C-6.91028 302.377 -8.42096 304.628 -9.98397 307.008C-9.82716 306.62 -9.74741 306.049 -9.72001 305.607C-9.45867 304.959 -9.45613 304.206 -9.27191 303.376C-7.86826 302.137 -6.41231 300.769 -5.00866 299.531C-5.06092 299.66 -5.11321 299.79 -5.21775 300.049L-5.34727 299.996ZM-7.31555 299.647C-7.9651 300.137 -8.48536 300.679 -9.18719 301.298C-8.39551 297.095 -7.65614 293.021 -6.86446 288.817C-6.08042 286.874 -5.3485 285.06 -4.43505 283.169C-4.13926 287.665 -3.84348 292.16 -3.85875 296.68C-5.02846 297.712 -6.32769 298.692 -7.4974 299.724L-7.31555 299.647ZM77.3159 264.274C85.2693 265.1 93.1902 267.874 99.1848 273.183C99.8566 273.759 100.347 274.411 101.019 274.986C97.8882 273.409 94.1055 273.075 90.6863 272.587C84.6242 271.928 78.4053 271.657 72.3406 271.751C60.1342 271.757 47.8482 272.334 35.6641 273.405C34.2381 273.578 32.7349 273.57 31.309 273.743C46.1812 267.129 62.0834 262.443 77.4975 264.197L77.3159 264.274ZM44.2974 264.702C42.4284 265.6 40.6367 266.681 38.7677 267.579C36.2492 268.967 33.86 270.407 31.3414 271.795C35.2738 266.155 39.5944 260.674 44.0692 255.557C48.2056 250.906 52.6007 246.36 57.5632 242.649C60.3954 240.483 63.5635 238.606 66.4728 236.623C68.9665 234.923 71.383 233.041 73.8518 231.03C74.9693 230.127 76.139 229.095 77.3087 228.063C76.0294 230.861 74.3618 233.5 72.7465 236.01C69.6728 240.642 66.2108 245.115 62.4652 249.172C58.7196 253.228 54.6903 256.867 50.5068 260.141C48.5058 261.74 46.3755 263.286 44.1681 264.649L44.2974 264.702ZM51.5146 261.004C55.6982 257.73 59.9091 254.014 63.6547 249.958C75.0305 242.674 87.2024 237.525 99.5759 234.117C108.214 231.752 117.031 230.064 125.793 229.258C126.416 229.21 127.038 229.162 127.53 229.061C115.926 235.045 104.062 240.923 92.0472 245.684C88.5954 247.144 85.0664 248.422 81.3833 249.335C80.5272 249.59 79.7234 249.715 78.8673 249.97C76.4807 250.657 73.9896 251.604 71.5508 252.42C64.6747 254.899 57.9006 257.873 51.2036 261.028L51.5146 261.004ZM121.028 258.999C107.572 260.608 93.9372 261.541 80.6458 260.501C74.7902 260.077 68.7805 259.288 63.3979 256.944C65.5779 256.022 67.9396 255.023 70.2491 254.153C73.2852 252.976 76.1397 251.876 79.2007 251.011C81.4579 250.271 83.7922 249.713 85.9971 249.103C91.4147 248.745 96.7802 248.517 102.17 248.601C111.993 248.529 121.97 248.822 131.421 251.164C134.994 252.016 139.215 253.132 141.77 256.135C134.924 257.419 128.106 258.262 121.287 259.105L121.028 258.999Z" fill="#CBC4B1"/>
<path d="M143.355 256.321C140.722 253.136 136.841 251.555 132.931 250.414C128.323 249.14 123.505 248.385 118.712 247.941C108.868 246.948 98.9935 247.149 89.0146 247.61L89.2184 248.598C96.6393 245.888 104.011 242.555 111.253 239.169C114.809 237.449 118.365 235.73 121.921 234.01C123.79 233.112 125.659 232.214 127.58 231.186C128.541 230.672 130.564 230.139 131.241 229.207C131.293 229.078 131.398 228.819 131.45 228.689C130.704 227.178 128.603 227.529 127.177 227.703C124.067 227.944 120.904 228.315 117.818 228.868C111.751 229.716 105.786 231.057 99.898 232.581C88.1993 235.811 76.8589 240.394 66.3942 246.541L67.1431 247.299C70.2391 243.732 72.9992 239.878 75.5005 235.918C76.5433 234.08 77.534 232.371 78.5769 230.533C78.995 229.497 79.4902 228.642 80.0378 227.658C80.2468 227.14 80.9238 226.209 80.8741 225.585C80.2896 222.179 76.0736 227.401 75.5534 227.944C71.9921 231.17 68.0701 233.796 64.0958 236.552C60.1214 239.308 56.4854 241.599 53.0286 244.566C49.5718 247.533 46.6327 250.711 43.6935 253.889C40.4681 257.402 37.4492 261.151 34.5597 264.953C33.2581 266.686 31.9564 268.418 30.6547 270.151C29.6393 271.548 28.7533 272.997 27.2726 274.054C18.2613 279.586 9.42902 285.794 1.19152 292.396L1.94039 293.153C19.3621 268.266 38.3092 244.453 58.3411 221.686C63.9607 215.225 69.6574 208.946 75.4063 202.537L74.7321 202.715C79.2858 204.872 84.6013 204.02 89.5012 203.452C95.2572 202.628 100.911 201.311 106.617 199.864C117.953 196.788 129.057 193.164 140.007 189.176C142.861 188.076 145.663 187.106 148.517 186.006C149.789 185.468 151.008 185.059 152.41 184.574C153.136 184.266 154.562 184.093 155.005 183.368C156.309 180.882 146.415 179.265 145.146 179.05C134.344 177.817 123.061 180.764 112.865 184.003C100.594 187.905 88.6809 193.16 77.3104 198.938L77.8777 199.772C88.2309 188.3 99.1265 177.35 110.152 166.452C112.882 163.793 115.612 161.133 118.29 158.603C119.564 157.312 120.915 156.203 122.137 155.041C123.125 154.086 124.27 152.742 125.465 152.022C126.114 151.532 127.358 151.435 128.085 151.128C128.941 150.873 129.849 150.489 130.758 150.105C132.393 149.413 134.028 148.721 135.663 148.029C138.803 146.593 141.867 144.975 144.647 142.939C145.712 142.166 150.259 138.738 148.942 137.145C148.323 136.44 146.715 136.691 146.093 136.739C144.097 136.831 142.126 137.235 140.233 137.821L140.8 138.656C143.194 135.709 145.588 132.761 147.44 129.291C148.144 127.919 151.27 123.157 149.486 121.978C147.702 120.798 144.457 122.494 142.847 123.497C139.86 125.298 137.389 128.063 135.152 130.622L136.057 130.991C136.063 129.484 135.555 126.26 133.427 127.053C132.571 127.307 131.608 128.575 131.036 129.247C130.125 130.384 129.343 131.575 128.639 132.947C127.178 135.822 126.182 139.037 125.316 142.305C124.87 143.783 124.606 145.185 124.29 146.715C124.106 147.546 123.999 148.558 123.815 149.388C123.658 149.777 123.862 150.765 123.653 151.283C123.548 151.543 122.588 152.057 122.302 152.393C121.6 153.012 120.898 153.631 120.144 154.38C118.506 155.825 116.998 157.323 115.49 158.821C112.76 161.48 110.03 164.14 107.3 166.799C101.84 172.118 96.4563 177.62 91.2026 183.174C69.5134 205.568 48.9091 229.007 29.442 253.363C23.9766 260.189 18.6406 267.067 13.3817 274.128C10.7785 277.593 8.12296 281.188 5.64908 284.707C4.34745 286.44 3.17524 288.225 1.8736 289.958C1.19665 290.889 0.467302 291.95 -0.20965 292.881C-0.886613 293.812 -1.40928 295.108 -2.29276 295.804L-1.38688 296.173C-1.47609 291.912 -1.69475 287.599 -1.91335 283.285C-2.16448 280.92 -0.939948 279.005 -0.0513598 276.802C0.837228 274.599 1.90739 272.32 2.92538 270.169C6.58172 261.852 10.5491 253.511 14.3349 245.247C16.2663 241.206 18.1977 237.165 20.1814 232.994C20.9655 231.051 22.0084 229.212 22.9218 227.321C23.34 226.285 23.8104 225.119 24.4873 224.187C25.2688 222.997 26.2568 222.042 27.2448 221.087C33.7976 214.553 40.3504 208.019 47.0326 201.539C53.2469 195.471 59.4613 189.403 66.0887 183.805C72.716 178.207 78.5644 173.046 83.7958 166.427C85.0451 164.824 86.2946 163.22 87.5963 161.488C88.221 160.686 88.7162 159.832 89.3932 158.901C90.0701 157.969 91.1627 156.755 91.4515 155.665C91.6606 155.147 91.5062 154.783 91.0408 154.442C90.2396 153.814 89.4085 154.381 88.759 154.87C81.5394 159.322 74.9395 164.478 68.4167 169.817C53.5518 182.016 40.2097 196.043 29.3236 211.825L30.2295 212.194C38.5002 195.799 47.0296 179.51 56.0767 163.432C60.5095 155.431 65.2009 147.536 69.8924 139.64C72.1075 136.017 74.3227 132.393 76.6149 128.952C77.0579 128.227 77.5282 127.061 78.1778 126.571C78.6456 126.158 79.2678 126.11 79.8899 126.061C81.5498 125.681 83.0033 125.067 84.5089 124.322C88.1696 122.344 91.7284 119.871 94.899 117.24C95.6008 116.62 97.6512 115.646 97.1885 114.552C96.6486 113.276 94.0581 112.975 93.0478 112.865L93.4335 113.776C94.8919 111.655 96.3504 109.533 97.55 107.306C98.2021 106.063 99.5037 104.331 97.7444 103.463L97.8191 104.398C100.783 101.533 102.764 98.1152 104.798 94.5684C105.893 92.6006 106.936 90.7624 107.901 88.7419C108.372 87.5757 108.581 87.0574 107.469 86.4533L107.777 87.1825C109.967 83.247 112.08 79.129 113.805 74.853C114.642 72.7797 115.426 70.8362 116.003 68.6575C116.292 67.5682 117.233 65.2357 116.77 64.1419L116.561 64.6602C117.497 63.8345 118.047 62.0973 118.465 61.0607C119.144 59.3762 119.824 57.6918 120.451 56.1368C121.549 53.4157 122.492 50.3299 122.191 47.3408C121.992 44.8458 119.631 45.845 118.125 46.5895C115.348 47.8719 113.138 49.9891 111.393 52.4466L112.299 52.8156C112.277 51.7504 112.593 50.2196 111.09 50.2108C109.457 50.1492 107.972 52.7122 107.061 53.8498C103.728 58.3761 100.861 63.2429 98.1234 68.1624L99.0565 68.0899C97.0684 65.9221 94.771 70.87 94.0667 72.2427C91.8764 76.1783 90.0744 80.2721 88.3495 84.5481L89.2828 84.4757C88.922 83.8761 88.4068 82.9119 87.5259 82.8547C86.4633 82.8744 85.9133 84.6116 85.5225 85.2068C83.8276 88.2881 82.4686 91.657 81.0324 94.8437L81.9656 94.7714C81.7093 93.9126 81.2741 92.3774 80.2638 92.2675C79.2535 92.1576 78.3922 93.919 78.0786 94.6965C75.9929 98.3729 74.8379 102.73 73.658 106.776L74.5141 106.521C73.3247 105.735 71.1772 104.709 70.6271 106.446C69.7385 108.649 69.8328 111.403 70.0839 113.768C70.6385 118.37 72.9299 122.773 76.5479 125.756L76.421 124.95C68.9969 136.258 62.1152 148.089 55.3629 159.973C48.6105 171.856 41.751 184.752 35.23 197.183L36.2653 197.605C41.5445 184.517 46.2814 170.907 48.7388 156.972C49.3463 153.599 49.6948 150.12 49.7847 146.536C49.7898 145.029 49.7428 143.652 49.6185 142.093C49.5439 141.157 49.4967 139.78 48.9294 138.945C47.4589 136.988 46.3613 139.709 45.5798 140.9C43.86 143.669 42.3466 146.674 40.9627 149.731C34.9319 162.813 30.79 176.817 27.0112 190.666C25.1741 197.461 23.4664 204.309 21.8881 211.21C21.0466 214.789 20.2824 218.552 19.441 222.131C18.7041 225.452 18.3029 229.061 17.4367 232.329C16.9114 234.378 15.8164 236.345 14.7735 238.184C13.9372 240.257 12.8943 242.095 11.9286 244.116C10.154 247.768 8.56112 251.343 6.91589 255.048C3.39151 262.665 -0.00357901 270.334 -3.39856 278.003L-2.38811 278.113C-2.53981 276.995 -2.76875 275.695 -2.79105 274.63C-2.83822 273.253 -2.44484 271.904 -2.18094 270.503C-1.68054 268.142 -1.30952 265.728 -0.938521 263.315C-0.119395 258.67 0.751874 253.895 1.571 249.25C3.26152 239.83 4.82265 230.358 6.2021 220.962C7.60641 211.879 8.8291 202.872 9.53415 193.654C10.2392 184.437 11.7207 175.535 13.5654 166.48C15.5148 157.166 17.723 147.957 20.0605 138.801C20.6903 136.493 21.32 134.184 21.7681 131.953C22.1091 130.734 22.398 129.645 22.739 128.426C23.1049 127.519 23.0851 125.7 23.7097 124.899C24.2821 124.227 25.0336 124.231 25.7603 123.924C26.487 123.616 27.2138 123.309 27.8633 122.819C29.4735 121.815 31.0064 120.63 32.4623 119.261C38.7538 113.376 43.9354 106.133 48.6243 98.9907C51.255 95.0837 53.7563 91.1241 56.076 87.2412C57.0665 85.5326 58.1093 83.6943 59.2293 82.0383C59.5429 81.2609 59.9337 80.6657 59.0279 80.2967C57.8633 79.8223 56.2806 80.3845 55.0612 80.7929C53.1674 81.3792 51.505 82.5123 49.972 83.6982C46.3087 86.4301 43.2126 89.9968 40.246 93.6161C34.1037 101.373 28.7876 110.07 24.3001 118.953L25.3352 119.375C27.3042 111.879 29.4028 104.437 31.5535 96.8639C32.5766 93.2072 33.5997 89.5503 34.8045 85.8168C35.7479 82.7311 37.2611 79.7266 38.0751 76.5882L37.4779 76.9484C43.9554 77.3244 48.2313 69.7124 50.8397 64.7402C51.2056 63.8331 51.7008 62.9787 52.1961 62.1244C52.5097 61.3469 53.1867 60.4157 53.2415 59.5328C53.3212 58.9618 53.2193 58.4678 52.6246 58.0746C50.4522 56.737 47.2816 59.3679 45.8257 60.736L46.627 61.3642C47.2543 59.8093 51.5454 47.6775 47.7878 47.6553C47.0363 47.6509 46.307 48.7116 45.7869 49.254C44.6943 50.4685 43.8605 51.7884 42.9745 53.2379C41.2024 56.1369 39.6892 59.1412 38.2531 62.3279L39.2633 62.4378C38.9848 60.5139 38.6541 58.7195 38.0122 56.9493C37.3703 55.179 36.42 52.6796 35.0514 51.2168C32.5457 48.8381 31.49 54.443 31.1738 55.9738C28.8663 63.9351 29.4827 73.2386 31.9953 81.2024C32.1745 81.8788 32.7418 82.7134 32.7915 83.3371C32.866 84.2727 32.1617 85.6454 31.9252 86.6051C31.1909 89.1725 30.4566 91.7399 29.7222 94.3073C28.3581 99.1829 26.9939 104.059 25.6298 108.934C23.0583 118.297 20.4869 127.659 18.1742 137.127C15.416 148.073 12.8395 158.942 10.6511 169.97L11.6614 170.08C12.093 157.431 11.4621 144.803 10.209 132.222C9.53017 126.062 8.72196 119.849 7.78435 113.583C7.22471 110.488 6.79453 107.446 6.15777 104.169C5.92894 102.869 5.88427 100.739 4.22697 100.365C4.09757 100.313 3.91597 100.39 3.68203 100.596C3.23901 101.321 3.3135 102.256 3.25867 103.139C3.12417 104.593 2.91258 105.865 2.77808 107.319C2.43193 110.044 2.16286 112.952 1.81672 115.678C1.25383 121.181 0.768172 126.868 0.593477 132.53C0.369068 137.568 0.0922919 142.736 0.930475 147.754C1.74124 153.214 3.09708 158.443 4.08952 163.826C5.08195 169.209 5.91762 174.981 6.85778 180.494C7.26316 183.224 7.92728 186.059 7.76281 188.708C7.59833 191.357 7.4587 194.317 7.24197 197.096C6.21817 208.597 4.18411 219.989 2.2794 231.434C0.163056 244.15 -2.13504 256.943 -4.38078 269.607L-3.31808 269.587C-4.51192 262.462 -6.19856 255.439 -9.10453 248.823C-10.2863 245.777 -12.0131 242.961 -13.6105 240.198C-15.4144 237.2 -15.8147 232.964 -16.0881 229.533C-16.6075 222.23 -15.8056 215.014 -15.5736 207.715C-15.3415 200.417 -15.3407 192.572 -15.7556 185.01C-16.1706 177.449 -16.5058 169.316 -16.9978 161.572C-17.1992 159.83 -17.2191 158.012 -17.4205 156.27C-17.495 155.334 -17.5695 154.399 -17.644 153.463C-17.6938 152.839 -17.5345 151.697 -17.8952 151.098C-18.1789 150.681 -18.9552 150.364 -19.4479 150.465C-20.4857 150.797 -20.5432 152.433 -20.8568 153.211C-25.6707 166.638 -27.949 181.25 -27.9976 195.563C-28.0735 210.317 -25.091 224.96 -17.4898 237.863L-16.6063 237.167C-24.5837 228.184 -32.7949 219.407 -41.3446 211.096C-45.6842 206.914 -50.2054 202.809 -54.9357 199.223C-57.1329 197.573 -59.4595 195.871 -61.8907 194.428C-63.4683 193.483 -66.2106 192.064 -68.3109 192.416C-69.7891 192.719 -68.6792 194.076 -68.1891 194.728C-66.3055 197.155 -64.422 199.582 -62.5384 202.009C-58.719 206.734 -54.795 211.199 -50.7417 215.717C-42.9957 224.153 -34.4459 232.464 -24.592 238.289C-22.1608 239.732 -19.7546 240.864 -17.0621 241.659C-16.5445 241.87 -15.793 241.874 -15.4571 242.162C-15.1212 242.449 -14.4244 243.337 -14.0636 243.936C-13.265 245.318 -12.5957 246.647 -11.9787 248.105C-9.61259 253.444 -7.97315 259.091 -6.69705 264.891C-6.03288 267.727 -5.00792 271.162 -5.3292 274.199C-5.65049 277.237 -6.41228 280.245 -6.99236 283.177C-7.25626 284.579 -7.3908 286.032 -7.7841 287.381C-8.20482 289.171 -9.19538 290.879 -9.8749 292.564C-10.9726 295.285 -12.1225 298.136 -13.3495 300.804C-14.5518 303.784 -15.4951 306.87 -17.7574 309.117C-19.7334 311.028 -21.5801 312.991 -23.4267 314.954C-27.5356 319.164 -31.3085 323.662 -35.0815 328.16C-42.5503 337.337 -49.3472 347.091 -55.3678 357.16C-55.9153 358.144 -57.9959 360.314 -56.9633 361.489C-55.7241 362.899 -55.0447 361.215 -54.4971 360.231C-51.5254 355.105 -48.2949 350.084 -44.9872 345.246C-38.4242 335.699 -31.1371 326.598 -23.1782 318.073C-21.0453 315.773 -18.9648 313.604 -16.7025 311.357L-17.5037 310.729C-18.9673 314.357 -20.3785 317.856 -21.8421 321.484C-23.3579 325.242 -24.615 329.105 -26.3896 332.757C-28.0074 336.021 -30.0656 339.255 -31.9422 342.414C-33.9234 345.831 -35.7751 349.301 -37.6269 352.771C-39.4786 356.241 -41.0965 359.505 -42.9483 362.975C-43.6278 364.659 -44.566 366.238 -45.3226 367.74C-45.6885 368.647 -46.0545 369.554 -46.5498 370.409C-46.8634 371.186 -47.8788 372.583 -47.8814 373.336C-47.8591 374.401 -46.5651 374.929 -45.811 374.18C-45.3954 373.896 -45.3928 373.143 -45.0543 372.678C-44.6884 371.771 -44.3225 370.863 -43.8272 370.009C-43.0432 368.065 -42.0527 366.357 -41.1393 364.466C-37.2516 356.696 -33.0528 348.901 -28.7769 341.289L-29.8119 340.868C-32.6868 347.994 -35.3029 355.226 -38.0484 362.406C-39.4597 365.904 -40.7415 369.456 -42.0757 373.137C-42.3893 373.914 -43.1709 375.104 -42.733 375.886C-42.4493 376.304 -41.7251 376.75 -41.2324 376.649C-40.3763 376.394 -40.2418 374.94 -39.9805 374.292C-39.1964 372.348 -38.4646 370.534 -37.81 368.538C-36.3464 364.91 -35.0645 361.359 -33.7303 357.678C-30.9849 350.498 -28.2395 343.319 -25.3647 336.192C-23.6921 332.046 -21.1135 328.268 -18.7939 324.385C-16.4742 320.502 -14.1299 316.931 -11.7331 313.231L-12.6388 312.862C-16.3858 332.608 -20.1328 352.355 -24.0614 372.178C-24.2979 373.138 -25.0022 374.51 -23.8899 375.114C-23.2952 375.507 -22.5959 375.641 -22.2823 374.864C-21.9687 374.087 -21.9387 372.892 -21.7545 372.062C-21.5951 370.919 -21.2541 369.701 -21.0948 368.559C-20.6715 366.015 -20.0665 363.395 -19.591 360.722C-17.6391 350.655 -15.7394 340.717 -13.7876 330.649C-12.7842 325.174 -11.781 319.699 -10.6482 314.276C-10.3843 312.875 -10.2747 311.109 -9.57029 309.737C-9.09987 308.57 -8.11186 307.615 -7.51203 306.502C-6.00133 304.251 -4.49064 301.999 -2.97992 299.748L-3.88564 299.379C-3.88957 315.823 -5.57819 332.334 -8.2249 348.606C-8.56849 350.578 -8.91218 352.551 -9.25577 354.523C-9.41513 355.665 -9.65166 356.625 -9.75875 357.637C-9.8907 358.338 -10.5427 359.581 -10.2342 360.31C-9.95311 361.481 -8.32075 361.542 -7.95486 360.635C-7.58897 359.728 -7.50657 358.404 -7.27008 357.444C-7.0336 356.484 -6.9788 355.601 -6.7423 354.642C-6.29419 352.41 -5.97544 350.126 -5.70898 347.972C-5.15122 343.975 -4.59355 339.977 -4.03578 335.98C-3.04963 327.933 -2.32219 319.78 -1.90589 311.652C-1.78858 307.626 -1.67124 303.601 -1.68333 299.522C-1.67822 298.016 -1.41687 297.368 -0.376576 296.283C0.325232 295.664 1.02705 295.044 1.67658 294.555C3.26188 293.239 4.84713 291.924 6.50955 290.79C12.8233 285.97 19.162 281.461 25.8365 277.241C26.6154 276.804 27.3172 276.184 28.0961 275.747C29.1861 275.286 30.3781 275.319 31.6223 275.222C33.6704 275.001 35.8478 274.832 37.973 274.792C42.0168 274.478 46.1901 274.217 50.1817 274.033C59.4091 273.568 68.6365 273.103 78.043 273.314C82.6816 273.393 87.2679 273.602 91.8267 274.253C94.2878 274.501 96.6966 274.879 99.078 275.698C100.113 276.12 101.096 276.671 102.054 276.911C102.442 277.069 102.701 277.174 103.064 277.021C103.298 276.814 103.403 276.555 103.326 276.373C102.788 274.343 100.126 272.353 98.5236 271.097C96.4557 269.5 94.154 268.11 91.7477 266.979C86.4698 264.376 80.5399 263.016 74.6845 262.592C62.6626 261.768 50.6802 264.58 39.4194 268.592L39.9867 269.427C43.1547 267.549 46.1934 265.619 49.4386 263.924C52.4498 262.435 55.5903 260.999 58.7309 259.562C59.5099 259.125 60.366 258.871 61.2743 258.486C62.1827 258.102 62.8048 258.054 63.7106 258.423C65.3156 258.926 66.8161 259.688 68.4734 260.061C71.8651 260.991 75.4137 261.531 78.9374 261.76C92.823 263.193 107.08 262.211 120.846 260.578C124.942 260.135 128.909 259.639 132.928 259.013C134.847 258.739 136.765 258.464 138.866 258.113C139.98 257.963 142.546 257.953 143.482 257.127C143.586 256.868 143.639 256.738 143.691 256.609L143.562 256.556C143.435 255.75 142.526 256.134 142.706 256.811L142.835 256.863C142.783 256.993 142.992 256.475 142.992 256.475C142.524 256.887 140.891 256.826 140.346 257.056C139.543 257.182 138.739 257.307 137.935 257.432C136.198 257.629 134.409 257.957 132.801 258.207C129.275 258.732 125.619 259.204 122.016 259.546C115.068 260.336 108.043 260.944 100.864 261.188C93.6843 261.431 86.4278 261.492 79.3033 260.853C75.5208 260.519 71.7134 259.873 67.9335 258.785C66.3285 258.282 64.828 257.52 63.3524 257.07C62.1878 256.595 61.018 257.628 59.7463 258.166C56.2424 259.755 52.7385 261.345 49.3117 263.118C45.8848 264.89 42.8462 266.82 39.6781 268.698C39.1331 268.928 39.7006 269.763 40.2456 269.532C50.832 265.698 62.3215 262.987 73.7487 263.418C79.2159 263.684 84.6805 264.703 89.8041 266.941C92.2627 267.943 94.6166 269.204 96.8661 270.724C97.7967 271.405 98.8568 272.138 99.7352 272.949C100.743 273.812 102.423 275.25 102.91 276.656L103.172 276.008C103.119 276.138 101.489 275.323 101.231 275.217C100.454 274.901 99.5485 274.532 98.6675 274.475C96.8808 274.049 94.9125 273.699 93.0735 273.403C89.2139 272.887 85.2497 272.629 81.2333 272.502C73.5115 272.223 65.7623 272.384 58.0903 272.729C50.4182 273.073 42.2533 273.519 34.2951 274.199C33.3619 274.271 32.4288 274.344 31.4956 274.416C30.6918 274.542 29.552 274.379 28.6959 274.634C27.2949 275.119 25.7096 276.435 24.4628 277.284C21.2425 279.292 18.0994 281.481 14.9562 283.671C11.8131 285.86 8.74698 288.232 5.68094 290.604C4.20018 291.66 2.79652 292.899 1.44517 294.008C0.146093 294.987 -1.64573 296.068 -2.27297 297.622C-2.74341 298.789 -2.3355 300.765 -2.41774 302.09C-2.50253 304.167 -2.45778 306.298 -2.54257 308.375C-2.65988 312.401 -2.85438 316.244 -3.23049 320.165C-3.80104 327.929 -4.73499 335.846 -5.74601 343.581C-6.30379 347.579 -6.86153 351.576 -7.73037 355.597C-7.96686 356.557 -8.02165 357.44 -8.25814 358.399C-8.46723 358.918 -8.89051 361.461 -8.72859 359.566C-8.56667 357.67 -8.04141 355.621 -7.69782 353.649C-4.60555 335.899 -2.65299 317.986 -2.59166 299.907C-2.56425 299.465 -3.15891 299.072 -3.49739 299.538C-4.66962 301.323 -5.97126 303.056 -7.14349 304.841C-8.26347 306.497 -9.8762 308.254 -10.6603 310.198C-11.3398 311.882 -11.3998 314.272 -11.8205 316.062C-12.3209 318.423 -12.6919 320.836 -13.1923 323.197C-14.96 332.435 -16.7799 341.802 -18.5475 351.039C-19.4438 355.502 -20.2628 360.147 -21.1591 364.61C-21.5549 366.711 -21.9508 368.813 -22.3466 370.915C-22.5308 371.745 -22.5634 373.693 -23.0064 374.418C-23.2155 374.936 -23.0065 374.418 -23.1608 374.054C-23.1582 373.3 -22.7922 372.393 -22.608 371.563C-20.7632 362.508 -19.0479 353.4 -17.3325 344.292C-15.2761 333.966 -13.3491 323.586 -11.4744 313.336C-11.2653 312.818 -12.171 312.449 -12.3801 312.967C-16.1059 318.842 -19.8316 324.717 -23.428 330.644C-27.0244 336.572 -28.9114 342.743 -31.2909 349.016C-33.9044 355.495 -36.259 362.079 -38.7431 368.61C-39.3704 370.165 -39.9976 371.72 -40.6249 373.275C-40.7294 373.534 -41.4363 375.66 -41.5657 375.608C-41.8768 375.632 -40.9883 373.429 -40.936 373.299C-39.6815 370.189 -38.5564 367.027 -37.4836 363.994C-34.6336 356.555 -31.8359 349.246 -28.9859 341.808C-28.7246 341.16 -29.6303 340.791 -30.021 341.386C-33.3064 347.289 -36.6439 353.322 -39.7227 359.461C-41.2883 362.595 -42.854 365.729 -44.4195 368.863C-44.7331 369.64 -45.0467 370.418 -45.4897 371.142C-45.6988 371.661 -46.2215 372.956 -46.4306 373.475C-47.0801 373.964 -46.3235 372.462 -46.0896 372.256C-45.7237 371.349 -45.3578 370.442 -44.8625 369.587C-41.913 363.396 -38.6526 357.181 -35.4443 351.095C-33.8017 348.144 -32.159 345.192 -30.5686 342.37C-28.9782 339.548 -26.8428 336.495 -25.4589 333.438C-22.273 326.287 -19.6046 318.925 -16.6775 311.669C-16.5207 311.28 -17.1927 310.705 -17.4789 311.041C-25.2536 318.736 -32.4336 326.825 -38.9418 335.488C-42.4037 339.962 -45.6591 344.671 -48.7851 349.432C-50.1141 351.606 -51.5203 353.598 -52.8493 355.772C-53.6308 356.963 -54.2307 358.076 -54.8828 359.319C-54.935 359.449 -55.8733 361.028 -55.9256 361.157C-56.4431 360.947 -55.2461 359.473 -55.0893 359.084C-49.3549 349.351 -43.0258 340.01 -35.8955 331.298C-32.5381 327.084 -28.922 322.975 -25.2288 319.048C-23.3821 317.085 -21.5355 315.121 -19.6889 313.158C-17.8945 311.324 -15.7641 309.778 -14.8233 307.446C-12.5757 301.874 -10.1987 296.355 -7.87398 290.965C-6.93313 288.633 -6.48495 286.402 -6.11394 283.988C-5.53388 281.056 -4.90158 277.994 -4.4509 275.01C-4.07989 272.596 -4.9257 269.837 -5.48789 267.496C-6.02267 264.713 -6.60974 262.06 -7.32619 259.354C-8.73423 254.255 -10.5056 249.309 -13.0036 244.67C-13.3121 243.941 -13.9044 242.794 -14.4468 242.271C-14.9893 241.749 -17.0099 241.529 -17.7863 241.213C-20.5037 240.106 -23.1687 238.869 -25.5475 237.296C-30.3575 234.281 -34.7767 230.67 -39.0143 226.982C-47.4372 219.477 -54.8198 210.887 -62.0208 202.22C-63.0011 200.915 -64.1631 199.688 -65.1434 198.383C-65.4271 197.966 -68.3185 194.676 -68.0845 194.469C-67.8232 193.821 -64.8223 195.346 -64.1753 195.609C-62.4932 196.294 -61.0971 197.316 -59.7011 198.337C-54.4781 201.823 -49.8275 205.981 -45.2292 210.268C-35.6194 219.313 -26.582 229.03 -17.8557 238.77C-17.4426 239.24 -16.6114 238.674 -16.9722 238.074C-30.4479 215.083 -29.2856 185.684 -22.1265 160.84C-21.6286 159.233 -21.1831 157.754 -20.6853 156.147C-20.3717 155.369 -20.2123 154.227 -19.6399 153.555C-19.4831 153.167 -19.6099 152.361 -18.8086 152.989C-18.6792 153.041 -18.7092 154.236 -18.7615 154.366C-18.4109 157.979 -18.2421 161.668 -18.021 165.229C-17.6309 172.478 -17.2409 179.728 -16.9802 186.926C-16.7195 194.123 -16.745 201.656 -16.9771 208.954C-17.2066 215.499 -17.8243 221.886 -17.6134 228.459C-17.4694 231.837 -17.0666 235.32 -16.1187 238.573C-15.1709 241.826 -12.9514 244.54 -11.588 247.51C-8.01014 254.701 -6.24897 262.66 -4.87601 270.461C-4.82629 271.085 -3.89305 271.013 -3.81336 270.441C-0.935278 254.716 1.7611 239.068 4.19873 223.314C5.39141 215.502 6.63642 207.561 7.38863 199.72C7.55056 197.825 7.7124 195.929 7.87432 194.034C8.03623 192.139 8.43218 190.037 8.28304 188.166C8.21102 186.477 7.82785 184.812 7.62644 183.07C7.27077 180.964 6.91505 178.858 6.68878 176.804C5.52234 169.238 4.35596 161.672 2.74907 154.077C1.95805 150.436 1.19184 147.106 1.15234 143.469C1.03572 139.65 1.23017 135.806 1.42461 131.963C1.81349 124.276 2.51349 116.565 3.5245 108.83C3.81582 106.987 4.10714 105.144 4.26906 103.249C4.26906 103.249 4.63488 102.342 4.19441 102.314C4.45321 102.419 4.73442 103.589 4.75928 103.901C5.09265 104.942 5.11485 106.008 5.39595 107.178C6.05757 110.767 6.71928 114.356 7.19924 118.021C9.83551 135.39 11.2523 153.166 10.5191 170.67C10.5688 171.294 11.3976 171.481 11.5296 170.78C15.0623 153.059 19.553 135.577 24.3025 118.2C26.6126 109.485 29.1044 100.694 31.7256 91.9552C32.3031 89.7765 32.9577 87.7802 33.5353 85.6015C33.7444 85.0832 34.0058 84.4353 33.9038 83.9411C33.8541 83.3174 33.3639 82.6651 33.1325 82.1182C31.7468 78.0836 31.14 73.6119 30.9214 69.2984C30.6531 64.3612 31.1114 59.1167 32.9931 54.4519C33.359 53.5449 33.7025 51.5726 34.76 53.0595C35.4044 54.0764 35.9966 55.2228 36.4594 56.3166C37.3849 58.5041 37.9471 60.8453 38.1982 63.2107C38.3002 63.7049 38.9995 63.839 39.2086 63.3207C41.1923 59.1501 43.0988 54.7971 45.8838 51.2547C46.0406 50.866 46.9514 49.7285 47.2625 49.7044C47.8846 49.6561 47.9841 50.9034 47.9567 51.3449C47.979 52.4101 47.6902 53.4995 47.5831 54.512C47.1598 57.0552 46.4007 59.3106 45.5892 61.6957C45.4324 62.0845 45.9226 62.7369 46.3905 62.324C47.1968 61.4456 48.1325 60.6197 49.2225 60.1585C50.1831 59.6447 52.2586 58.9816 51.8901 60.642C51.6014 61.7313 50.9493 62.9744 50.454 63.8287C49.8791 65.2541 49.0453 66.5739 48.2638 67.7642C45.9964 71.5175 42.5321 76.7444 37.5054 76.5069C37.376 76.4542 37.0126 76.6079 36.908 76.8671C35.9646 79.9528 34.5559 82.6981 33.7419 85.8366C32.6665 89.6229 31.5911 93.4091 30.3863 97.1427C28.2878 104.586 26.1894 112.029 24.1681 119.654C23.9067 120.302 24.8126 120.671 25.2033 120.076C29.2727 112.229 33.8597 104.593 39.1185 97.5318C41.7218 94.0663 44.4544 90.6535 47.6001 87.7107C48.8221 86.5489 50.1735 85.4399 51.6543 84.3835C53.135 83.3272 55.7056 81.8098 57.5969 81.9768C58.3484 81.9812 58.1668 82.0581 57.9054 82.706C57.6963 83.2243 57.3579 83.6899 57.0195 84.1555C56.5242 85.0098 56.0288 85.864 55.5336 86.7184C54.2568 88.763 53.1616 90.7308 51.9371 92.6459C49.5926 96.2169 47.196 99.9175 44.7221 103.436C40.0606 110.136 34.8787 117.379 28.0474 121.989C27.2162 122.555 26.3851 123.122 25.4768 123.506C24.5684 123.891 23.5581 123.781 23.0902 124.194C22.1545 125.019 21.9128 127.486 21.5718 128.705C20.5213 132.803 19.4186 137.031 18.3681 141.129C16.1874 149.896 14.0589 158.534 12.2664 167.46C10.5536 175.814 9.09953 184.274 8.34476 192.868C7.61484 201.774 6.62609 210.574 5.32632 219.398C3.86717 229.365 2.14934 239.226 0.431407 249.087C-0.415133 254.174 -1.39119 259.208 -2.23773 264.294C-2.66099 266.837 -3.0841 269.381 -3.5845 271.742C-3.82099 272.701 -4.05766 273.661 -4.16475 274.674C-4.247 275.998 -3.81161 277.533 -3.63506 278.963C-3.53307 279.457 -2.83375 279.591 -2.62467 279.073C2.88597 266.533 8.70758 253.968 14.477 241.533C15.7563 238.735 17.7102 235.759 18.2903 232.827C18.8455 229.583 19.4778 226.522 20.1624 223.331C21.5068 216.636 23.0328 209.865 24.6883 203.147C27.9469 189.84 31.5937 176.691 36.328 163.835C38.5259 157.639 40.9825 151.549 44.0861 145.723C44.895 144.091 45.7041 142.459 46.8489 141.115C47.5259 140.184 47.8369 140.16 48.1429 141.642C48.2697 142.448 48.2671 143.202 48.4462 143.878C48.7196 147.309 48.4233 150.658 47.9974 153.954C46.0028 168.983 40.7955 183.759 35.1504 197.754C34.889 198.402 35.7949 198.771 36.1856 198.175C42.5249 185.822 49.1231 173.574 55.9277 161.561C62.7323 149.547 69.6662 137.587 77.1427 126.149C77.2472 125.89 77.3517 125.631 77.0158 125.343C74.2761 123.171 72.3429 120.12 71.4473 116.738C70.9348 115.02 70.7856 113.149 70.7659 111.331C70.8207 110.448 70.8755 109.565 71.0598 108.735C71.3759 107.204 72.4137 106.872 73.7325 107.711C73.9913 107.817 74.3795 107.975 74.5886 107.456C75.3752 104.759 76.1619 102.063 77.2596 99.3415C77.7823 98.0457 78.3049 96.75 78.957 95.5069C79.1661 94.9886 79.5843 93.952 80.2064 93.9037C80.8286 93.8554 80.9802 94.9734 81.0822 95.4675C81.2365 95.8321 81.8586 95.7838 82.0154 95.395C82.904 93.1922 83.9219 91.0421 84.9399 88.8921C85.3581 87.8554 85.7763 86.8188 86.4533 85.8877C86.5578 85.6285 87.0281 84.4624 87.3915 84.3087L87.4961 84.0494C87.9614 84.3899 88.2451 84.8072 88.3993 85.1718C88.5536 85.5364 89.1756 85.4882 89.3324 85.0994C90.4824 82.2487 91.6322 79.3981 93.041 76.6528C93.3546 75.8753 97.5534 68.081 98.2501 68.9684C98.586 69.2561 98.8971 69.2319 99.1833 68.8959C100.983 65.5555 102.964 62.1383 105.022 58.9033C105.908 57.4538 106.871 56.1866 107.887 54.7898C108.459 54.1178 108.902 53.393 109.604 52.7737C109.918 51.9963 110.592 51.8183 111.291 51.9524C111.187 52.2115 111.289 52.7056 111.314 53.0175C111.286 53.459 111.881 53.8521 112.219 53.3865C113.573 51.5241 115.186 49.7673 117.212 48.4804C117.809 48.1202 119.472 46.9872 120.352 47.0443C121.855 47.0532 121.303 49.5437 121.014 50.633C120.566 52.8644 119.859 54.9903 119.023 57.0635C118.552 58.2297 118.03 59.5254 117.559 60.6916C117.193 61.5986 116.72 63.5182 115.966 64.2671C115.862 64.5263 115.809 64.6559 115.757 64.7854C115.988 65.3323 115.414 66.7576 115.282 67.4582C114.993 68.5475 114.704 69.6369 114.415 70.7262C113.684 72.5403 112.952 74.3545 112.22 76.1685C110.704 79.9263 108.8 83.5258 106.819 86.943C106.714 87.2022 106.921 87.4372 107.127 87.6723C107.904 87.9886 103.265 95.7543 102.769 96.6086C101.231 99.3011 99.4866 101.759 97.2767 103.876C96.9905 104.212 96.9629 104.653 97.3511 104.811C98.2569 105.18 93.1524 112.606 92.6571 113.46C92.5003 113.849 92.6023 114.343 93.0427 114.371C93.6126 114.453 96.203 114.754 96.1234 115.325C95.9666 115.713 94.2518 116.976 93.8885 117.13C92.3555 118.316 90.6409 119.579 88.9785 120.712C86.0693 122.695 82.926 124.884 79.2703 125.356C77.6627 125.607 77.8967 125.4 76.9336 126.667C75.8659 128.194 74.9276 129.773 73.8599 131.299C71.6448 134.923 69.482 138.417 67.2669 142.041C58.5882 156.459 50.3749 171.217 42.4204 186.081C37.908 194.653 33.3432 203.354 29.0896 212.031C28.8806 212.55 29.6046 212.996 29.9954 212.4C39.6569 198.534 51.1798 186.029 63.8124 174.881C69.8948 169.514 76.2608 164.564 82.8333 159.849C84.4957 158.716 86.1582 157.582 87.8206 156.449C88.1839 156.296 89.5876 155.057 89.8464 155.162C90.4933 155.426 88.9055 157.495 88.6193 157.831C86.3271 161.272 83.8283 164.479 81.2001 167.632C75.7622 174.017 69.4735 179.149 63.2094 184.593C56.9454 190.037 50.4971 196.312 44.2828 202.38C38.0685 208.448 32.2698 214.232 26.2894 220.094C25.5354 220.843 24.6519 221.539 24.0272 222.34C23.4548 223.012 23.141 223.79 22.8274 224.567C22.0434 226.511 21.0007 228.349 20.1395 230.11C18.2603 234.022 16.3812 237.933 14.4498 241.974C10.221 250.964 5.93998 260.082 1.97002 269.177C1.08144 271.38 0.0111172 273.659 -1.00687 275.809C-1.68639 277.494 -3.14475 279.615 -2.99561 281.486C-2.62276 286.165 -2.30223 290.972 -2.24044 295.674C-2.26784 296.116 -1.6979 296.197 -1.33456 296.043C-0.451081 295.347 0.071588 294.051 0.748551 293.12C1.76397 291.723 2.59765 290.404 3.61307 289.007C5.40999 286.42 7.15472 283.962 9.02878 281.557C12.752 276.436 16.4229 271.444 20.2232 266.505C27.8762 256.497 35.7359 246.724 43.8019 237.186C59.8047 218.057 76.427 199.634 93.7211 181.786C103.786 171.402 114.109 161.124 124.845 151.316C124.897 151.187 125.002 150.928 125.054 150.798C124.927 149.992 125.216 148.903 125.4 148.073C125.612 146.801 125.876 145.4 126.087 144.128C126.64 141.638 127.27 139.329 128.081 136.944C128.97 134.742 129.858 132.539 131.212 130.676C131.889 129.745 132.723 128.425 133.813 127.964C135.266 127.349 135.284 129.921 135.411 130.727C135.512 131.221 136.082 131.303 136.316 131.096C138.086 128.95 140.114 126.91 142.297 125.235C143.362 124.462 147.933 121.345 149.068 123.015C149.506 123.797 148.072 126.23 147.759 127.007C147.184 128.433 146.35 129.753 145.568 130.943C144.005 133.324 142.313 135.651 140.362 137.874C140.205 138.263 140.436 138.81 140.929 138.709C142.278 138.353 143.756 138.05 145.234 137.747C146.038 137.622 146.66 137.573 147.412 137.578C148.034 137.53 148.268 137.323 148.318 137.947C148.29 138.388 147.718 139.06 147.432 139.396C145.324 142.008 142.026 143.833 139.144 145.374C136.262 146.916 133.356 148.146 130.372 149.193C128.919 149.808 127.13 150.135 125.806 150.803C124.845 151.317 123.882 152.584 122.998 153.28C113.041 162.651 103.29 172.257 93.9276 182.021C88.4922 187.652 83.0569 193.283 77.8803 199.019C77.5941 199.355 78.0842 200.007 78.4476 199.854C87.5858 195.128 97.137 190.872 106.815 187.422C116.493 183.972 126.818 180.786 137.265 179.913C142.682 179.555 148.384 179.615 153.455 181.982C155.137 182.668 154.644 182.769 153.243 183.254C151.972 183.792 150.7 184.33 149.351 184.686C146.679 185.709 144.187 186.656 141.515 187.679C131.239 191.489 120.81 194.934 110.278 197.885C104.649 199.515 98.9428 200.962 93.1346 201.915C87.6374 202.843 81.2318 204.156 76.0311 201.736C75.7723 201.63 75.5907 201.707 75.3567 201.913C54.9117 224.211 35.3451 247.319 17.1222 271.578C11.9157 278.509 6.83852 285.493 1.89075 292.53C1.68168 293.048 2.17177 293.7 2.63964 293.287C9.34413 287.872 16.3846 282.744 23.6564 278.163C26.0978 276.593 29.3678 275.209 30.9308 272.828C33.4569 269.181 36.0602 265.715 38.7929 262.302C44.2582 255.477 49.9824 248.756 56.8163 243.393C63.6502 238.03 71.0239 233.944 77.5741 228.163C78.2759 227.544 78.9007 226.742 79.5502 226.253C80.1475 225.893 80.3043 225.504 80.3017 226.257C80.3515 226.881 79.6745 227.812 79.4654 228.33C78.4474 230.481 77.2999 232.578 76.0232 234.622C73.4173 238.841 70.4756 242.773 67.2751 246.598C66.8072 247.011 67.4792 247.587 68.0242 247.356C80.8256 239.898 94.8114 234.733 109.335 231.598C112.784 230.891 116.181 230.313 119.707 229.789C123.233 229.264 126.993 228.533 130.387 228.709C130.387 228.709 131.321 228.636 131.293 229.078C131.268 228.766 130.801 229.179 130.801 229.179C130.022 229.616 129.113 230 128.334 230.437C126.647 231.258 124.96 232.08 123.402 232.954C119.975 234.726 116.471 236.316 113.096 237.959C105.621 241.551 98.0679 244.962 90.1542 247.772C89.6092 248.003 89.7361 248.809 90.3582 248.761C99.715 248.348 108.967 248.195 118.294 248.977C122.646 249.393 127.128 249.861 131.53 250.9C135.932 251.939 140.747 253.448 143.664 257.05C144.077 257.52 144.908 256.954 144.547 256.354L143.355 256.321Z" fill="#CBC4B1"/>
<path d="M135.561 133.272C137.383 130.997 139.281 128.905 141.386 127.047C143.257 125.396 145.387 123.85 147.798 123.475L147.179 122.77C146.128 126.867 143.498 130.773 140.947 134.109C140.323 134.91 139.698 135.712 139.074 136.513C138.397 137.444 137.825 138.116 136.864 138.63C135.048 139.398 133.361 140.219 131.569 141.3L132.37 141.928C133.127 140.426 133.831 139.054 134.458 137.499C134.72 136.851 135.033 136.074 135.165 135.374C135.27 135.114 135.427 134.726 135.402 134.414C135.402 134.414 135.561 133.272 135.509 133.402C136.106 133.042 135.41 132.155 134.812 132.515C134.449 132.668 134.447 133.422 134.342 133.681C134.106 134.64 133.869 135.6 133.503 136.506C132.824 138.191 132.144 139.875 131.258 141.324C131.049 141.842 131.644 142.235 132.059 141.952C133.072 141.309 134.085 140.665 135.174 140.204C135.953 139.767 137.068 139.618 137.847 139.181C138.625 138.744 139.173 137.76 139.745 137.088C140.422 136.157 141.176 135.409 141.853 134.478C144.404 131.142 147.034 127.236 148.137 123.009C148.293 122.621 148.01 122.204 147.517 122.305C144.977 122.627 142.718 124.12 140.847 125.772C138.508 127.836 136.427 130.005 134.554 132.409C134.163 133.004 134.964 133.632 135.355 133.037L135.561 133.272Z" fill="#CBC4B1"/>
<path d="M130.595 144.82C135.041 140.897 141.061 138.672 146.92 138.343L146.3 137.638C144.267 141.186 140.113 143.265 136.685 145.038C133.258 146.81 129.443 148.424 125.602 149.727L126.17 150.561C127.653 148.752 129.189 146.812 130.466 144.767C130.727 144.119 130.055 143.544 129.665 144.139C128.388 146.184 126.904 147.994 125.368 149.933C125.03 150.399 125.572 150.922 125.936 150.768C129.958 149.389 134.084 147.75 137.927 145.695C141.355 143.922 145.12 141.684 147.154 138.137C147.311 137.748 146.975 137.46 146.534 137.432C140.494 137.838 134.292 140.139 129.665 144.139C129.197 144.552 129.764 145.386 130.361 145.026L130.595 144.82Z" fill="#CBC4B1"/>
<path d="M127.46 141.732C128.72 137.117 130.318 132.038 134.137 128.918L133.231 128.549C134.126 131.93 132.921 135.662 131.356 138.794C130.624 140.608 129.582 142.445 128.256 143.866C127.163 145.08 126.071 146.294 125.056 147.69L125.961 148.059C126.357 145.958 126.806 143.727 127.383 141.55C127.644 140.902 126.61 140.481 126.348 141.128C125.771 143.306 125.323 145.536 124.822 147.896C124.665 148.285 125.518 148.783 125.728 148.265C126.223 147.411 126.847 146.61 127.472 145.809C128.096 145.007 128.927 144.441 129.475 143.457C130.413 141.879 131.351 140.3 132.212 138.54C133.777 135.407 134.982 131.675 134.01 128.112C133.856 127.748 133.52 127.46 133.105 127.744C129.181 131.122 127.454 136.149 126.09 141.023C125.828 141.671 126.863 142.092 127.124 141.444L127.46 141.732Z" fill="#CBC4B1"/>
<path d="M95.5397 192.809C104.627 188.964 113.921 185.355 123.444 183.046C132.967 180.738 143.525 178.851 152.535 182.673L152.46 181.737C140.258 186.576 127.773 190.998 115.056 194.874C108.697 196.811 102.391 198.619 95.8528 199.88C92.7134 200.563 89.4967 201.064 86.3324 201.435C82.8568 201.83 79.1224 202.12 75.7815 201.061L75.8562 201.997C82.2199 198.552 88.8673 195.524 95.4625 192.627C96.0078 192.396 95.6742 191.354 95.0767 191.715C88.3521 194.56 81.834 197.64 75.4703 201.085C75.1068 201.238 75.1042 201.992 75.5449 202.021C81.709 203.928 88.8443 202.307 94.8891 201.148C101.245 199.964 107.499 198.285 113.676 196.425C126.886 192.449 140.047 187.848 152.846 182.648C153.21 182.495 153.16 181.871 152.772 181.712C143.71 178.02 132.944 179.672 123.785 181.827C113.951 184.16 104.346 187.793 95.0767 191.715C94.5315 191.945 94.865 192.987 95.4625 192.627L95.5397 192.809Z" fill="#CBC4B1"/>
<path d="M94.3962 114.1C91.8226 116.371 89.0948 118.277 86.2375 120.131C83.7436 121.831 80.9908 123.425 78.034 124.031L78.6014 124.866C79.4352 123.546 80.2442 121.914 80.431 120.33L80.2741 120.719C82.1981 118.938 84.4581 117.444 86.7952 116.133C89.1323 114.822 92.012 114.034 94.7048 114.829C95.3519 115.093 95.7701 114.056 95.123 113.792C91.6536 112.681 87.8904 114.165 84.7742 115.913C83.2162 116.788 81.7353 117.844 80.3838 118.953C80.1498 119.16 79.5524 119.52 79.3956 119.909C79.2911 120.168 79.2637 120.609 79.2363 121.051C78.9475 122.14 78.3476 123.254 77.9294 124.291C77.7726 124.679 77.8746 125.174 78.4968 125.125C81.583 124.572 84.3358 122.978 86.8297 121.278C89.8687 119.347 92.7011 117.181 95.4042 114.963C95.8721 114.55 95.3048 113.715 94.7074 114.076L94.3962 114.1Z" fill="#CBC4B1"/>
<path d="M94.7099 106.239C94.0578 107.482 93.224 108.802 92.4425 109.992C92.1812 110.64 91.6089 111.312 91.2181 111.907C91.1136 112.166 90.9044 112.685 90.541 112.838C90.4888 112.968 90.0485 112.939 89.8668 113.016C87.4554 113.392 85.0936 114.391 83.0156 115.807L83.9213 116.176C83.9238 115.423 84.1081 114.593 84.1629 113.71C84.3197 113.321 84.2178 112.827 84.2452 112.386C84.2726 111.944 84.3249 111.815 84.6111 111.479C85.7808 110.446 87.0275 109.597 88.2744 108.747C90.7157 107.176 93.2592 106.1 96.0339 105.571L95.4144 104.866C95.2053 105.385 94.944 106.032 94.7349 106.551C94.4735 107.199 95.3792 107.568 95.77 106.972C95.9791 106.454 96.2404 105.806 96.4494 105.288C96.6063 104.899 96.3227 104.482 95.8299 104.583C93.0029 105.242 89.9669 106.419 87.4732 108.118C86.0447 109.045 84.7456 110.025 83.5236 111.186C82.8741 111.676 83.001 112.482 83.1278 113.288C83.0207 114.301 82.9136 115.313 82.8065 116.326C82.6496 116.714 83.2966 116.978 83.7122 116.695C84.9067 115.974 86.2307 115.307 87.4501 114.898C88.1245 114.72 88.7991 114.543 89.4735 114.365C89.9662 114.264 90.6654 114.398 91.081 114.114C91.4967 113.831 91.8101 113.054 92.1486 112.588C92.5394 111.993 92.9825 111.268 93.3733 110.673C94.1548 109.483 94.9885 108.163 95.6406 106.92C95.902 106.272 94.9961 105.903 94.6054 106.498L94.7099 106.239Z" fill="#CBC4B1"/>
<path d="M102.086 93.5674C100.053 97.1138 98.0193 100.66 94.8491 103.291C94.3813 103.704 93.7593 103.752 93.085 103.93C92.0474 104.261 91.1915 104.516 90.231 105.03C88.3623 105.928 86.5706 107.008 84.9084 108.141L85.7096 108.769C86.9614 106.413 87.9022 104.081 88.7659 101.567C89.2363 100.401 89.5251 99.3118 89.8661 98.0931C90.1274 97.4453 90.1548 97.0038 90.6749 96.4614C91.195 95.9191 91.7921 95.5589 92.4416 95.0692C96.3383 92.1311 100.909 89.0154 105.913 88.1876L105.294 87.4826C104.328 89.5028 103.233 91.4704 102.086 93.5674C101.824 94.2152 102.626 94.8433 102.887 94.1955C104.034 92.0984 105.181 90.0014 106.199 87.8516C106.356 87.4629 106.073 87.0458 105.58 87.1468C100.628 87.845 96.0573 90.9608 92.0312 93.8461C91.1478 94.5422 89.6425 95.2867 89.095 96.2704C88.9382 96.6591 88.6768 97.3068 88.7787 97.8009C88.4652 98.5783 88.4103 99.4609 88.0967 100.238C87.2579 103.064 85.9015 105.68 84.8039 108.4C84.5948 108.919 85.1896 109.312 85.6051 109.029C87.5012 107.689 89.345 106.479 91.4725 105.687C92.3807 105.302 93.4182 104.971 94.4036 104.769C95.0779 104.591 95.5457 104.178 96.0658 103.636C98.925 101.029 100.906 97.6123 102.887 94.1955C103.148 93.5477 102.347 92.9197 102.086 93.5674Z" fill="#CBC4B1"/>
<path d="M108.956 78.425C108.433 79.7204 107.729 81.0928 107.077 82.3355C106.816 82.9832 106.554 83.6311 105.982 84.303C105.41 84.9749 105.25 86.1165 104.653 86.4766C104.238 86.7599 103.357 86.7029 102.812 86.9334C102.267 87.164 101.775 87.2649 101.282 87.3659C100.063 87.7743 98.9209 88.3649 97.7266 89.0851L98.3981 89.6604C99.0031 87.041 99.4788 84.3687 99.825 81.6439C99.9844 80.5021 99.7307 78.8905 100.201 77.7246C100.671 76.5587 101.789 75.6563 102.595 74.778C106.001 71.1881 110.468 68.3314 114.7 65.6812L113.794 65.3123C113.027 69.8267 111.069 74.3081 109.085 78.4777C108.824 79.1255 109.73 79.4943 110.12 78.8993C112.156 74.6001 114.114 70.1188 114.986 65.3453C115.143 64.9567 114.496 64.6932 114.08 64.9765C109.719 67.574 105.071 70.5074 101.56 74.3564C100.754 75.2347 99.5322 76.3962 99.0618 77.5621C98.6437 78.5985 98.8723 79.8983 98.8423 81.0928C98.5731 83.9999 98.0453 86.8016 97.5175 89.6033C97.3607 89.9919 97.9552 90.3851 98.1891 90.1787C99.5127 89.5112 100.836 88.8436 102.237 88.3584C102.964 88.051 103.767 87.9259 104.571 87.8007C104.882 87.7765 105.322 87.8051 105.608 87.4691C106.024 87.1859 106.208 86.3558 106.547 85.8903C106.86 85.1131 107.303 84.3886 107.746 83.664C108.503 82.1622 109.311 80.5306 110.068 79.0288C110.329 78.381 109.424 78.0122 109.033 78.6072L108.956 78.425Z" fill="#CBC4B1"/>
<path d="M117.664 48.65C118.443 48.2131 119.222 47.7761 119.948 47.4687L119.172 47.1526C119.341 50.8411 117.721 54.8568 116.362 58.2248C116.048 59.002 115.682 59.9089 115.369 60.6861C115.055 61.4633 114.585 62.6292 114.065 63.1715C113.545 63.7138 112.507 64.0454 111.858 64.535C111.027 65.1015 110.248 65.5385 109.417 66.105L110.218 66.7328C111.084 63.4658 111.563 60.0407 111.73 56.6398C111.76 55.4454 112.021 54.7977 112.621 53.6845C113.012 53.0895 113.455 52.365 113.975 51.8227C115.119 50.479 116.289 49.4471 117.717 48.5205C118.314 48.1604 117.617 47.2734 117.02 47.6335C115.592 48.5601 114.423 49.5919 113.33 50.8061C112.472 51.8139 111.093 53.3641 110.7 54.7121C110.387 55.4894 110.59 56.4773 110.536 57.3599C110.428 58.372 110.374 59.2547 110.266 60.2668C110.052 62.2911 109.709 64.2629 109.106 66.1291C108.897 66.6473 109.492 67.0402 109.907 66.7569C110.79 66.0609 111.751 65.5471 112.711 65.0333C113.308 64.6733 114.398 64.2122 114.918 63.6698C115.49 62.998 115.831 61.7796 116.197 60.8728C116.563 59.966 116.981 58.9298 117.347 58.023C118.81 54.3959 120.378 50.5096 120.133 46.6388C120.237 46.3797 119.72 46.169 119.356 46.3227C118.448 46.7069 117.67 47.1438 116.839 47.7103C116.241 48.0704 116.938 48.9574 117.535 48.5973L117.664 48.65Z" fill="#CBC4B1"/>
<path d="M99.2358 69.6498C100.93 66.5694 102.807 63.4121 104.631 60.3843C106.35 57.6156 108.07 54.8469 110.254 52.4185L109.349 52.0497C109.358 56.88 109.056 61.7345 107.797 66.3497C107.588 66.8678 107.483 67.1269 107.274 67.6451C106.859 67.9283 106.391 68.3411 105.975 68.6244C105.144 69.1908 104.443 69.8101 103.559 70.5061C101.974 71.8213 100.467 73.3187 99.1653 75.051L100.071 75.4198C100.156 73.3428 99.8773 71.4195 99.4174 69.573L99.2084 70.091C99.7284 69.5487 99.1614 68.7144 98.5643 69.0745C97.8626 69.6937 98.5067 70.7103 98.6334 71.5161C98.8621 72.8159 98.9615 74.063 99.0085 75.4397C98.9811 75.881 99.6801 76.0149 99.914 75.8085C101.449 73.8698 103.191 72.1659 105.139 70.697C105.841 70.0778 106.672 69.5113 107.503 68.9448C108.386 68.2488 108.491 67.9898 108.832 66.7712C110.221 62.2087 110.445 57.172 110.384 52.4712C110.411 52.0299 109.817 51.6369 109.478 52.1023C107.112 54.6076 105.34 57.5058 103.569 60.404C101.797 63.3022 99.9726 66.33 98.278 69.4104C98.0166 70.0582 98.9222 70.427 99.3129 69.832L99.2358 69.6498Z" fill="#CBC4B1"/>
<path d="M92.8553 78.3462C94.239 75.2898 95.6749 72.1039 97.8596 69.6755L97.0561 69.8006C97.4442 69.9587 97.4141 71.1531 97.4389 71.4649C97.4886 72.0884 97.5383 72.7121 97.588 73.3357C97.7396 74.4533 97.7096 75.6476 97.6795 76.8421C97.5698 78.6074 97.5123 80.2431 97.3503 82.1379C97.1386 83.4092 96.9792 84.5511 96.7675 85.8224C96.5558 87.0936 96.471 89.1707 95.4832 90.1258C95.1448 90.5913 94.2889 90.8459 93.8734 91.1292C93.2762 91.4893 92.8608 91.7725 92.393 92.1853C91.3281 92.9582 90.4447 93.6543 89.3798 94.4271L90.2853 94.796C90.527 92.3303 90.5624 89.6296 89.7417 87.1837C89.5627 86.5074 89.3313 85.9607 89.5926 85.313C89.8539 84.6653 90.2198 83.7584 90.5334 82.9811C91.1605 81.4266 91.7878 79.8721 92.6214 78.5525C92.8828 77.9048 91.9772 77.5359 91.5865 78.1309C90.9593 79.6855 90.2029 81.1873 89.4986 82.5596C89.0805 83.596 88.0652 84.9925 88.0874 86.0574C88.1371 86.681 88.5749 87.4626 88.6768 87.9566C88.8558 88.6329 89.0348 89.309 89.0322 90.0621C89.1563 91.621 89.1512 93.1274 88.9644 94.7105C88.8076 95.0991 89.402 95.4921 89.8698 95.0793C90.987 94.1769 92.1042 93.2743 93.2985 92.5541C93.9479 92.0645 94.545 91.7046 95.1944 91.2149C95.6099 90.9317 96.2841 90.7538 96.6225 90.2883C96.9609 89.8228 97.093 89.1223 96.991 88.6283C97.2524 87.9806 97.3072 87.098 97.4391 86.3975C97.7553 84.8672 97.9423 83.2841 98.1291 81.701C98.3433 79.6766 98.5053 77.7817 98.4086 75.7815C98.3615 74.4048 98.2623 73.1577 98.1629 71.9106C98.0884 70.9752 98.0936 69.4691 97.2926 68.8411C97.0339 68.7358 96.7752 68.6303 96.489 68.9662C94.2521 71.5242 92.7638 74.8397 91.3801 77.896C91.1188 78.5438 92.0242 78.9126 92.4149 78.3176L92.8553 78.3462Z" fill="#CBC4B1"/>
<path d="M84.4862 91.2242C85.427 88.8926 86.497 86.6137 87.9029 84.6223L87.0223 84.5652C88.875 88.1856 88.7051 92.3395 87.9407 96.1004C87.0966 100.432 85.2948 104.525 83.2343 108.512L84.2444 108.622C84.1255 105.557 83.6956 102.516 82.9025 99.6286C82.5445 98.2762 81.8755 96.9479 82.3982 95.6526C82.9731 94.2277 83.6003 92.6734 84.3046 91.3012C84.5659 90.6535 83.6604 90.2847 83.2697 90.8797C82.6425 92.4341 81.8861 93.9358 81.2589 95.4903C81.1021 95.8789 80.9453 96.2675 80.7885 96.6561C80.7336 97.5387 81.2484 98.5025 81.5045 99.3609C82.193 102.507 82.7522 105.601 82.8188 108.795C82.8685 109.419 83.672 109.293 83.8288 108.905C85.9416 104.788 87.6663 100.513 88.5627 96.0521C89.3793 92.1617 89.472 87.8254 87.6716 84.0756C87.5174 83.7111 86.9478 83.63 86.791 84.0186C85.3328 86.1395 84.2105 88.548 83.1404 90.827C82.8791 91.4747 83.7844 91.8435 84.1751 91.2485L84.4862 91.2242Z" fill="#CBC4B1"/>
<path d="M79.3434 94.2501C80.7289 98.2843 81.6989 102.602 81.9697 106.785C82.1436 108.968 82.0587 111.046 81.9739 113.123C81.9464 113.565 81.8668 114.136 81.8394 114.577C81.812 115.018 81.7571 115.901 81.6003 116.29C81.2344 117.197 79.8335 117.682 79.1317 118.301L80.0375 118.67C79.3263 114.458 78.2269 110.088 75.1542 106.875L75.3332 107.551C76.5405 103.065 77.9046 98.1898 80.5351 94.2831C80.7965 93.6353 80.1248 93.0598 79.7341 93.6549C77.0513 97.6912 75.6871 102.566 74.4276 107.182C74.3231 107.442 74.4002 107.624 74.6067 107.859C77.5252 110.707 78.4952 115.025 79.1815 118.925C79.3358 119.29 79.6716 119.577 80.0871 119.294C80.555 118.881 81.0228 118.468 81.5677 118.238C81.9833 117.954 82.5284 117.724 82.8146 117.388C83.3869 116.716 83.2104 115.286 83.3946 114.456C83.7133 112.172 83.7209 109.913 83.5992 107.6C83.3559 102.975 82.3611 98.3458 80.8213 93.947C80.6422 93.2706 79.6817 93.7845 79.913 94.3313L79.3434 94.2501Z" fill="#CBC4B1"/>
<path d="M76.829 123.998C72.7724 120.233 70.7692 114.739 71.6432 109.21C71.8523 108.692 71.8026 108.068 71.9595 107.679C72.0117 107.55 72.1163 107.29 72.1686 107.161L72.5569 107.319C73.5922 107.741 74.289 108.628 74.8564 109.463C76.2749 111.55 76.9666 113.944 77.4766 116.416C77.6558 117.092 77.835 117.769 77.8325 118.522C77.9345 119.016 77.9842 119.64 78.0862 120.134C77.8994 121.718 77.1949 123.091 76.3611 124.411L77.165 124.286L77.0356 124.233C76.4931 123.71 75.8682 124.512 76.4107 125.035L76.5401 125.088C76.7467 125.323 77.0578 125.298 77.2918 125.092C78.1257 123.772 78.8824 122.27 79.1214 120.556C79.2808 119.414 78.9997 118.243 78.7185 117.072C78.1836 114.289 77.3899 111.401 75.8171 108.949C75.0432 107.879 71.8154 104.301 71.1581 107.051C70.5258 110.113 70.2566 113.021 71.1275 116.092C72.0233 119.475 73.957 122.526 76.4631 124.905C76.8762 125.375 77.6827 124.497 77.0879 124.104L76.829 123.998Z" fill="#CBC4B1"/>
<path d="M57.1823 182.013C66.7227 172.927 77.012 164.598 88.1271 157.209L87.3784 156.452C84.3051 161.083 80.8435 165.556 77.0985 169.611C73.3534 173.667 69.1954 177.253 64.908 180.786C56.2287 188.111 47.9871 196.218 39.9273 204.248C35.4034 208.741 30.6978 213.311 26.1217 217.933L26.8706 218.69C35.3118 205.234 45.6661 193.01 57.1823 182.013C57.6501 181.601 57.083 180.766 56.4858 181.126C44.9696 192.123 34.4858 204.294 25.9924 217.88C25.7833 218.398 26.2733 219.05 26.7411 218.638C35.0349 210.401 43.1993 202.112 51.6473 194.24C55.7804 190.342 59.9137 186.445 64.3056 182.652C68.282 179.144 72.542 176.052 76.2347 172.126C80.6815 167.451 84.6631 162.435 88.1794 157.08C88.3884 156.562 87.9756 156.092 87.4307 156.322C76.4971 163.634 66.1556 172.093 56.4858 181.126C56.018 181.539 56.5851 182.373 57.1823 182.013Z" fill="#CBC4B1"/>
<path d="M24.0687 209.093C26.9348 197.143 29.878 185.374 33.7015 173.662C37.525 161.951 41.3458 150.992 47.6233 141.033L46.7181 140.665C47.4226 146.38 46.5206 152.345 45.5167 157.817C44.433 163.859 42.8321 169.691 40.9203 175.547C37.1491 187.129 32.5498 198.524 27.6149 209.633C24.743 216.002 21.7941 222.19 18.6636 228.454L19.5687 228.823C20.9137 222.133 22.3358 215.625 23.8871 209.17C24.1485 208.523 23.0094 208.361 22.8774 209.061C21.3261 215.516 19.9041 222.023 18.5591 228.713C18.3501 229.231 19.3074 229.47 19.4642 229.082C24.9961 217.613 30.3988 206.092 35.1549 194.308C39.6497 183.171 43.6796 171.694 46.0533 159.845C47.3185 153.725 48.3002 147.189 47.4939 140.981C47.3921 140.487 46.8227 140.406 46.5888 140.612C40.259 150.7 36.1769 162.307 32.5624 173.5C28.948 184.694 25.6912 197.239 22.9544 209.243C22.6931 209.89 23.8321 210.053 23.9641 209.353L24.0687 209.093Z" fill="#CBC4B1"/>
<path d="M31.0616 110.34C34.4235 104.621 37.9919 99.1362 42.0253 93.992C45.8497 89.3659 50.6371 83.4729 56.782 82.0545L56.215 81.2202C51.6536 89.1659 46.7043 96.9536 41.4191 104.454C38.9457 107.971 36.2135 111.383 33.275 114.56C30.3365 117.737 27.2934 121.173 23.273 122.552L23.8924 123.257C26.1097 118.881 28.4563 114.558 30.8801 110.417C31.1414 109.769 30.3405 109.141 30.0792 109.789C27.6032 114.059 25.0749 118.459 22.8053 122.965C22.6485 123.353 23.0614 123.823 23.4246 123.669C26.9524 122.391 29.7341 119.603 32.3342 116.892C35.636 113.561 38.4727 109.89 41.3093 106.219C47.01 98.4357 52.1161 90.2593 56.9635 81.9776C57.1203 81.589 57.0185 81.095 56.3965 81.1433C50.5626 82.5376 45.9072 87.7302 42.1873 92.0972C37.5568 97.6015 33.5978 103.681 30.0269 109.919C29.7656 110.566 30.5665 111.194 30.8278 110.547L31.0616 110.34Z" fill="#CBC4B1"/>
<path d="M47.6412 61.758C48.5245 61.062 49.5372 60.4187 50.6269 59.9576L50.0075 59.2529C48.6487 62.621 46.9017 65.831 44.8189 68.7535C43.0223 71.34 40.4469 74.3634 37.1032 74.8113L37.7225 75.5162C40.3305 70.5452 43.1725 65.3677 47.5119 61.7053C47.9797 61.2926 47.4126 60.4582 46.8155 60.8183C42.4239 64.6102 39.348 69.9941 36.6877 75.0946C36.5309 75.4833 36.8145 75.9003 37.3071 75.7993C40.7031 75.2219 43.3032 72.5102 45.2815 69.8469C47.5981 66.718 49.4496 63.249 50.913 59.6217C51.0698 59.2331 50.7863 58.8159 50.2937 58.9169C48.9452 59.2726 47.8804 60.0454 46.8155 60.8183C46.3477 61.2311 46.9147 62.0654 47.5119 61.7053L47.6412 61.758Z" fill="#CBC4B1"/>
<path d="M33.7219 82.0338C30.6181 72.9255 30.0348 61.6763 34.2109 52.8184L33.2778 52.8907C38.611 61.7004 36.7584 73.0133 32.7117 81.9239C32.4504 82.5716 33.3561 82.9406 33.7468 82.3455C37.8209 72.9936 39.7779 61.4216 34.1611 52.1947C34.0069 51.8302 33.385 51.8785 33.2282 52.2671C28.9476 61.3841 29.5556 72.945 32.7366 82.2356C32.9156 82.9119 33.8761 82.3981 33.6447 81.8513L33.7219 82.0338Z" fill="#CBC4B1"/>
<path d="M38.5583 65.5956C38.7921 65.3893 38.8718 64.8186 38.9763 64.5596C39.2899 63.7825 39.6035 63.0054 39.9171 62.2283C40.492 60.8036 41.3257 59.4842 42.0299 58.1122C43.4383 55.3682 44.976 52.677 46.9265 50.4554L46.0213 50.0867C45.7219 54.1872 44.5942 58.1011 43.1308 61.7276C42.8172 62.5046 42.4514 63.4112 42.1901 64.0587C41.7472 64.7832 40.9933 65.5318 40.5504 66.2562C39.4307 67.9114 38.3111 69.5667 37.2685 71.4041L38.1738 71.7728C38.4927 69.4899 38.63 67.2838 38.5857 65.1545C38.5361 64.5311 37.5512 64.7331 37.4715 65.3038C37.5158 67.4331 37.3783 69.6391 37.0346 71.6104C36.8778 71.9989 37.7309 72.4972 37.94 71.9791C38.9826 70.1417 40.2067 68.2275 41.3786 66.4427C41.9508 65.771 42.5231 65.0992 43.0182 64.2453C43.5134 63.3913 43.6977 62.5615 44.0113 61.7844C45.5269 58.0285 46.6546 54.1146 46.9541 50.0141C47.0338 49.4434 46.335 49.3096 46.0489 49.6454C44.1506 51.7375 42.8465 54.2225 41.5948 56.578C40.8906 57.95 40.2388 59.1924 39.5345 60.5645C39.2732 61.212 38.9596 61.9891 38.6983 62.6367C38.5415 63.0252 38.437 63.2843 38.2802 63.6729C38.1757 63.9319 37.9144 64.5794 37.8621 64.7089C37.3944 65.1216 37.9612 65.9557 38.5583 65.5956Z" fill="#CBC4B1"/>
<path d="M3.26628 153.743C2.39833 149.919 1.73674 146.331 1.6725 142.383C1.66052 138.305 1.83016 134.15 2.07694 130.178C2.59793 121.791 3.37774 113.51 4.4685 105.205L3.40609 105.225C5.82312 118.278 7.48867 131.326 8.2983 144.629C9.16021 157.803 9.14132 170.92 7.30853 184.052L8.37104 184.032C6.87679 173.919 5.25307 163.754 3.13677 153.69C2.9577 153.014 1.9724 153.216 2.0221 153.839C4.1384 163.903 5.68491 173.886 7.25627 184.181C7.30597 184.805 8.2391 184.732 8.31879 184.161C10.0993 171.159 10.0659 158.172 9.3334 145.051C8.57603 131.618 6.88556 118.258 4.39141 105.023C4.28945 104.529 3.40868 104.472 3.32899 105.043C2.31534 113.53 1.43099 122.07 0.934859 130.768C0.688078 134.741 0.493582 138.584 0.557828 142.532C0.622072 146.481 1.2835 150.069 2.15145 153.892C2.33052 154.568 3.31597 154.366 3.26628 153.743Z" fill="#CBC4B1"/>
<path d="M-25.6587 183.562C-24.5627 173.75 -22.6383 164.126 -19.4972 154.846L-20.5072 154.736C-19.3893 168.768 -18.764 182.901 -18.5791 197.005C-18.6023 203.784 -18.7549 210.51 -19.0369 217.183C-19.4208 223.363 -19.4937 229.518 -18.3225 235.576L-17.3373 235.374C-25.7302 219.586 -27.507 201.212 -25.6587 183.562C-25.5267 182.861 -26.6663 182.699 -26.6688 183.452C-28.5171 201.103 -26.7156 219.788 -18.2455 235.759C-17.9619 236.176 -17.2105 236.18 -17.2602 235.557C-18.5856 229.134 -18.2264 222.642 -17.9967 216.099C-17.767 209.555 -17.5099 202.57 -17.4866 195.791C-17.6467 181.999 -18.2995 168.307 -19.3926 154.587C-19.4946 154.093 -20.1937 153.959 -20.4027 154.477C-23.5961 163.887 -25.5729 173.641 -26.6688 183.452C-26.8008 184.153 -25.7907 184.262 -25.6587 183.562Z" fill="#CBC4B1"/>
<path d="M-7.61581 299.149C-8.2652 299.638 -8.78529 300.181 -9.48694 300.8L-8.58135 301.169C-8.00123 298.238 -7.55052 295.254 -6.91814 292.193C-6.60195 290.663 -6.41516 289.08 -5.84025 287.655C-5.26534 286.23 -4.69043 284.805 -4.06326 283.25L-5.0732 283.14C-4.84974 285.946 -4.67865 288.882 -4.50745 291.818C-4.51006 292.571 -4.46038 293.194 -4.46298 293.947C-4.41333 294.571 -4.26162 295.688 -4.47068 296.207C-4.67973 296.725 -5.64022 297.239 -6.05573 297.522C-6.70513 298.011 -7.22507 298.554 -7.87446 299.043C-8.34223 299.456 -7.77522 300.29 -7.17809 299.93C-6.5287 299.441 -5.82699 298.822 -5.30695 298.279C-4.83918 297.867 -3.8789 297.353 -3.48823 296.758C-3.27917 296.24 -3.40591 295.434 -3.37848 294.992C-3.37587 294.239 -3.3732 293.486 -3.49996 292.68C-3.56663 289.486 -3.76269 286.239 -4.08808 282.939C-4.19 282.445 -4.88896 282.311 -5.09802 282.829C-5.67293 284.254 -6.24785 285.679 -6.87501 287.233C-7.1886 288.01 -7.44991 288.658 -7.71123 289.306C-7.97255 289.954 -8.02749 290.836 -8.21172 291.666C-8.71474 294.779 -9.39938 297.97 -9.95467 301.213C-10.1115 301.601 -9.38764 302.047 -9.04923 301.581L-7.17809 299.93C-6.71032 299.518 -7.27733 298.683 -7.87446 299.043L-7.61581 299.149Z" fill="#CBC4B1"/>
<path d="M77.3062 264.805C85.9648 265.765 94.6681 268.858 100.584 275.495L101.209 274.693C96.2639 272.377 90.352 272.082 84.8809 271.816C79.0213 271.392 73.1342 271.409 67.1948 271.556C55.1866 271.798 43.151 272.481 31.1402 273.476L31.3442 274.465C45.6816 268.076 61.3361 263.281 77.2539 264.934C77.9537 265.068 78.1133 263.925 77.3612 263.921C61.314 262.215 45.4775 267.087 30.9583 273.553C30.4129 273.784 30.5398 274.59 31.1624 274.542C42.7324 273.518 54.3273 272.806 65.8948 272.536C71.8341 272.389 77.7212 272.372 83.6332 272.667C89.2338 272.985 95.5093 273.126 100.714 275.548C101.232 275.759 101.623 275.164 101.339 274.746C95.216 267.873 86.254 264.675 77.284 263.739C76.5843 263.605 76.477 264.618 77.1767 264.752L77.3062 264.805Z" fill="#CBC4B1"/>
<path d="M44.1052 264.13C39.7183 266.416 35.4607 268.754 31.0987 271.352L31.8476 272.11C37.967 263.289 44.9148 254.655 52.843 247.325C56.6378 243.892 60.7935 241.06 65.0785 238.28C69.3634 235.5 73.728 232.149 77.7567 228.51L76.9557 227.882C69.7532 242.749 57.5324 255.118 44.0529 264.26C43.4557 264.62 44.1523 265.507 44.7495 265.147C58.5922 255.852 70.6315 243.559 77.9907 228.304C78.1998 227.786 77.6051 227.393 77.1896 227.676C73.1608 231.314 68.7961 234.665 64.2772 237.652C59.7584 240.638 55.6552 243.341 51.7558 247.033C44.0093 254.286 37.1136 262.79 31.0464 271.482C30.8373 272 31.2504 272.47 31.7953 272.239C35.9757 269.719 40.2332 267.38 44.5679 265.224C45.1651 264.864 44.7795 263.952 44.1823 264.312L44.1052 264.13Z" fill="#CBC4B1"/>
<path d="M51.8656 261.424C56.0502 258.149 59.6921 254.35 63.6701 250.84C65.8283 248.852 68.788 247.493 71.3071 246.104C73.6445 244.793 76.0592 243.664 78.4738 242.535C88.3139 237.942 98.8756 234.549 109.407 232.35C115.504 231.061 121.572 230.214 127.795 229.731L127.591 228.742C115.205 235.165 102.611 241.353 89.4782 246.264C83.2749 248.566 76.8155 250.009 70.56 252.44C64.3045 254.872 57.7628 257.639 51.4276 260.642C50.8302 261.002 51.2159 261.914 51.8134 261.554C58.0191 258.498 64.3791 255.807 70.9458 253.352C77.5124 250.896 83.6084 249.607 89.8639 247.176C102.868 242.212 115.461 236.024 127.977 229.654C128.522 229.423 128.395 228.617 127.773 228.665C106.122 230.408 84.4033 236.801 65.9079 248.281C64.713 249.001 63.5182 249.722 62.6071 250.86C61.3325 252.152 60.1103 253.314 58.8357 254.605C56.4435 256.8 53.9219 258.942 51.4525 260.954C50.9845 261.367 51.5519 262.202 52.1493 261.841L51.8656 261.424Z" fill="#CBC4B1"/>
<path d="M121.036 258.502C111.411 259.563 101.709 260.442 92.0615 260.437C82.4141 260.433 72.3783 260.27 63.4959 256.5L63.5705 257.437C70.1153 254.668 76.6851 252.211 83.4863 250.301C86.3677 249.512 89.1168 249.424 92.0479 249.259C95.7311 249.099 99.362 249.068 102.993 249.038C109.632 249.025 116.348 249.194 122.933 250.064C126.225 250.5 129.464 251.065 132.6 251.889C135.735 252.713 138.895 253.849 141.091 256.254L141.457 255.346C134.658 256.502 127.783 257.476 120.959 258.319C120.337 258.368 120.488 259.486 121.111 259.438C127.934 258.594 134.758 257.75 141.609 256.465C141.92 256.441 142.259 255.975 141.975 255.557C138.952 252.212 134.547 251.172 130.401 250.238C124.907 248.906 119.23 248.405 113.629 248.086C108.028 247.767 102.712 247.866 97.2654 247.912C94.3866 247.947 91.4554 248.112 88.5243 248.277C85.9045 248.417 83.698 249.028 81.1279 249.793C75.0016 251.525 68.9251 253.881 63.1075 256.342C62.7439 256.496 62.7935 257.12 63.182 257.278C72.1167 260.918 82.4116 261.187 92.059 261.191C101.836 261.249 111.538 260.37 121.345 259.231C121.968 259.183 121.816 258.064 121.193 258.113L121.036 258.502Z" fill="#CBC4B1"/>
</svg>
